<svg xmlns="http://www.w3.org/2000/svg" viewBox="0 0 1000 1000"><circle cx="500" cy="500" r="393.8272" style="fill:#e79c2f"/><circle cx="500.00002" cy="500.00002" r="444.85814" style="fill:none;stroke:#e79c2f;stroke-linecap:round;stroke-miterlimit:10;stroke-width:10px;stroke-dasharray:0.5012980699539185,20.051921844482422"/><path d="M279.249,663.5193v22.60426H253.10639v-22.408c-19.6556-3.34122-35.18444-14.545-40.09794-31.44944l30.073-9.23815c3.735,11.40048,12.3835,16.51106,23.98025,16.51106,11.59756,0,18.28-5.30727,18.28-12.38349,0-5.50355-2.55489-9.23815-11.40047-11.00711l-24.5699-5.50355c-17.69036-4.128-33.2184-13.36611-33.2184-35.77369,0-20.44233,14.54582-34.20142,36.9534-37.73933V515.11727H279.249v22.40758c16.90363,3.7346,29.68049,13.95577,34.594,28.69747l-28.50119,7.46959c-3.93128-9.63152-12.57977-12.97315-20.63862-12.97315-10.02408,0-16.51105,5.30727-16.51105,12.3831,0,4.9143,2.16232,8.64889,9.63151,10.41785l24.76619,5.50355c21.22907,5.11059,33.61176,16.31437,33.61176,35.97037C316.20155,646.61528,300.28015,659.78471,279.249,663.5193Z" style="fill:#fff"/><path d="M396.64,663.5193v22.60426H370.49746v-22.408c-19.65559-3.34122-35.18444-14.545-40.09793-31.44944l30.073-9.23815c3.735,11.40048,12.38349,16.51106,23.98025,16.51106,11.59756,0,18.28-5.30727,18.28-12.38349,0-5.50355-2.55489-9.23815-11.40047-11.00711l-24.5699-5.50355c-17.69036-4.128-33.2184-13.36611-33.2184-35.77369,0-20.44233,14.54582-34.20142,36.95339-37.73933V515.11727H396.64v22.40758c16.90362,3.7346,29.68049,13.95577,34.594,28.69747l-28.50118,7.46959c-3.93128-9.63152-12.57978-12.97315-20.63862-12.97315-10.02408,0-16.51106,5.30727-16.51106,12.3831,0,4.9143,2.16233,8.64889,9.63152,10.41785l24.76618,5.50355c21.22908,5.11059,33.61177,16.31437,33.61177,35.97037C433.59263,646.61528,417.67122,659.78471,396.64,663.5193Z" style="fill:#fff"/><path d="M514.03111,663.5193v22.60426H487.88854v-22.408c-19.6556-3.34122-35.18444-14.545-40.09794-31.44944l30.07305-9.23815c3.735,11.40048,12.3835,16.51106,23.98025,16.51106,11.59756,0,18.28-5.30727,18.28-12.38349,0-5.50355-2.55489-9.23815-11.40048-11.00711l-24.5699-5.50355c-17.69036-4.128-33.2184-13.36611-33.2184-35.77369,0-20.44233,14.54582-34.20142,36.9534-37.73933V515.11727h26.14257v22.40758c16.90363,3.7346,29.68049,13.95577,34.594,28.69747l-28.50118,7.46959c-3.93128-9.63152-12.57978-12.97315-20.63862-12.97315-10.02409,0-16.51106,5.30727-16.51106,12.3831,0,4.9143,2.16232,8.64889,9.63152,10.41785l24.76618,5.50355c21.22908,5.11059,33.61177,16.31437,33.61177,35.97037C550.98371,646.61528,535.0623,659.78471,514.03111,663.5193Z" style="fill:#fff"/><path d="M767.13278,363.735c-8.09869,0-15.29746,5.3991-18.89689,12.59794H680.747l-54.891,109.782L544.86933,283.64815,478.28026,416.82626H420.68973a19.98287,19.98287,0,1,0-18.8969,26.99556c8.09867,0,15.29749-5.3991,18.8969-11.69807h67.48889l54.891-109.782,80.98669,202.46673L690.64535,391.6304h57.59054c2.69959,7.19881,9.89836,11.69807,18.89689,11.69807a19.97248,19.97248,0,0,0,19.79671-19.79675C787.8294,372.73349,778.83088,363.735,767.13278,363.735Z" style="fill:#fff"/></svg>