<svg xmlns="http://www.w3.org/2000/svg" xmlns:xlink="http://www.w3.org/1999/xlink" viewBox="0 0 1000 1000"><defs><clipPath id="a"><circle cx="537.90741" cy="335.57507" r="30.00029" style="fill:#fff"/></clipPath><clipPath id="b"><path d="M544.05506,338.75371v-10.2141c4.25941-.0637,3.42868-7.44472-.85118-5.19217-.76606.34047-2.72376-.59583-2.04282-2.894-4.59635,3.4047-11.00134-2.5707-11.40575,1.10653-.79588,7.23684.744,13.185,4.82749,13.1854a6.69959,6.69959,0,0,0,1.301-.0773v4.08564a7.75309,7.75309,0,0,0,3.99876,1.19165A8.68416,8.68416,0,0,0,544.05506,338.75371Z" style="fill:#e9bda0;clip-rule:evenodd"/></clipPath><clipPath id="c"><path d="M535.88775,334.68046v1.28614a6.22612,6.22612,0,0,0,5.62685-3.45649A14.52921,14.52921,0,0,1,535.88775,334.68046Z" style="fill:#cb9180;clip-rule:evenodd"/></clipPath></defs><g style="isolation:isolate"><path d="M724.43252,400.1766a29.47357,29.47357,0,0,0-41.17045-6.27618l-74.05,54.36689a29.42484,29.42484,0,1,0,34.88552,47.395l74.05019-54.36754a29.38748,29.38748,0,0,0,6.2847-41.11794Z" style="fill:#f8bea0"/><path d="M333.53327,633.27889c-2.19416,16.08413,20.3112,180.17784,20.3112,180.17784L240.51,1000H454.36366l74.684-147.42083c76.69021-36.04288,85.80376-130.29071,103.92124-159.14182L390.30412,617.09828C355.87782,625.13761,333.53327,633.27889,333.53327,633.27889Z" style="fill:#f8bea0"/><path d="M559.21122,791.5994c-15.07336,19.51046-33.26085,39.20558-54.16517,54.50538-.59923.9762-1.19432,1.95415-1.845,2.91569C469.159,899.31869,435.063,949.20472,402.28764,1000h52.076l74.684-147.42083c76.69-36.04288,85.80376-130.2905,103.92124-159.14182l-18.83924-5.92656C604.55251,725.66009,582.96472,760.85475,559.21122,791.5994Z" style="fill:#f8bea0;mix-blend-mode:multiply;opacity:0.04"/><g style="opacity:0.1"><path d="M403.39292,621.69334v73.701a10.353,10.353,0,0,0,10.35294,10.35316s219.759-9.36689,220.84879-10.39867a447.47145,447.47145,0,0,1-57.09333-34.42323C519.00582,649.69076,460.24975,639.62748,403.39292,621.69334Z"/></g><path d="M374.98441,447.69585l-41.456,185.63424c-.90882,3.57379,67.091-4.189,67.091-4.189L413.165,500.63169C412.62242,447.42872,374.98441,447.69585,374.98441,447.69585Z" style="fill:#f8bea0"/><path d="M365.09682,491.97146c8.92539-.52507,9.75873-3.8186,9.75873-3.8186L390.081,451.92642c-3.15023-3.15023-15.09655-4.23057-15.09655-4.23057Z" style="fill:#fff;opacity:0.2"/><path d="M521.07461,185.81334h77.375a4.82522,4.82522,0,0,1,4.82522,4.82522v.31045a4.82522,4.82522,0,0,1-4.82522,4.82522H521.07439a4.82522,4.82522,0,0,1-4.82522-4.82522v-.31023A4.82544,4.82544,0,0,1,521.07461,185.81334Z" style="fill:#fff;opacity:0.30000000000000004"/><path d="M496.83,185.325a5.47994,5.47994,0,1,0,5.13348,5.46887A5.30932,5.30932,0,0,0,496.83,185.325Z" style="fill:#fff;opacity:0.30000000000000004"/><path d="M417.06472,170.19463h241.6856a9.94149,9.94149,0,0,1,9.94149,9.94149V685.30518a9.94193,9.94193,0,0,1-9.94193,9.94193H417.06472a9.94171,9.94171,0,0,1-9.94171-9.94171V180.13634A9.94171,9.94171,0,0,1,417.06472,170.19463Z" style="fill:#202028"/><rect x="416.93359" y="215.26189" width="241.44426" height="425.31125" style="fill:#fff"/><rect x="416.93403" y="215.26102" width="241.44426" height="31.44941" style="fill:#d7d7d4"/><path d="M514.558,188.05277h77.03486a4.80422,4.80422,0,0,1,4.80422,4.80422v.30887a4.804,4.804,0,0,1-4.804,4.804H514.558a4.804,4.804,0,0,1-4.804-4.804v-.30909A4.804,4.804,0,0,1,514.558,188.05277Z" style="fill:#fff;opacity:0.30000000000000004"/><path d="M490.42018,187.5666a5.45585,5.45585,0,1,0,5.11091,5.44483A5.286,5.286,0,0,0,490.42018,187.5666Z" style="fill:#fff;opacity:0.30000000000000004"/><rect x="430.70907" y="261.33738" width="214.03078" height="361.03728" style="fill:#2c4d92;opacity:0.1"/><rect x="430.70907" y="261.33738" width="214.03078" height="15.14826" style="fill:#2c4d92"/><rect x="444.6411" y="284.91191" width="186.16671" height="246.72571" style="fill:#2c4d92;opacity:0.5"/><rect x="458.39631" y="385.81911" width="158.65629" height="6.62628" style="fill:#2c4d92;opacity:0.5"/><rect x="458.39631" y="401.90959" width="158.65629" height="6.62628" style="fill:#2c4d92;opacity:0.5"/><rect x="458.39631" y="418.00015" width="158.65629" height="6.62613" style="fill:#2c4d92;opacity:0.5"/><rect x="458.39631" y="434.09057" width="158.65629" height="6.62628" style="fill:#2c4d92;opacity:0.5"/><rect x="458.39631" y="450.18105" width="158.65629" height="6.62628" style="fill:#2c4d92;opacity:0.5"/><rect x="458.39631" y="466.27154" width="158.65629" height="6.62628" style="fill:#2c4d92;opacity:0.5"/><rect x="458.39631" y="482.3621" width="158.65629" height="6.62613" style="fill:#2c4d92;opacity:0.5"/><rect x="458.39631" y="498.45251" width="158.65629" height="6.62628" style="fill:#2c4d92;opacity:0.5"/><path d="M496.01141,578.5402a3.28316,3.28316,0,0,0-2.64664,5.243l-6.15275,9.45972a3.16232,3.16232,0,0,0-1.407-.00453l-6.0781-9.44327a3.29511,3.29511,0,1,0-5.28322-.01175l-6.15308,9.45955A3.3238,3.3238,0,1,0,470.2264,594.51l6.15292-9.45988a3.16755,3.16755,0,0,0,1.40671.00487l6.07809,9.4431a3.2952,3.2952,0,1,0,5.28339.01175l6.1531-9.45972a3.294,3.294,0,1,0,.7108-6.50992Z" style="fill:#2c4d92"/><path d="M554.66092,579.14918h-4.72659l-2.3247-3.10061H538.0459l-2.32923,3.10061H530.9894a4.96518,4.96518,0,0,0-4.95911,4.95978v13.1767a4.965,4.965,0,0,0,4.95911,4.95911h23.67152a4.965,4.965,0,0,0,4.95894-4.95911V584.109A4.96514,4.96514,0,0,0,554.66092,579.14918Zm1.85833,18.13648a1.86009,1.86009,0,0,1-1.85833,1.85833H530.9894a1.86012,1.86012,0,0,1-1.85849-1.85833V584.109a1.86068,1.86068,0,0,1,1.85849-1.859h6.27606l2.32923-3.10079h6.46464l2.32453,3.10079h6.27706a1.86065,1.86065,0,0,1,1.85833,1.859Z" style="fill:#2c4d92"/><path d="M542.8255,583.91436a6.70235,6.70235,0,1,0,6.70234,6.70234A6.71005,6.71005,0,0,0,542.8255,583.91436Zm0,10.30407a3.60173,3.60173,0,1,1,3.60173-3.60173A3.60539,3.60539,0,0,1,542.8255,594.21843Z" style="fill:#2c4d92"/><path d="M553.41863,584.30206h-1.4208a1.16269,1.16269,0,1,0,0,2.32538h1.4208a1.16269,1.16269,0,1,0,0-2.32538Z" style="fill:#2c4d92"/><path d="M604.95913,579.21377a6.35878,6.35878,0,0,0-6.05409,5.291.15306.15306,0,0,1-.302,0,6.35938,6.35938,0,0,0-6.05411-5.291c-3.42743,0-6.20594,3.03788-6.20594,6.78539a11.75511,11.75511,0,0,0,.99183,3.77654c2.13144,4.63633,7.60761,9.03158,10.12188,10.87967a2.188,2.188,0,0,0,2.59447,0c2.51428-1.84809,7.99044-6.24334,10.12171-10.87967a11.74655,11.74655,0,0,0,.992-3.77654C611.16489,582.25165,608.38638,579.21377,604.95913,579.21377Z" style="fill:#2c4d92"/><path d="M713.96275,521.24656a29.47138,29.47138,0,0,0-40.65062-9.04441l-15.97978,8.548a29.42234,29.42234,0,1,0,31.5944,49.64362l15.97955-8.548a29.38883,29.38883,0,0,0,9.05645-40.59855Z" style="fill:#f8bea0"/><path d="M681.682,559.07447l-15.98,8.54778a29.42249,29.42249,0,1,0,31.59462,49.64384l15.97955-8.54778A29.42237,29.42237,0,1,0,681.682,559.07447Z" style="fill:#f8bea0"/><path d="M681.682,611.02142l-4.34674,1.97712a29.42262,29.42262,0,1,0,31.5944,49.64428l4.34652-1.97734A29.42247,29.42247,0,1,0,681.682,611.02142Z" style="fill:#f8bea0"/><path d="M695.97172,615.47143l-10.23786-.78762c22.05117,11.81309,19.68833,31.50142,19.68833,31.50142s9.45048,2.3624,7.08807-12.6007C710.14742,618.62122,695.97172,615.47143,695.97172,615.47143Z" style="fill:#fff;opacity:0.2"/><path d="M688.09648,565.06885l-14.17571,2.36262c22.051,11.8133,19.68833,31.50185,19.68833,31.50185s13.38831-.78783,11.02548-15.75114C702.27218,568.21908,688.09648,565.06885,688.09648,565.06885Z" style="fill:#fff;opacity:0.2"/><path d="M677.07079,520.70442l-17.32572,5.77517c22.05095,11.8133,19.68855,31.50163,19.68855,31.50163s16.5381-5.51285,14.17548-20.47594C691.2465,522.542,677.07079,520.70442,677.07079,520.70442Z" style="fill:#fff;opacity:0.2"/><circle cx="537.90741" cy="335.57507" r="30.00029" style="fill:#fff"/><g style="clip-path:url(#a)"><g style="isolation:isolate"><path d="M526.257,351.98005l27.31729-1.28249a1.73559,1.73559,0,0,0,1.49572-1.4845c.95846-6.661-1.78321-30.15147-5.94786-32.18392a1.79,1.79,0,0,1-.8892-.96808c-2.61442-6.74737-11.01593-6.13507-13.45056-5.53828-8.18241,2.00572-14.74465,10.1278-10.87578,22.7228C526.257,340.89717,525.27571,352.10145,526.257,351.98005Z" style="fill:#c09b57"/></g><path d="M524.15958,387.28669s-4.93151-.11584-4.93776,4.23089a10.29319,10.29319,0,0,0,3.17209,7.14788Z" style="fill:#e9bda0"/><path d="M528.90234,343.62778s-3.5028,2.41265-4.7365,18.80219c-1.23362,16.38954-3.9769,29.8587-3.73922,29.90923.23769.05044,7.92034.883,7.92034.883l3.75484-25.75042Z" style="fill:#e9bda0"/><path d="M534.01239,340.1036s-7.21114,2.15251-10.29374,12.13292a.82486.82486,0,0,0,.75187,1.07668l5.31216.1825Z" style="fill:#004c97"/><path d="M514.793,442.62973l-2.69689,11.03133-3.899,7.70124s4.37453.95268,6.27641-2.66106c1.902-3.61366,1.42652-5.32543,1.42652-5.32543l4.12163-10.74608Z" style="fill:#e9bda0"/><path d="M508.64329,460.48094s-3.35011,1.82018-3.82886,3.879h8.23524l1.628-3.20791,1.10121,3.20791h1.11355s1.04393-8.32253-.99238-10.9841Z" style="fill:#00b2a9"/><path d="M545.97172,442.62973l-1.40362,11.03133,3.84627,7.70124s-4.31531.95268-6.1915-2.66106c-1.87628-3.61366-1.40717-5.32543-1.40717-5.32543l-.00186-10.74608Z" style="fill:#e9bda0"/><path d="M547.96815,460.48094s3.35,1.82018,3.82886,3.879h-8.23533l-1.62786-3.20791-1.10122,3.20791h-1.11355s-1.04393-8.32253.99239-10.9841Z" style="fill:#00b2a9"/><path d="M551.19516,368.318s5.905,5.09256,5.53438,18.96873c-.37059,13.87609-8.89464,57.52571-8.89464,57.52571h-9.285l.405-56.25035-17.248,56.25035h-9.60837l9.42308-48.70357s4.1992-23.232,8.26109-27.79087Z" style="fill:#202028"/><polygon points="538.645 438.939 548.846 438.927 548.846 438.678 538.645 438.691 538.645 438.939"/><rect x="518.26369" y="433.88654" width="0.24874" height="9.95541" transform="translate(72.81174 951.49447) rotate(-89.254)"/><path d="M545.10621,438.90068c3.6686-17.525,7.75076-41.77535,6.363-57.7824-.83392-9.61648-3.22913-11.67262-3.3305-11.75552l-.15771.19269c.02429.02008,2.436,2.12188,3.24953,11.68913.74972,8.82142.25358,25.97621-6.36791,57.60493Z"/><rect x="538.8306" y="368.42488" width="0.24872" height="20.13715"/><path d="M539.00094,383.99538l.02785-.24872a3.56488,3.56488,0,0,1-3.58278-3.55492V368.42488h-.24871v11.76686A3.808,3.808,0,0,0,539.00094,383.99538Z"/><g style="isolation:isolate"><path d="M544.05506,338.75371v-10.2141c4.25941-.0637,3.42868-7.44472-.85118-5.19217-.76606.34047-2.72376-.59583-2.04282-2.894-4.59635,3.4047-11.00134-2.5707-11.40575,1.10653-.79588,7.23684.744,13.185,4.82749,13.1854a6.69959,6.69959,0,0,0,1.301-.0773v4.08564a7.75309,7.75309,0,0,0,3.99876,1.19165A8.68416,8.68416,0,0,0,544.05506,338.75371Z" style="fill:#e9bda0;fill-rule:evenodd"/><g style="clip-path:url(#b)"><rect x="529.41484" y="320.19809" width="17.53421" height="19.74727" style="fill:#e9bda0"/></g></g><g style="isolation:isolate"><path d="M535.88775,334.68046v1.28614a6.22612,6.22612,0,0,0,5.62685-3.45649A14.52921,14.52921,0,0,1,535.88775,334.68046Z" style="fill:#cb9180;fill-rule:evenodd"/><g style="clip-path:url(#c)"><rect x="535.88775" y="332.79963" width="5.03837" height="3.16698" style="fill:#cb9180"/></g></g><path d="M526.6648,346.05623a21.62747,21.62747,0,0,1,8.8947-7.1354q.18938-1.22827.69343-1.32739c.50406-.09912,3.337-.11722,3.3396.35171.00052.086.084,1.00863.409,1.00863s.42253-.92255.423-1.00863c.00258-.46893,2.852-.45635,3.3396-.35171q.48759.10465.69549,1.32584c4.96554,1.9888,9.32888,4.98318,9.85094,5.83111.12944.21021-.84257.4281-2.48218.63541.06926.12274.148.23909.21047.36621l-.84376,22.566H529.7827l-.78028-21.88318C527.44786,346.38087,526.53907,346.2604,526.6648,346.05623Z" style="fill:#004c97;fill-rule:evenodd"/><path d="M555.99275,346.22885c.89872,1.45688,1.81819,2.89848,2.72651,4.3483l2.76035,4.32343c.91677,1.44361,1.85172,2.87385,2.77668,4.31143l2.79715,4.29643.20931.32149a2.51357,2.51357,0,0,1-.73507,3.47788,2.59321,2.59321,0,0,1-.23143.13373l-3.02275,1.53819c-1.0039.51861-2.012,1.03055-3.01009,1.55847l-3,1.57474c-.99269.53665-1.99221,1.06233-2.97869,1.60893a1.71283,1.71283,0,0,1-1.80873-2.904c.92562-.64433,1.8382-1.30958,2.75759-1.96389l2.73631-1.99811c.914-.663,1.818-1.342,2.72619-2.01432l2.71355-2.03462-.75718,3.93306-3.2619-3.95517c-1.09471-1.31292-2.17944-2.63319-3.28235-3.94012l-3.29869-3.92813c-1.11135-1.30073-2.21156-2.60963-3.33252-3.9033a4.055,4.055,0,1,1,6.12916-5.31091A4.38513,4.38513,0,0,1,555.99275,346.22885Z" style="fill:#e9bda0"/><path d="M545.4146,372.39485c.139,1.93508,3.41309,2.98025,5.34813,2.84123,1.93511-.13906,4.02842-.62344,3.8894-2.55847-.139-1.9351-2.75246-3.82876-4.77653-3.95429C547.40527,368.57007,545.27558,370.45982,545.4146,372.39485Z" style="fill:#e9bda0"/><path d="M542.37967,340.54012s14.05555-.42869,17.95617,11.3643a.61179.61179,0,0,1-.46455.784l-9.40934,1.86349Z" style="fill:#004c97"/></g></g></svg>