<svg xmlns="http://www.w3.org/2000/svg" viewBox="0 0 1000 1000"><path d="M198.5276,163.66881l1.15189,423.35769c16.34965,205.95642,298.59129,289.30869,298.59129,289.30869h.77578S781.2882,792.98292,797.63785,587.0265l3.83455-423.35769Z" style="fill:#e79c2f"/><circle cx="384.34023" cy="469.997" r="74.5958" style="fill:#741e98"/><path d="M414.13465,489.79607V507.0614H355.86482V494.11255L383.561,468.09483c5.27543-4.916,10.7909-9.71193,10.7909-17.02529,0-5.75492-4.07645-9.59192-9.95138-9.59192-6.59444,0-10.7909,3.95643-11.51041,12.94885l-18.3443-3.47695c.83952-16.18636,12.7094-26.01772,29.7347-26.01772s29.01519,10.0714,29.01519,26.01772c0,11.15036-6.115,18.10427-16.90587,28.29568L385,489.79607Z" style="fill:#fff"/><circle cx="615.65977" cy="469.997" r="74.5958" style="fill:#741e98"/><path d="M646.1734,486.06334c0,15.22681-12.34936,25.8977-29.97415,25.8977-16.90528,0-29.25522-9.83136-31.05312-25.41822l18.70377-3.47695c1.079,7.91286,5.39545,12.46937,12.46937,12.46937,6.71387,0,11.50983-3.837,11.50983-9.71193,0-5.27544-3.95643-8.39293-10.91034-8.39293h-10.7909V461.72409h9.95138c6.83447,0,10.7909-2.99747,10.7909-8.15289,0-5.51547-4.19646-9.23187-10.67089-9.23187s-11.27038,3.95643-11.98989,12.94885l-18.10427-3.47753c1.79849-15.94633,13.66836-25.77769,29.97415-25.77769,17.14531,0,28.77515,10.55087,28.77515,25.29821,0,7.314-3.1169,12.94885-8.63237,16.18635C642.57643,472.635,646.1734,478.50994,646.1734,486.06334Z" style="fill:#fff"/><circle cx="500" cy="318.20965" r="74.5958" style="fill:#741e98"/><path d="M514.183,278.04409V358.3752H494.99921V300.82489L475.816,310.65625V292.91144l25.8977-14.86735Z" style="fill:#fff"/><circle cx="500" cy="621.78435" r="74.5958" style="fill:#741e98"/><path d="M531.00973,645.20237H521.2978v14.74734H502.71406V645.20237H460.98947v-17.7448l35.84966-47.839H521.2978v49.75747h9.71193Zm-28.29567-15.8263V598.80243l-21.58181,30.57364Z" style="fill:#fff"/></svg>