<svg xmlns="http://www.w3.org/2000/svg" xmlns:xlink="http://www.w3.org/1999/xlink" viewBox="0 0 1000 1000"><defs><clipPath id="a"><path d="M432.655,405.30065H876.148a9.30516,9.30516,0,0,1,9.30516,9.30516V681.12308a9.30535,9.30535,0,0,1-9.30535,9.30535H432.65483a9.30516,9.30516,0,0,1-9.30516-9.30516V414.606A9.30535,9.30535,0,0,1,432.655,405.30065Z" style="fill:#31333f"/></clipPath><clipPath id="b"><circle cx="199.35158" cy="529.05543" r="153.19208" style="fill:#adadb2"/></clipPath></defs><path d="M426.06489,364.21356h456.673a22.2954,22.2954,0,0,1,22.2954,22.2954V710.70129a0,0,0,0,1,0,0H403.7695a0,0,0,0,1,0,0V386.509A22.2954,22.2954,0,0,1,426.06489,364.21356Z" style="fill:#31333f"/><path d="M953.8405,710.70129H354.96229A51.00574,51.00574,0,0,0,405.968,761.707H902.83481a51.00574,51.00574,0,0,0,51.00569-51.0057Z" style="fill:#fff"/><path d="M356.241,722.03119a51.01362,51.01362,0,0,0,49.727,39.6758H902.83481a51.01362,51.01362,0,0,0,49.727-39.6758Z" style="fill:#7e7e7e"/><path d="M953.8405,710.70129v-.00019H354.96229v.00019a51.11829,51.11829,0,0,0,1.2787,11.3299H952.5618A51.11829,51.11829,0,0,0,953.8405,710.70129Z" style="fill:#fff"/><polyline points="594.005 710.701 602.432 722.031 706.371 722.031 714.798 710.701" style="fill:#aaa"/><path d="M432.655,405.30065H876.148a9.30516,9.30516,0,0,1,9.30516,9.30516V681.12308a9.30535,9.30535,0,0,1-9.30535,9.30535H432.65483a9.30516,9.30516,0,0,1-9.30516-9.30516V414.606A9.30535,9.30535,0,0,1,432.655,405.30065Z" style="fill:#7e7e7e"/><path d="M681.08824,380.72068H627.71455a4.21372,4.21372,0,0,0-4.21374,4.21376h0a4.21372,4.21372,0,0,0,4.21374,4.21375h53.37369a4.21374,4.21374,0,0,0,4.21376-4.21375h0A4.21374,4.21374,0,0,0,681.08824,380.72068Z" style="fill:#aaa"/><g style="opacity:0.5"><path d="M432.655,405.30065H876.148a9.30516,9.30516,0,0,1,9.30516,9.30516V681.12308a9.30535,9.30535,0,0,1-9.30535,9.30535H432.65483a9.30516,9.30516,0,0,1-9.30516-9.30516V414.606A9.30535,9.30535,0,0,1,432.655,405.30065Z" style="fill:#31333f"/><g style="clip-path:url(#a)"><path d="M659.9809,376.62016a4.366,4.366,0,1,1-4.36587-4.36572A4.36592,4.36592,0,0,1,659.9809,376.62016Z" style="fill:#7f7f7f;opacity:0.46"/></g></g><rect x="446.63507" y="419.5252" width="416.18241" height="255.19968" style="fill:#fff"/><polygon points="488.236 389.078 656.73 504.467 821.792 389.671 488.236 389.078" style="fill:#fff"/><rect x="478.23066" y="381.06531" width="353.30184" height="240.73012" rx="30.74072" style="fill:#d9b73a"/><path d="M815.74836,384.54l-99.74651-57.281H593.76137L494.01485,384.54a31.44238,31.44238,0,0,0-15.78422,27.266v.0002a30.74067,30.74067,0,0,0,30.7407,30.74051H800.79169a30.74071,30.74071,0,0,0,30.7409-30.74051v-.0002A31.44239,31.44239,0,0,0,815.74836,384.54Z" style="fill:#d38d2f"/><path d="M535.54045,282.96411H774.22261a40.1245,40.1245,0,0,1,40.1245,40.1245V508.60944a0,0,0,0,1,0,0H495.416a0,0,0,0,1,0,0V323.08851A40.1244,40.1244,0,0,1,535.54045,282.96411Z" style="fill:#fdf8ed"/><path d="M831.5325,591.05471h0a31.442,31.442,0,0,0-15.78417-27.266L670.19026,480.19964a30.7407,30.7407,0,0,0-30.61736,0L494.01483,563.78875a31.442,31.442,0,0,0-15.78417,27.266h0a30.74073,30.74073,0,0,0,30.74072,30.74072h291.8204a30.74074,30.74074,0,0,0,30.74072-30.74072Z" style="fill:#e79c2f"/><path d="M602.59293,501.43011l-108.57849,62.361a31.43178,31.43178,0,0,0-15.788,27.26067V411.80844c0,.519.01339,1.0517.04069,1.57069v.02736a28.73087,28.73087,0,0,0,.31412,3.05928l.01365.082a31.4043,31.4043,0,0,0,15.41957,22.52145Z" style="fill:#fff"/><path d="M831.53675,411.80844V591.05177a31.43209,31.43209,0,0,0-15.78836-27.26067l-108.5922-62.361,108.57849-62.36093A31.41246,31.41246,0,0,0,829.77484,422.12c.12271-.38237.2594-.77846.38244-1.17454.15007-.478.28676-.95609.4098-1.44771.12271-.4917.24574-.98332.34142-1.47508.068-.34142.13642-.68291.17744-1.02433.05466-.30041.10932-.60089.15-.915.10939-.71014.17777-1.43407.21878-2.17157.0273-.35507.041-.69656.05466-1.05163.01365-.17757.01365-.34149.01365-.519C831.53675,412.16358,831.53675,411.986,831.53675,411.80844Z" style="fill:#fff"/><g style="opacity:0.7000000000000001"><path d="M602.59293,501.43011l-108.57849,62.361a31.43178,31.43178,0,0,0-15.788,27.26067V411.80844c0,.519.01339,1.0517.04069,1.57069v.02736a28.73087,28.73087,0,0,0,.31412,3.05928l.01365.082a31.4043,31.4043,0,0,0,15.41957,22.52145Z" style="fill:#e79c2f"/><path d="M831.53675,411.80844V591.05177a31.43209,31.43209,0,0,0-15.78836-27.26067l-108.5922-62.361,108.57849-62.36093A31.41246,31.41246,0,0,0,829.77484,422.12c.12271-.38237.2594-.77846.38244-1.17454.15007-.478.28676-.95609.4098-1.44771.12271-.4917.24574-.98332.34142-1.47508.068-.34142.13642-.68291.17744-1.02433.05466-.30041.10932-.60089.15-.915.10939-.71014.17777-1.43407.21878-2.17157.0273-.35507.041-.69656.05466-1.05163.01365-.17757.01365-.34149.01365-.519C831.53675,412.16358,831.53675,411.986,831.53675,411.80844Z" style="fill:#e79c2f"/></g><path d="M660.58673,249.2706a4.09992,4.09992,0,0,1-2.80819,1.21194,3.74289,3.74289,0,0,1-3.8548-3.8548l.43069-20.439a4.14485,4.14485,0,0,1,4.02013-4.02012,3.74282,3.74282,0,0,1,3.85492,3.85492l-.43081,20.43887A4.0993,4.0993,0,0,1,660.58673,249.2706Z" style="fill:#cc4447"/><path d="M695.28479,242.79682l-12.909,12.909a3.8579,3.8579,0,1,1-5.451-5.451l12.909-12.909a3.8579,3.8579,0,1,1,5.451,5.451Z" style="fill:#cc4447"/><path d="M638.50639,256.63024a3.94021,3.94021,0,0,1-5.56832.1174L620.56241,244.372a4.02407,4.02407,0,0,1,5.68584-5.68584l12.37566,12.37566A3.94015,3.94015,0,0,1,638.50639,256.63024Z" style="fill:#cc4447"/><path d="M654.0423,450.9449a69.51881,69.51881,0,0,1-69.27316-63.70045,3.63361,3.63361,0,1,1,7.24244-.5997,62.24356,62.24356,0,1,0,83.87283-63.51948,3.63378,3.63378,0,0,1,2.55064-6.80527A69.52437,69.52437,0,0,1,654.0423,450.9449Z" style="fill:#cc4447"/><polygon points="611.917 400.646 608.718 404.607 589.222 388.826 574.905 409.426 570.727 406.516 588.168 381.431 611.917 400.646" style="fill:#cc4447"/><path d="M656.03865,383.42831v-45.916a1.99635,1.99635,0,1,1,3.99269,0v47.91231A1.99635,1.99635,0,0,1,658.035,387.421l-35.93424-11.19a1.99635,1.99635,0,0,1,0-3.99269Z" style="fill:#cc4447"/><path d="M658.035,389.41966h-.30392l-35.98421-11.20573a3.99492,3.99492,0,0,1,.35379-7.97413h.321l31.61851,10.42542v-43.153a3.99488,3.99488,0,1,1,7.98975,0v47.91258A3.99937,3.99937,0,0,1,658.035,389.41966Z" style="fill:#cc4447"/><path d="M634.72569,320.8342a2.99515,2.99515,0,1,1,3.05691,1.875A2.99726,2.99726,0,0,1,634.72569,320.8342Z" style="fill:#cc4447"/><path d="M637.49434,324.72173a4.99394,4.99394,0,0,1-4.62845-3.156h0a4.99245,4.99245,0,1,1,5.11477,3.13189Q637.73661,324.72208,637.49434,324.72173Zm.02289-5.99515c-.02857,0-.057.00142-.08552.00426a.999.999,0,0,0-.84631,1.37148h0a.99512.99512,0,0,0,1.77246.143.98944.98944,0,0,0,.07292-.89635A1.0088,1.0088,0,0,0,637.51723,318.72658Z" style="fill:#cc4447"/><path d="M654.25511,317.29071a2.99515,2.99515,0,1,1,3.0569,1.875A2.99725,2.99725,0,0,1,654.25511,317.29071Z" style="fill:#cc4447"/><path d="M657.02373,321.17822a4.99467,4.99467,0,0,1-4.62846-3.15566h0a4.99253,4.99253,0,1,1,5.11478,3.13153Q657.266,321.17857,657.02373,321.17822Zm-.90894-4.61905a1.00781,1.00781,0,0,0,.99925.61779.99693.99693,0,1,0-.99925-.61779Z" style="fill:#cc4447"/><path d="M619.50743,327.60487a2.99452,2.99452,0,1,1,4.09059,1.096A2.99452,2.99452,0,0,1,619.50743,327.60487Z" style="fill:#cc4447"/><path d="M622.109,331.09976a4.99631,4.99631,0,0,1-4.33234-2.49564h0a4.99529,4.99529,0,1,1,4.33234,2.49564Zm-.01012-5.988a.99573.99573,0,0,0-.86068,1.4939h0a.996.996,0,1,0,.86068-1.4939Z" style="fill:#cc4447"/><path d="M606.75269,338.37727a2.99453,2.99453,0,1,1,4.2349,0A2.99456,2.99456,0,0,1,606.75269,338.37727Z" style="fill:#cc4447"/><path d="M608.87,341.25053a4.97846,4.97846,0,0,1-3.53038-1.45985l-.00018-.00035a4.99851,4.99851,0,1,1,3.53056,1.4602Zm-.7042-4.28621a.9962.9962,0,1,0-.00017-1.40874A.99761.99761,0,0,0,608.16583,336.96432Z" style="fill:#cc4447"/><path d="M597.22067,352.08376a2.99453,2.99453,0,1,1,4.0906-1.09608A2.99453,2.99453,0,0,1,597.22067,352.08376Z" style="fill:#cc4447"/><path d="M598.70986,354.48563a5.00649,5.00649,0,1,1,1.30034-.1721A5.03258,5.03258,0,0,1,598.70986,354.48563Zm.01082-5.99125a1.0141,1.0141,0,0,0-.26063.03407.9958.9958,0,0,0-.24024,1.82427l.00036.00036a.99588.99588,0,1,0,.50051-1.8587Z" style="fill:#cc4447"/><path d="M591.561,367.7903a2.99454,2.99454,0,1,1,3.66752-2.11746A2.99456,2.99456,0,0,1,591.561,367.7903Z" style="fill:#cc4447"/><path d="M592.33484,369.89134a4.99337,4.99337,0,1,1,4.824-3.70106A4.97635,4.97635,0,0,1,592.33484,369.89134Zm.00142-5.98983a.99679.99679,0,1,0,.25727.03407A.9978.9978,0,0,0,592.33626,363.90151Z" style="fill:#cc4447"/><circle cx="199.35158" cy="529.05543" r="153.19208" style="fill:#adadb2"/><g style="clip-path:url(#b)"><path d="M225.35661,565.014l-36.1342,4.17478-53.1765,12.83265-.01026.04953c-8.86968,3.23822-34.71906,23.45335-40.45551,81.47426l21.25138,12.67762L97.58812,770.567l135.08975,53.24713L298.9174,591.98763S280.59306,579.7714,225.35661,565.014Z" style="fill:#31333f"/><path d="M229.02714,527.19753c1.95338-3,46.78733-53.1733,20.14923-79.49205a58.58922,58.58922,0,0,1-12.06508-17.73477C233.31762,421.55138,224.7,411.53,205.18706,411.9228c-33.45031.67337-56.55358-7.95419-72.26552,26.48651-7.38716,16.19271-1.73332,25.24588,22.96822,22.82562a143.41128,143.41128,0,0,1,43.73582,2.26826l19.89765,7.48873Z" style="fill:#31333f"/><path d="M229.3969,575.91047l2.88046-71.62569L181.422,517.964l-.45013,57.56826c-.10408,13.372,6.46443,24.24524,19.83685,24.34984l4.18637.05153A24.21363,24.21363,0,0,0,229.3969,575.91047Z" style="fill:#31333f"/><path d="M227.32355,513.85052s4.75578,60.38185-46.32014,59.92176l-.1359-28.42146Z" style="fill:#31333f"/><path d="M181.441,560.31506l1.71954.05063a46.12321,46.12321,0,0,0,47.46189-44.74359l1.5343-52.0512a11.93827,11.93827,0,0,0-11.58115-12.28525l-60.67818-1.78881a21.32252,21.32252,0,0,0-21.94156,20.6851l-1.25843,42.67129A46.1231,46.1231,0,0,0,181.441,560.31506Z" style="fill:#31333f"/><path d="M220.33877,499.1591a15.55705,15.55705,0,1,0,16.00829-15.09134A15.55708,15.55708,0,0,0,220.33877,499.1591Z" style="fill:#31333f"/><path d="M298.906,591.8998s10.72919,22.91892,18.95722,72.70292l-67.88355,20.8512s-48.498-61.17274-1.07295-94.3816Z" style="fill:#31333f"/></g><circle cx="373.14641" cy="529.01175" r="56.88338" style="fill:#00b2a9"/><line x1="345.6951" y1="528.70715" x2="388.84808" y2="528.70715" style="fill:none;stroke:#fff;stroke-linecap:round;stroke-linejoin:round;stroke-width:11px"/><line x1="385.48675" y1="513.85841" x2="400.59771" y2="528.96937" style="fill:none;stroke:#fff;stroke-linecap:round;stroke-linejoin:round;stroke-width:11px"/><line x1="385.28561" y1="544.1651" x2="400.39657" y2="529.05413" style="fill:none;stroke:#fff;stroke-linecap:round;stroke-linejoin:round;stroke-width:11px"/></svg>