<svg xmlns="http://www.w3.org/2000/svg" xmlns:xlink="http://www.w3.org/1999/xlink" viewBox="0 0 1000 1000"><defs><clipPath id="a"><path d="M692.13546,278.62849V225.96956c21.95943-.32841,17.67662-38.38135-4.38825-26.7683-3.94942,1.7553-14.04238-3.07177-10.53179-14.92-23.69652,17.553-56.71754-13.25329-58.80247,5.70472-4.10319,37.30963,3.83579,67.9753,24.88818,67.97749a34.541,34.541,0,0,0,6.70718-.39852v21.06357q10.3078,6.14355,20.61564,6.14355T692.13546,278.62849Z" style="fill:#e9bda0;clip-rule:evenodd"/></clipPath><clipPath id="b"><path d="M650.02879,257.62882v6.63069q18.64882,0,29.00929-17.82A74.90574,74.90574,0,0,1,650.02879,257.62882Z" style="fill:#cb9180;clip-rule:evenodd"/></clipPath></defs><path d="M809.7934,926.19261c0-5.46994-162.42976-9.90429-362.79687-9.90429s-362.79688,4.43435-362.79688,9.90429c0,5.4701,162.42974,9.90444,362.79688,9.90444S809.7934,931.66271,809.7934,926.19261Z" style="fill:#1c1c27;opacity:0.2"/><g style="isolation:isolate"><path d="M600.37714,346.817l140.8346-6.61192a8.94783,8.94783,0,0,0,7.71123-7.65334c4.94132-34.34088-9.19337-155.44623-30.66425-165.92459a9.22818,9.22818,0,0,1-4.58428-4.99093c-13.4787-34.78616-56.79276-31.62943-69.34454-28.55264-42.18449,10.34047-76.01623,52.214-56.07018,117.14766C600.37714,289.67912,595.31829,347.44288,600.37714,346.817Z" style="fill:#c09b57"/></g><path d="M541.27439,814.16252l-13.90386,56.87215-20.1013,39.70382s22.55293,4.91152,32.35811-13.71915c9.80562-18.63024,7.35443-27.4553,7.35443-27.4553l21.24913-55.40152Z" style="fill:#e9bda0"/><path d="M509.5697,906.19463s-17.27157,9.38394-19.73974,19.99806h42.45689l8.39293-16.53844,5.67732,16.53844H552.098s5.382-42.90688-5.11626-56.62865Z" style="fill:#00b2a9"/><path d="M702.01682,814.16252l-7.23638,56.87215,19.82948,39.70382S692.36233,915.65,682.6896,897.01934c-9.67319-18.63024-7.25467-27.4553-7.25467-27.4553l-.00959-55.40152Z" style="fill:#e9bda0"/><path d="M712.30945,906.19463s17.27113,9.38394,19.73974,19.99806H689.59184l-8.39246-16.53844-5.67733,16.53844h-5.74093s-5.382-42.90688,5.11626-56.62865Z" style="fill:#00b2a9"/><path d="M728.94633,431.04774s30.44316,26.25475,28.53256,97.79351c-1.91059,71.53832-45.8564,296.57443-45.8564,296.57443H663.75357l2.08788-289.99931L576.91918,825.41568h-49.536L575.96388,574.3239s21.64906-119.773,42.59019-143.27616Z" style="fill:#202028"/><polygon points="664.242 795.136 716.834 795.071 716.834 793.789 664.242 793.854 664.242 795.136"/><rect x="559.16775" y="769.0869" width="1.28238" height="51.32522" transform="translate(-242.16177 1344.16358) rotate(-89.254)"/><path d="M697.55468,794.93734c18.91351-90.35009,39.95914-215.37329,32.80479-297.89785-4.29928-49.57784-16.64783-60.17829-17.17042-60.60572l-.81311.99343c.12522.10351,12.55892,10.93938,16.753,60.26345,3.86518,45.47891,1.30732,133.92063-32.82984,296.98289Z"/><rect x="665.20068" y="431.59854" width="1.28227" height="103.81729"/><path d="M666.07891,511.87244l.14359-1.28227a18.37878,18.37878,0,0,1-18.47107-18.32747V431.59854h-1.28227V492.2627A19.63242,19.63242,0,0,0,666.07891,511.87244Z"/><g style="isolation:isolate"><path d="M692.13546,278.62849V225.96956c21.95943-.32841,17.67662-38.38135-4.38825-26.7683-3.94942,1.7553-14.04238-3.07177-10.53179-14.92-23.69652,17.553-56.71754-13.25329-58.80247,5.70472-4.10319,37.30963,3.83579,67.9753,24.88818,67.97749a34.541,34.541,0,0,0,6.70718-.39852v21.06357q10.3078,6.14355,20.61564,6.14355T692.13546,278.62849Z" style="fill:#e9bda0;fill-rule:evenodd"/><g style="clip-path:url(#a)"><rect x="616.65765" y="182.96476" width="90.39784" height="101.80728" style="fill:#e9bda0"/></g></g><g style="isolation:isolate"><path d="M650.02879,257.62882v6.63069q18.64882,0,29.00929-17.82A74.90574,74.90574,0,0,1,650.02879,257.62882Z" style="fill:#cb9180;fill-rule:evenodd"/><g style="clip-path:url(#b)"><rect x="650.02879" y="247.93213" width="25.97538" height="16.32738" style="fill:#cb9180"/></g></g><path d="M602.47979,316.27671c2.6928-4.37366,20.28157-26.54083,45.85674-36.78664q.9763-6.33237,3.575-6.84339c2.59868-.511,17.20406-.60433,17.21735,1.81328.00266.44348.43311,5.2,2.10867,5.2,1.67528,0,2.17832-4.75626,2.181-5.2.01329-2.41761,14.70375-2.35274,17.21735-1.81328q2.51373.5396,3.5856,6.83542c25.5999,10.25325,48.09516,25.69082,50.78662,30.06236.66735,1.08371-4.34388,2.207-12.79689,3.27586.35707.63278.7628,1.2326,1.085,1.888l-4.35,116.33947H618.55414l-4.02271-112.819C606.51686,317.9504,601.83159,317.32931,602.47979,316.27671Z" style="fill:#004c97;fill-rule:evenodd"/><path d="M667.17947,68.74931V90.7551a4.6503,4.6503,0,1,1-9.29232,0V68.74931a4.6503,4.6503,0,1,1,9.29232,0Z" style="fill:#e79c2f"/><path d="M707.4975,86.02752,691.93706,101.588a4.65029,4.65029,0,1,1-6.57066-6.57066l15.56044-15.56044a4.65029,4.65029,0,1,1,6.57066,6.57066Z" style="fill:#e79c2f"/><path d="M639.05712,102.70226a4.74953,4.74953,0,0,1-6.712.14151L617.42753,87.92621a4.85059,4.85059,0,0,1,6.85368-6.85368l14.91756,14.91756A4.74945,4.74945,0,0,1,639.05712,102.70226Z" style="fill:#e79c2f"/><circle cx="273.17166" cy="615.68556" r="197.8498" style="fill:#e79c2f"/><circle cx="167.81949" cy="540.14615" r="19.20433" style="fill:#fff"/><path d="M339.97239,542.89621H202.79871a2.75,2.75,0,0,1,0-5.5H339.97239a2.75,2.75,0,0,1,0,5.5Z" style="fill:#fff"/><circle cx="167.81949" cy="590.50576" r="19.20433" style="fill:#fff"/><path d="M394.97814,593.25582H202.79871a2.75,2.75,0,0,1,0-5.5H394.97814a2.75,2.75,0,1,1,0,5.5Z" style="fill:#fff"/><circle cx="167.81949" cy="640.86536" r="19.20433" style="fill:#fff"/><path d="M360.59955,643.61542H202.79871a2.75,2.75,0,0,1,0-5.5H360.59955a2.75,2.75,0,0,1,0,5.5Z" style="fill:#fff"/><circle cx="167.81949" cy="691.22496" r="19.20433" style="fill:#fff"/><path d="M394.97814,693.975H202.79871a2.75,2.75,0,0,1,0-5.5H394.97814a2.75,2.75,0,1,1,0,5.5Z" style="fill:#fff"/><path d="M760.17845,331.38181c4.63335,7.511,9.37368,14.94316,14.05653,22.41769L788.466,376.089c4.72639,7.44259,9.54655,14.81618,14.31523,22.22763l14.42069,22.1503,1.07912,1.65746a12.95872,12.95872,0,0,1-3.78966,17.93025,13.37029,13.37029,0,0,1-1.19314.68943l-15.58381,7.93016c-5.17566,2.6737-10.37279,5.313-15.51859,8.03474l-15.46644,8.11859c-5.11787,2.76671-10.27089,5.47684-15.35671,8.29482a8.8305,8.8305,0,0,1-9.3249-14.97145c4.772-3.32183,9.47686-6.75152,14.21679-10.12483l14.10705-10.30127c4.712-3.41808,9.37278-6.91858,14.05491-10.38489l13.98974-10.4895-3.90367,20.27694-16.81673-20.3909c-5.6438-6.76881-11.23611-13.57547-16.92218-20.31336l-17.00644-20.2515c-5.72957-6.70593-11.40176-13.454-17.18088-20.1235a20.90567,20.90567,0,0,1,31.599-27.3805A22.60432,22.60432,0,0,1,760.17845,331.38181Z" style="fill:#e9bda0"/><path d="M705.6427,466.28094c.71634,9.97631,17.5962,15.3647,27.5723,14.648,9.97648-.71692,20.7686-3.21414,20.05188-13.19025-.71664-9.97639-14.19036-19.7392-24.62549-20.38638C715.90558,446.56224,704.926,456.30484,705.6427,466.28094Z" style="fill:#e9bda0"/><path d="M683.498,287.83834s72.46353-2.21012,92.57322,58.58876a3.15408,3.15408,0,0,1-2.395,4.04183l-68.512,14.60774Z" style="fill:#004c97"/><path d="M585.19789,331.38181c-4.63335,7.511-9.37368,14.94316-14.05653,22.41769l-14.231,22.28949c-4.7264,7.44259-9.54655,14.81618-14.31523,22.22763l-14.42069,22.1503-1.07912,1.65746a12.95872,12.95872,0,0,0,3.78966,17.93025,13.36888,13.36888,0,0,0,1.19314.68943l15.58381,7.93016c5.17566,2.6737,10.37279,5.313,15.51859,8.03474l15.46644,8.11859c5.11787,2.76671,10.27089,5.47684,15.35671,8.29482a8.8305,8.8305,0,0,0,9.3249-14.97145c-4.772-3.32183-9.47686-6.75152-14.21679-10.12483l-14.10705-10.30127c-4.71206-3.41808-9.37278-6.91858-14.05491-10.38489L546.96,416.85043l3.90367,20.27694,16.81673-20.3909c5.64379-6.76881,11.23611-13.57547,16.92218-20.31336l17.00644-20.2515c5.72957-6.70593,11.40176-13.454,17.18088-20.1235a20.90567,20.90567,0,0,0-31.599-27.3805A22.60432,22.60432,0,0,0,585.19789,331.38181Z" style="fill:#e9bda0"/><path d="M639.73364,466.28094c-.71634,9.97631-17.5962,15.3647-27.5723,14.648-9.97648-.71692-20.7686-3.21414-20.05188-13.19025.71664-9.97639,14.19036-19.7392,24.62549-20.38638C629.47075,446.56224,640.45036,456.30484,639.73364,466.28094Z" style="fill:#e9bda0"/><path d="M660.11428,287.83834s-72.46353-2.21012-92.57322,58.58876a3.15407,3.15407,0,0,0,2.395,4.04183l48.51,9.60724Z" style="fill:#004c97"/></svg>