<svg xmlns="http://www.w3.org/2000/svg" viewBox="0 0 1000 1000"><path d="M928.61678,938.11315c0-5.46994-191.89836-9.90429-428.61678-9.90429s-428.61678,4.43435-428.61678,9.90429c0,5.4701,191.89833,9.90444,428.61678,9.90444S928.61678,943.58325,928.61678,938.11315Z" style="fill:#1c1c27;opacity:0.2"/><path d="M713.10569,919.37446s-15.73318,8.54825-17.982,18.21738h38.67611l7.645-15.0657,5.17185,15.0657h5.22941s4.903-39.08575-4.6605-51.58563Z" style="fill:#20202a"/><path d="M727.29023,835.53908l2.03082,51.8072-18.31122,36.16747s20.54428,4.474,29.47654-12.49713,6.6992-25.01041,6.6992-25.01041l4.6605-50.46713Z" style="fill:#8e644a"/><path d="M773.15876,919.37446s-15.73318,8.54825-17.98162,18.21738h38.67572l7.64541-15.0657,5.17185,15.0657h5.22941s4.903-39.08575-4.6605-51.58563Z" style="fill:#20202a"/><path d="M787.3437,835.53908l2.03081,51.8072-18.3112,36.16747s20.54426,4.474,29.47653-12.49713,6.69919-25.01041,6.69919-25.01041l4.6605-50.46713Z" style="fill:#8e644a"/><path d="M692.31736,595.29369c1.52341-67.29989,30.27413-96.26154,30.27413-96.26154h83s26.80546,17.88779,26.80546,96.26154c0,78.40174.015,78.1916-14.1597,250.08286H781.83476L762.29385,596.99411a.27679.27679,0,0,0-.55274.02011l-1.48753,248.36233-42.23152.33512a1.02138,1.02138,0,0,1-1.02506-.82833C714.37325,831.30359,690.86414,659.518,692.31736,595.29369Z" style="fill:#20202a"/><path d="M703.44366,499.60461c.60045-1.24072,2.35213,3.13946,2.66123,1.79583l27.29158-78.56654c3.10242-11.2359-2.52955-43.26131-14.18375-43.06182-8.55772.14667-17.11544,16.95183-18.34394,25.422l-24.5519,74.15127Z" style="fill:#8e644a"/><path d="M695.21712,482.20925l-83.559-40.32608-9.67859,13.00256,72.75875,59.48652a19.21258,19.21258,0,0,0,30.63329-9.23347h0A19.21207,19.21207,0,0,0,695.21712,482.20925Z" style="fill:#8e644a"/><path d="M732.287,379.11052s14.403,18.489,5.026,46.36608l-48.4789-13.11374s-5.337-35.06946,28.15619-39.19653Z" style="fill:#fff"/><path d="M580.53279,437.81287c-4.82372,7.83387-.86066,19.03231,8.85144,25.01278,9.7121,5.98008,21.496,4.47757,26.31935-3.3563,4.82372-7.83347.861-19.03231-8.85144-25.01239C597.14043,428.4765,585.35693,429.9794,580.53279,437.81287Z" style="fill:#8e644a"/><path d="M759.0373,357.661s-21.45777.192-54.31861,18.87973c0,0-7.231,53.72763,10.32162,74.28414l2.51141,35.2453,88.61809-.39426s4.91243-62.883,23.133-78.76761l-6.07354-31.30195S796.22668,357.00223,759.0373,357.661Z" style="fill:#fff"/><path d="M857.35488,486.332c-.19634-1.36452,3.70561,1.28646,3.21043,0l-21.32176-80.39234c-3.71271-11.049-26.29411-34.44654-35.84336-27.76232-7.01187,4.9077-4.70587,23.62539-.98645,31.33389l21.12265,75.19959Z" style="fill:#8e644a"/><path d="M840.80559,476.51343l-91.82142,13.3089-.75027,16.19209,93.58572,8.6145a19.21248,19.21248,0,0,0,20.22888-24.78767l-.0004-.00039A19.21175,19.21175,0,0,0,840.80559,476.51343Z" style="fill:#8e644a"/><path d="M813.86805,370.31586s22.28059,7.27008,30.10026,35.62378L796.44707,422.185s-24.03934-26.08555,1.41656-48.24037Z" style="fill:#fff"/><path d="M720.90644,503.85784c.38322,9.19169,9.9321,16.25794,21.32767,15.78325,11.396-.47508,20.3235-8.3117,19.94029-17.50339s-9.9321-16.25832-21.32768-15.78325S720.52364,494.66616,720.90644,503.85784Z" style="fill:#8e644a"/><path d="M778.277,495.1712h-58.0534v-9.29853H778.277a4.64917,4.64917,0,0,1,4.64907,4.64946h0A4.64909,4.64909,0,0,1,778.277,495.1712Z" style="fill:#cfcfcf"/><path d="M731.07233,495.1712H621.8654a14.00935,14.00935,0,0,1-13.49617-10.25263L587.07389,408.412a10.61318,10.61318,0,0,1,10.22464-13.4595H697.60079a9.24026,9.24026,0,0,1,8.9366,6.89159Z" style="fill:#dad9db"/><path d="M664.58146,449.34446A10.33168,10.33168,0,1,1,654.25,439.01259,10.33163,10.33163,0,0,1,664.58146,449.34446Z" style="fill:#fff"/><path d="M789.92252,310.4469c9.69555.893,40.14472,5.37766,38.15491,26.423a25.31929,25.31929,0,0,1-18.65658,21.72863c-9.84773,2.649-23.41329.81571-33.82322-21.54175-15.13746-32.50956,2.23977-29.72887,8.97247-27.68072A26.70736,26.70736,0,0,0,789.92252,310.4469Z" style="fill:#1c1927"/><path d="M705.8159,285.04381a50.06036,50.06036,0,0,0,52.00709,48.035c27.62552-1.09721,51.18034-26.59966,50.08354-54.22517-1.09724-27.62591-22.607-49.17476-53.9713-43.68317C726.702,239.93856,704.71908,257.41829,705.8159,285.04381Z" style="fill:#1c1927"/><path d="M777.09186,360.43738l-2.23425-59.56932-36.76121,1.6267,2.23385,59.56892a18.39894,18.39894,0,0,0,19.194,17.56766h0A18.39918,18.39918,0,0,0,777.09186,360.43738Z" style="fill:#8e644a"/><path d="M776.28326,303.55452s-2.12546,44.08058-36.1253,44.72519l-.93675-21.99436Z" style="fill:#794f3c"/><path d="M722.59149,367.57578s32.57461-19.81452,76.16394-3.52071l-46.62034,29.24Z" style="fill:#8e644a"/><path d="M709.2136,310.32074c.78181,19.69427,17.367,30.93175,37.06124,30.14954h0c16.60766-.65919,35.11638-18.83557,34.33418-38.53024l-1.33929-33.73372A15.64547,15.64547,0,0,0,763.06386,253.238L731.124,245.63911c-8.5731.34064-22.49633,17.1964-21.91914,31.72986Z" style="fill:#8e644a"/><path d="M726.64681,248.57868s28.79251,38.9241,56.12943,38.95328c0,0,13.98862-25.49338-9.55716-41.18359s-42.1704-2.60484-42.1704-2.60484Z" style="fill:#1c1927"/><path d="M746.22359,254.45112s-14.19677,13.92355-38.51053,18.08847c0,0,3.81285-24.71315,25.19335-28.86979Z" style="fill:#1c1927"/><path d="M764.499,275.66446s-.87369,19.44668,11.52132,21.26893l1.65824-17.67726Z" style="fill:#1c1927"/><path d="M796.16438,296.13305a12.83268,12.83268,0,1,1-13.33176-12.313A12.83345,12.83345,0,0,1,796.16438,296.13305Z" style="fill:#8e644a"/><path d="M728.63268,265.9358s-22.81993,12.80543-31.4431,1.24861a20.858,20.858,0,0,0,15.8964-10.18048Z" style="fill:#1c1927"/><path d="M713.086,257.00393s4.955-29.43476,40.84925-21.8335L751.041,248.49352Z" style="fill:#1c1927"/><path d="M197.87784,903.56438v-31.9065h30.96808V904.0336S197.64324,903.56438,197.87784,903.56438Z" style="fill:#2e353a"/><path d="M255.35691,901.92214v-31.9065h41.52493v32.37571S255.04233,901.92214,255.35691,901.92214Z" style="fill:#394044"/><path d="M323.82026,375.24766s16.03771,17.59475,19.9377,59.60706l-3.93437,88.82255A14.86614,14.86614,0,0,1,328.661,538.495h0a14.86643,14.86643,0,0,1-18.562-14.63833Z" style="fill:#fff"/><path d="M243.20486,356.23755s-44.44391-6.9543-72.60719,20.17012l14.5739,188.97123H312.48589l11.42625-190.06166S293.57934,347.668,243.20486,356.23755Z" style="fill:#fff"/><path d="M229.73117,356.84983l5.75968-36.568,38.03821,6.13659-5.75968,36.568A19.26521,19.26521,0,0,1,245.682,378.93723h0A19.26477,19.26477,0,0,1,229.73117,356.84983Z" style="fill:#e6bda0"/><path d="M235.68315,310.76213s-3.11934,46.10429,32.558,49.0344l3.63346-22.76276Z" style="fill:#cf9580"/><path d="M309.8424,268.147s16.23743,20.95077-9.51931,32.32308L295.001,298.1802s-10.68237-22.53409.96238-35.44322Z" style="fill:#1f2326"/><path d="M272.34748,349.82655l-1.35822.00867A36.41219,36.41219,0,0,1,234.3617,313.639l-.24444-41.10986a9.42539,9.42539,0,0,1,9.3691-9.48067l47.92339-.28426a16.8331,16.8331,0,0,1,16.9329,16.7334l.19989,33.70179A36.41136,36.41136,0,0,1,272.34748,349.82655Z" style="fill:#e6bda0"/><path d="M235.92572,307.79808s21.29456-1.62118,17.71589-40.05562l-22.27743-10.59878v5.5933Z" style="fill:#1f2326"/><path d="M235.511,303.70215h-7.56418s-1.64537-23.25856-3.4675-30.11327c-2.31991-8.72737,1.5055-27.9195,15.094-26.14132,5.75734.75339,12.40019-2.47338,17.72541-4.78845a26.04659,26.04659,0,0,0,4.2895-2.3612c8.52579-5.809,13.55823-11.12331,33.01319-6.43324,21.70536,5.23217,29.952,31.6934,20.291,41.222-9.78423,9.65014-56.903,5.2231-64.15452-1.0712l-9.66873,14.51848Z" style="fill:#1f2326"/><path d="M243.64564,305.47354a12.28149,12.28149,0,1,1-12.354-12.20853A12.2823,12.2823,0,0,1,243.64564,305.47354Z" style="fill:#e6bda0"/><polygon points="185.172 565.379 185.471 876.675 242.372 876.386 249.358 624.882 255.685 625.267 251.037 876.386 308.515 876.098 312.486 565.379 185.172 565.379" style="fill:#1c1c27"/><path d="M297.15958,898.98214l19.20421,14.92535,17.28063,3.48443A18.25543,18.25543,0,0,1,348.222,933.711l.32723,3.7754-95.88147-.14745,2.68527-38.315Z" style="fill:#394044"/><path d="M252.2897,937.9642l96.63569.149.00985-6.11531a2.18517,2.18517,0,0,0-2.18181-2.18851l-94.45032-.14548-.01341,8.30027"/><path d="M197.73178,899.80968s-14.53977,20.85141-13.452,34.0787h55.32082s4.16886-10.69735-12.14388-34.0787Z" style="fill:#2e353a"/><path d="M181.71434,937.97208l61.00007.09265.00946-6.1153c.002-1.20682-.61385-2.18615-1.376-2.18733l-57.41037-.08713a2.21015,2.21015,0,0,0-2.21334,2.20665l-.00987,6.09046"/><path d="M282.57271,356.52451c26.46494,4.63751,41.33943,18.79273,41.33943,18.79273l1.42976,202.28152-48.67973,1.159-2.23651-223.49918s2.07255.20743,4.14035.52481C280.15352,356.0271,281.691,356.37,282.57271,356.52451Z" style="fill:#ff9e1b"/><path d="M243.05,578.7578,182.41382,579.863,170.59767,376.40767c14.08164-13.56221,32.23344-18.60474,46.86483-20.25672,0,0,6.6104-.6819,8.63609-.643L243.6295,462.85369Z" style="fill:#ff9e1b"/><path d="M265.42316,451.023c0-.90482,13.877-33.48574,51.28442-19.60872l-14.78184,22.92717s-16.59226,15.98866-30.16728,12.067C258.183,462.48677,265.42316,451.023,265.42316,451.023Z" style="fill:#e6bda0"/><polygon points="264.618 445.811 176.85 503.338 193.006 546.452 284.176 475.146 264.618 445.811" style="fill:#fff"/><path d="M317.74566,415.7217l-21.61745,43.49905a6.44548,6.44548,0,0,0,5.7719,9.3143h24.24517a6.4457,6.4457,0,0,0,5.75811-3.54909l21.8812-43.49945a6.44533,6.44533,0,0,0-5.75811-9.34189H323.518A6.44559,6.44559,0,0,0,317.74566,415.7217Z" style="fill:#1c1927"/><path d="M319.38063,480.69627s-21.30953-18.38337-9.18931-30.96092,26.33511-12.1624,29.63819-3.92442c3.30347,8.23758-1.50842,25.49811-1.50842,25.49811Z" style="fill:#e6bda0"/><path d="M312.71165,478.82538l30.81365-15.14845,4.15179,57.706a18.50956,18.50956,0,0,1-16.53045,21.11033h0a18.50866,18.50866,0,0,1-20.29086-18.423Z" style="fill:#fff"/><path d="M170.69855,376.20348c-10.74707,11.20723-16.03528,13.41493-14.465,60.50092l4.52882,93.14416a20.90995,20.90995,0,0,0,20.8853,19.89455h0a20.90983,20.90983,0,0,0,20.91015-20.90976L189.12851,363.77368S177.9385,368.65353,170.69855,376.20348Z" style="fill:#fff"/><polygon points="369.131 111.091 369.131 295.974 595.479 295.974 654.478 295.974 654.478 111.091 369.131 111.091" style="fill:#fff"/><polygon points="369.131 111.091 511.804 208.798 654.478 111.091 369.131 111.091" style="fill:#fff"/><rect x="360.093" y="103.65159" width="299.61073" height="204.14648" rx="26.06907" style="fill:#e79c2f"/><path d="M360.093,129.72066h0A26.66376,26.66376,0,0,0,373.47847,152.843l123.43767,70.88611a26.06909,26.06909,0,0,0,25.96446,0L646.31828,152.843a26.66383,26.66383,0,0,0,13.38546-23.12237h0a26.06909,26.06909,0,0,0-26.06907-26.06907H386.16207A26.06909,26.06909,0,0,0,360.093,129.72066Z" style="fill:#fff"/><path d="M554.24074,205.72506l92.07787-52.884a26.65511,26.65511,0,0,0,13.38873-23.11788V281.727c0-.44012-.01136-.89187-.03451-1.332v-.02321a24.36391,24.36391,0,0,0-.26638-2.59436l-.01158-.0695A26.63184,26.63184,0,0,0,646.31861,258.609Z" style="fill:#fff"/><path d="M360.0894,281.727V129.72315a26.65537,26.65537,0,0,0,13.389,23.11788l92.0895,52.884L373.49,258.609a26.63878,26.63878,0,0,0-11.90649,14.37342c-.10406.32426-.22.66015-.32432.996-.12726.4054-.24318.81079-.34752,1.22771-.10406.417-.2084.83388-.28953,1.25091-.05771.28953-.1157.57913-.15048.86866-.04635.25476-.0927.50957-.12721.776-.09276.60222-.15075,1.21613-.18553,1.84155-.02315.30112-.03478.59071-.04635.89182-.01158.15058-.01158.28959-.01158.44012C360.0894,281.42579,360.0894,281.57637,360.0894,281.727Z" style="fill:#fff"/><path d="M360.093,129.72066h0A26.66376,26.66376,0,0,0,373.47847,152.843l123.43767,70.88611a26.06909,26.06909,0,0,0,25.96446,0L646.31828,152.843a26.66383,26.66383,0,0,0,13.38546-23.12237h0a26.06909,26.06909,0,0,0-26.06907-26.06907H386.16207A26.06909,26.06909,0,0,0,360.093,129.72066Z" style="fill:#e79c2f;opacity:0.5"/><g style="opacity:0.7000000000000001"><path d="M554.24074,205.72506l92.07787-52.884a26.65511,26.65511,0,0,0,13.38873-23.11788V281.727c0-.44012-.01136-.89187-.03451-1.332v-.02321a24.36391,24.36391,0,0,0-.26638-2.59436l-.01158-.0695A26.63184,26.63184,0,0,0,646.31861,258.609Z" style="fill:#e79c2f"/><path d="M360.0894,281.727V129.72315a26.65537,26.65537,0,0,0,13.389,23.11788l92.0895,52.884L373.49,258.609a26.63878,26.63878,0,0,0-11.90649,14.37342c-.10406.32426-.22.66015-.32432.996-.12726.4054-.24318.81079-.34752,1.22771-.10406.417-.2084.83388-.28953,1.25091-.05771.28953-.1157.57913-.15048.86866-.04635.25476-.0927.50957-.12721.776-.09276.60222-.15075,1.21613-.18553,1.84155-.02315.30112-.03478.59071-.04635.89182-.01158.15058-.01158.28959-.01158.44012C360.0894,281.42579,360.0894,281.57637,360.0894,281.727Z" style="fill:#e79c2f"/></g><ellipse cx="641.16012" cy="114.68338" rx="78.01781" ry="73.3036" style="fill:#bf2f32"/><ellipse cx="641.16012" cy="146.21421" rx="11.60059" ry="10.89963" style="fill:#fff"/><path d="M648.232,125.34513H634.0882a2.22463,2.22463,0,0,1-2.27208-1.98726L628.1873,75.79013a2.20054,2.20054,0,0,1,2.27208-2.29329h21.40148a2.20054,2.20054,0,0,1,2.27208,2.29329l-3.62882,47.56774A2.22463,2.22463,0,0,1,648.232,125.34513Z" style="fill:#fff"/><line x1="534.96686" y1="317.91632" x2="534.96686" y2="318.16632" style="fill:none;stroke:#bf2f32;stroke-linecap:round;stroke-linejoin:round;stroke-width:7px"/><line x1="534.96686" y1="334.07703" x2="534.96686" y2="342.43015" style="fill:none;stroke:#bf2f32;stroke-linecap:round;stroke-linejoin:round;stroke-width:7px;stroke-dasharray:0.39776793122291565,15.910717010498047"/><polyline points="534.967 350.386 534.967 350.636 535.217 350.636" style="fill:none;stroke:#bf2f32;stroke-linecap:round;stroke-linejoin:round;stroke-width:7px"/><line x1="555.21588" y1="350.63553" x2="586.21436" y2="350.63553" style="fill:none;stroke:#bf2f32;stroke-linecap:round;stroke-linejoin:round;stroke-width:7px;stroke-dasharray:0.4999755322933197,19.999021530151367"/><polyline points="596.214 350.636 596.464 350.636 596.464 350.886" style="fill:none;stroke:#bf2f32;stroke-linecap:round;stroke-linejoin:round;stroke-width:7px"/><line x1="596.46387" y1="366.33286" x2="596.46387" y2="374.44272" style="fill:none;stroke:#bf2f32;stroke-linecap:round;stroke-linejoin:round;stroke-width:7px;stroke-dasharray:0.38618385791778564,15.447354316711426"/><line x1="596.46387" y1="382.16641" x2="596.46387" y2="382.41641" style="fill:none;stroke:#bf2f32;stroke-linecap:round;stroke-linejoin:round;stroke-width:7px"/><line x1="489.59683" y1="317.91632" x2="489.59683" y2="318.16632" style="fill:none;stroke:#bf2f32;stroke-linecap:round;stroke-linejoin:round;stroke-width:7px"/><line x1="489.59683" y1="334.07703" x2="489.59683" y2="342.43015" style="fill:none;stroke:#bf2f32;stroke-linecap:round;stroke-linejoin:round;stroke-width:7px;stroke-dasharray:0.39776793122291565,15.910717010498047"/><polyline points="489.597 350.386 489.597 350.636 489.347 350.636" style="fill:none;stroke:#bf2f32;stroke-linecap:round;stroke-linejoin:round;stroke-width:7px"/><line x1="470.18533" y1="350.63553" x2="361.92294" y2="350.63553" style="fill:none;stroke:#bf2f32;stroke-linecap:round;stroke-linejoin:round;stroke-width:7px;stroke-dasharray:0.4790371060371399,19.161483764648438"/><polyline points="352.342 350.636 352.092 350.636 352.092 350.886" style="fill:none;stroke:#bf2f32;stroke-linecap:round;stroke-linejoin:round;stroke-width:7px"/><line x1="352.09219" y1="373.24713" x2="352.09219" y2="384.987" style="fill:none;stroke:#bf2f32;stroke-linecap:round;stroke-linejoin:round;stroke-width:7px;stroke-dasharray:0.5590406656265259,22.36162567138672"/><line x1="352.09219" y1="396.16782" x2="352.09219" y2="396.41782" style="fill:none;stroke:#bf2f32;stroke-linecap:round;stroke-linejoin:round;stroke-width:7px"/></svg>