<svg xmlns="http://www.w3.org/2000/svg" xmlns:xlink="http://www.w3.org/1999/xlink" viewBox="0 0 1000 1000"><defs><clipPath id="a"><path d="M212.91276,287.53876H787.08747a12.04707,12.04707,0,0,1,12.04707,12.04707V644.63635a12.04732,12.04732,0,0,1-12.04732,12.04732H212.91251a12.04707,12.04707,0,0,1-12.04707-12.04707V299.58608A12.04732,12.04732,0,0,1,212.91276,287.53876Z" style="fill:#31333f"/></clipPath></defs><path d="M979.18019,748.96551c0-9.21727-214.53637-16.68948-479.18019-16.68948S20.81981,739.74824,20.81981,748.96551c0,9.21753,214.53634,16.68974,479.18019,16.68974S979.18019,758.183,979.18019,748.96551Z" style="fill:#2c4d92;opacity:0.1"/><path d="M197.81108,234.34475H802.18889a22.2954,22.2954,0,0,1,22.2954,22.2954V682.93023a0,0,0,0,1,0,0H175.51568a0,0,0,0,1,0,0V256.64015A22.2954,22.2954,0,0,1,197.81108,234.34475Z" style="fill:#31333f"/><path d="M887.67327,682.93023H112.32671A66.03533,66.03533,0,0,0,178.362,748.96551H821.638a66.03534,66.03534,0,0,0,66.03529-66.03528Z" style="fill:#fff"/><path d="M113.9822,697.59865A66.04554,66.04554,0,0,0,178.362,748.96551H821.638a66.04554,66.04554,0,0,0,64.3798-51.36686Z" style="fill:#7e7e7e"/><path d="M887.67327,682.93023V682.93H112.32671v.00025a66.18092,66.18092,0,0,0,1.65549,14.66842H886.01778A66.18152,66.18152,0,0,0,887.67327,682.93023Z" style="fill:#fff"/><polyline points="421.807 682.93 432.717 697.599 567.283 697.599 578.193 682.93" style="fill:#aaa"/><path d="M212.91276,287.53876H787.08747a12.04707,12.04707,0,0,1,12.04707,12.04707V644.63635a12.04732,12.04732,0,0,1-12.04732,12.04732H212.91251a12.04707,12.04707,0,0,1-12.04707-12.04707V299.58608A12.04732,12.04732,0,0,1,212.91276,287.53876Z" style="fill:#fff"/><path d="M534.5505,255.71594h-69.101a5.45536,5.45536,0,0,0-5.45539,5.4554h0a5.45536,5.45536,0,0,0,5.45539,5.4554h69.101a5.45539,5.45539,0,0,0,5.45542-5.4554h0A5.45538,5.45538,0,0,0,534.5505,255.71594Z" style="fill:#aaa"/><g style="opacity:0.5"><path d="M212.91276,287.53876H787.08747a12.04707,12.04707,0,0,1,12.04707,12.04707V644.63635a12.04732,12.04732,0,0,1-12.04732,12.04732H212.91251a12.04707,12.04707,0,0,1-12.04707-12.04707V299.58608A12.04732,12.04732,0,0,1,212.91276,287.53876Z" style="fill:#31333f"/><g style="clip-path:url(#a)"><path d="M507.22358,250.40714a5.65246,5.65246,0,1,1-5.65235-5.65214A5.6524,5.6524,0,0,1,507.22358,250.40714Z" style="fill:#7f7f7f;opacity:0.46"/></g></g><path d="M497.098,471.23145H502.902a2.68027,2.68027,0,0,0,2.57957-3.54692l-3.54691-8.38361a1.90512,1.90512,0,0,0-3.54691,0l-3.54692,8.38361A2.39818,2.39818,0,0,0,497.098,471.23145Z" style="fill:#cc4447"/><path d="M512.89788,456.39888c6.44894.64489,8.70607-2.57957,9.351-6.77138s-1.61224-8.06118-7.09384-9.02852c-5.4816-.64489-8.70607,2.57958-9.351,6.77139S506.44894,455.754,512.89788,456.39888Z" style="fill:#cc4447"/><path d="M487.10212,456.39888c6.44894-.6449,7.73873-4.51426,7.09384-9.02851-.6449-4.19181-3.54691-7.41628-9.351-6.77139-5.4816.6449-7.73873,4.51427-7.09383,9.02852C478.39605,453.81931,480.65318,457.04377,487.10212,456.39888Z" style="fill:#cc4447"/><path d="M630.91346,452.52951A22.44489,22.44489,0,0,0,609.632,468.65186H590.93a90.98068,90.98068,0,0,0-22.24884-53.84864l13.22032-13.22033a23.8246,23.8246,0,0,0,10.64076,2.902,22.24884,22.24884,0,1,0-22.24885-22.24884,20.29482,20.29482,0,0,0,2.902,10.64075l-13.22032,13.22033a89.02066,89.02066,0,0,0-53.84864-22.24884V365.14639a21.86447,21.86447,0,0,0,16.12234-21.2815,22.2491,22.2491,0,1,0-28.37534,21.2815v18.70192a90.98068,90.98068,0,0,0-53.84864,22.24884l-13.22033-13.22032a23.8245,23.8245,0,0,0,2.902-10.64075,22.24884,22.24884,0,1,0-22.24884,22.24884,20.29482,20.29482,0,0,0,10.64075-2.902l13.22033,13.22032a89.02071,89.02071,0,0,0-22.24884,53.84864H390.368a21.86447,21.86447,0,0,0-21.2815-16.12235,22.2491,22.2491,0,1,0,21.2815,28.37534H409.07a90.98072,90.98072,0,0,0,22.24883,53.84866l-13.22032,13.22032a23.82464,23.82464,0,0,0-10.64075-2.902,22.24885,22.24885,0,1,0,22.24884,22.24885,20.2949,20.2949,0,0,0-2.902-10.64076l13.22033-13.22032a89.02074,89.02074,0,0,0,53.84863,22.24884v18.70191a21.8645,21.8645,0,0,0-16.12234,21.2815,22.2491,22.2491,0,1,0,28.37534-21.2815V565.70839a90.98071,90.98071,0,0,0,53.84865-22.24885l13.22033,13.22033a23.82444,23.82444,0,0,0-2.902,10.64075,22.24885,22.24885,0,1,0,22.24884-22.24884,20.29491,20.29491,0,0,0-10.64076,2.902l-13.22032-13.22032a89.02084,89.02084,0,0,0,22.24885-53.84865H609.632a21.86448,21.86448,0,0,0,21.28149,16.12235,22.24884,22.24884,0,1,0,0-44.49768ZM500,409.96652c18.70192,0,33.85693,9.02852,33.85693,31.27735,0,12.57544-4.8367,21.92639-12.253,27.73043a5.9806,5.9806,0,0,0-2.25713,3.86937l-.32244,4.8367a7.24426,7.24426,0,0,1-5.15915,6.1265,57.62773,57.62773,0,0,1-27.73043,0,6.882,6.882,0,0,1-5.15915-6.1265l-.32247-4.83669a4.917,4.917,0,0,0-2.25713-3.86937c-7.41628-5.804-12.253-15.155-12.253-27.73044C466.14307,418.67258,481.29808,409.96652,500,409.96652ZM545.465,518.3087a7.6863,7.6863,0,0,1-1.93468,3.54691,6.26846,6.26846,0,0,1,.6449,5.80405c-1.61224,2.902-4.19181,4.19182-9.67341,1.61224a13.11782,13.11782,0,0,1-5.15915-5.15915,8.91546,8.91546,0,0,0-4.19181-3.54691L500,511.21486l-25.15086,9.02851a7.62621,7.62621,0,0,0-4.19181,3.54692c-.96734,1.61223-2.57957,4.19182-5.15914,5.15914-5.4816,2.57959-8.06118,1.28979-9.67341-1.61223a4.90987,4.90987,0,0,1,.64489-5.80406,6.36941,6.36941,0,0,1-1.93467-3.54691c-.6449-3.22447.64489-6.1265,4.8367-7.09384a13.59539,13.59539,0,0,1,6.1265.96734,8.94781,8.94781,0,0,0,5.804,0l15.79991-5.804-13.54278-4.8367a7.99317,7.99317,0,0,0-5.4816,0,12.80917,12.80917,0,0,1-7.09383.64489c-5.80405-1.28979-7.09384-4.19181-6.44894-7.41628a5.55072,5.55072,0,0,1,4.1918-4.1918,5.54988,5.54988,0,0,1,.6449-3.86937c1.61224-2.902,4.51426-4.19181,8.06118-2.25713a10.72259,10.72259,0,0,1,3.86936,4.51426,9.50915,9.50915,0,0,0,4.51426,4.19181L500,501.54144l24.18352-8.70607a8.1872,8.1872,0,0,0,4.51426-4.19181c.96734-1.61223,1.93468-3.54691,3.86937-4.51426,3.86936-1.93468,6.77138-.32244,8.06117,2.25713a5.54988,5.54988,0,0,1,.6449,3.86937,5.56522,5.56522,0,0,1,4.19182,4.1918c.64488,3.22447-.6449,6.1265-6.44894,7.41628a12.8092,12.8092,0,0,1-7.09384-.64489,7.99317,7.99317,0,0,0-5.4816,0l-13.54281,5.15917,15.7999,5.804a8.94784,8.94784,0,0,0,5.80405,0c1.93467-.6449,4.19181-1.61223,6.12649-.96734C544.82013,511.85976,546.10993,515.08423,545.465,518.3087Z" style="fill:#cc4447"/></svg>