<svg xmlns="http://www.w3.org/2000/svg" xmlns:xlink="http://www.w3.org/1999/xlink" viewBox="0 0 1000 1000"><defs><clipPath id="a"><path d="M222.62227,384.49038H777.37795A11.63962,11.63962,0,0,1,789.01757,396.13V729.51065a11.63987,11.63987,0,0,1-11.63987,11.63987H222.622a11.63962,11.63962,0,0,1-11.63962-11.63962V396.13024A11.63987,11.63987,0,0,1,222.62227,384.49038Z" style="fill:#31333f"/></clipPath></defs><path d="M962.974,830.31132c0-8.90554-207.28059-16.125-462.97395-16.125s-462.97395,7.21949-462.97395,16.125c0,8.90578,207.28056,16.12528,462.974,16.12528S962.974,839.2171,962.974,830.31132Z" style="fill:#2c4d92;opacity:0.1"/><path d="M208.78539,333.09543H791.21458a22.2954,22.2954,0,0,1,22.2954,22.2954V766.5094a0,0,0,0,1,0,0H186.49a0,0,0,0,1,0,0V355.39083A22.2954,22.2954,0,0,1,208.78539,333.09543Z" style="fill:#31333f"/><path d="M874.56186,766.5094H125.43812A63.802,63.802,0,0,0,189.24,830.31132H810.75994a63.802,63.802,0,0,0,63.80192-63.80192Z" style="fill:#fff"/><path d="M127.03762,780.68172A63.81182,63.81182,0,0,0,189.24,830.31132H810.75994a63.81184,63.81184,0,0,0,62.20242-49.6296Z" style="fill:#7e7e7e"/><path d="M874.56186,766.5094v-.00024H125.43812v.00024a63.94259,63.94259,0,0,0,1.5995,14.17232H872.96236A63.94318,63.94318,0,0,0,874.56186,766.5094Z" style="fill:#fff"/><polyline points="424.451 766.509 434.993 780.682 565.007 780.682 575.549 766.509" style="fill:#aaa"/><path d="M222.62227,384.49038H777.37795A11.63962,11.63962,0,0,1,789.01757,396.13V729.51065a11.63987,11.63987,0,0,1-11.63987,11.63987H222.622a11.63962,11.63962,0,0,1-11.63962-11.63962V396.13024A11.63987,11.63987,0,0,1,222.62227,384.49038Z" style="fill:#7e7e7e"/><path d="M533.382,353.74383H466.618a5.27086,5.27086,0,0,0-5.27088,5.27089h0a5.27086,5.27086,0,0,0,5.27088,5.27089h66.764a5.27088,5.27088,0,0,0,5.27091-5.27089h0A5.27088,5.27088,0,0,0,533.382,353.74383Z" style="fill:#aaa"/><g style="opacity:0.5"><path d="M222.62227,384.49038H777.37795A11.63962,11.63962,0,0,1,789.01757,396.13V729.51065a11.63987,11.63987,0,0,1-11.63987,11.63987H222.622a11.63962,11.63962,0,0,1-11.63962-11.63962V396.13024A11.63987,11.63987,0,0,1,222.62227,384.49038Z" style="fill:#31333f"/><g style="clip-path:url(#a)"><path d="M506.97927,348.61458a5.46129,5.46129,0,1,1-5.46118-5.461A5.46123,5.46123,0,0,1,506.97927,348.61458Z" style="fill:#7f7f7f;opacity:0.46"/></g></g><rect x="240.1096" y="402.28355" width="520.59354" height="319.22373" style="fill:#fff"/><polygon points="292.147 394.197 502.913 538.536 709.385 394.939 292.147 394.197" style="fill:#fff"/><rect x="279.63184" y="384.17491" width="441.9376" height="301.12408" rx="38.4529" style="fill:#d9b73a"/><path d="M701.8254,388.52132,577.05465,316.86971h-152.908L299.37594,388.52132a39.3306,39.3306,0,0,0-19.74414,34.10645v.00024a38.45283,38.45283,0,0,0,38.45288,38.45264H683.11642A38.45288,38.45288,0,0,0,721.56954,422.628v-.00024A39.3306,39.3306,0,0,0,701.8254,388.52132Z" style="fill:#d38d2f"/><path d="M341.25307,311.46726h318.695a40.1245,40.1245,0,0,1,40.1245,40.1245V543.7171a0,0,0,0,1,0,0H301.12867a0,0,0,0,1,0,0V351.59166A40.1244,40.1244,0,0,1,341.25307,311.46726Z" style="fill:#fdf8ed"/><path d="M721.56944,646.84609h0a39.33008,39.33008,0,0,0-19.74408-34.1064L519.74993,508.17989a38.45292,38.45292,0,0,0-38.29859,0L299.37592,612.73969a39.33016,39.33016,0,0,0-19.74408,34.1064h0a38.45293,38.45293,0,0,0,38.4529,38.4529h365.0318a38.45293,38.45293,0,0,0,38.4529-38.4529Z" style="fill:#e79c2f"/><path d="M435.19391,534.73662l-135.81848,78.006a39.31734,39.31734,0,0,0-19.7489,34.09978V422.63083c0,.6492.01675,1.31555.05089,1.96474v.03423a35.94024,35.94024,0,0,0,.39293,3.82679l.01708.10252a39.283,39.283,0,0,0,19.288,28.17159Z" style="fill:#fff"/><path d="M721.57475,422.63083V646.84241a39.31772,39.31772,0,0,0-19.74931-34.09978l-135.83563-78.006L701.80828,456.7307a39.29323,39.29323,0,0,0,17.56254-21.20136c.1535-.4783.32448-.97375.47838-1.4692.18772-.598.3587-1.19595.51261-1.81091.15349-.615.3074-1.23.42707-1.84515.08513-.42707.17066-.85423.222-1.28131.06837-.37578.13675-.75163.18764-1.14456.13683-.88831.22236-1.79384.27366-2.71637.03415-.44415.0513-.87131.06838-1.31546.01707-.22212.01707-.42716.01707-.6492C721.57475,423.07507,721.57475,422.853,721.57475,422.63083Z" style="fill:#fff"/><g style="opacity:0.7000000000000001"><path d="M435.19391,534.73662l-135.81848,78.006a39.31734,39.31734,0,0,0-19.7489,34.09978V422.63083c0,.6492.01675,1.31555.05089,1.96474v.03423a35.94024,35.94024,0,0,0,.39293,3.82679l.01708.10252a39.283,39.283,0,0,0,19.288,28.17159Z" style="fill:#e79c2f"/><path d="M721.57475,422.63083V646.84241a39.31772,39.31772,0,0,0-19.74931-34.09978l-135.83563-78.006L701.80828,456.7307a39.29323,39.29323,0,0,0,17.56254-21.20136c.1535-.4783.32448-.97375.47838-1.4692.18772-.598.3587-1.19595.51261-1.81091.15349-.615.3074-1.23.42707-1.84515.08513-.42707.17066-.85423.222-1.28131.06837-.37578.13675-.75163.18764-1.14456.13683-.88831.22236-1.79384.27366-2.71637.03415-.44415.0513-.87131.06838-1.31546.01707-.22212.01707-.42716.01707-.6492C721.57475,423.07507,721.57475,422.853,721.57475,422.63083Z" style="fill:#e79c2f"/></g><path d="M565.64571,311.77164a60.313,60.313,0,0,0,.42969-7.06787V184.43522H551.20089V304.70377a45.28134,45.28134,0,0,1-.55713,7.06787Z" style="fill:#273641"/><path d="M539.60225,347.81266c-1.0249-3.03076-4.48193-5.49512-7.96094-5.93018a45.13554,45.13554,0,0,1-70.76806-37.17871V282.89542l25.48633,11.45239-40.36084-60.66259v71.01855a59.996,59.996,0,0,0,94.34082,49.23511A16.90369,16.90369,0,0,0,539.60225,347.81266Z" style="fill:#273641"/><path d="M558.63813,197.75686a22.09673,22.09673,0,1,1,22.09673-22.09673A22.12174,22.12174,0,0,1,558.63813,197.75686Zm0-29.31859a7.22187,7.22187,0,1,0,7.22187,7.22186A7.2301,7.2301,0,0,0,558.63813,168.43827Z" style="fill:#273641"/></svg>