<svg xmlns="http://www.w3.org/2000/svg" xmlns:xlink="http://www.w3.org/1999/xlink" viewBox="0 0 1000 1000"><defs><clipPath id="a"><path d="M222.62227,361.794H777.3777a11.63987,11.63987,0,0,1,11.63987,11.63987V706.81423a11.63987,11.63987,0,0,1-11.63987,11.63987H222.622a11.63962,11.63962,0,0,1-11.63962-11.63962V373.43382A11.63987,11.63987,0,0,1,222.62227,361.794Z" style="fill:#31333f"/></clipPath></defs><path d="M962.974,807.6149c0-8.90554-207.28059-16.125-462.97395-16.125s-462.97395,7.21949-462.97395,16.125c0,8.90578,207.28056,16.12527,462.974,16.12527S962.974,816.52068,962.974,807.6149Z" style="fill:#2c4d92;opacity:0.1"/><path d="M208.78539,310.399H791.21458a22.2954,22.2954,0,0,1,22.2954,22.2954V743.813a0,0,0,0,1,0,0H186.49a0,0,0,0,1,0,0V332.69441A22.2954,22.2954,0,0,1,208.78539,310.399Z" style="fill:#31333f"/><path d="M874.56186,743.813H125.43812A63.802,63.802,0,0,0,189.24,807.6149H810.75994A63.802,63.802,0,0,0,874.56186,743.813Z" style="fill:#fff"/><path d="M127.03762,757.9853A63.81182,63.81182,0,0,0,189.24,807.6149H810.75994a63.81184,63.81184,0,0,0,62.20242-49.6296Z" style="fill:#7e7e7e"/><path d="M874.56186,743.813v-.00024H125.43812v.00024a63.94266,63.94266,0,0,0,1.5995,14.17232H872.96236A63.94325,63.94325,0,0,0,874.56186,743.813Z" style="fill:#fff"/><polyline points="424.451 743.813 434.993 757.985 565.007 757.985 575.549 743.813" style="fill:#aaa"/><path d="M222.62227,361.794H777.3777a11.63987,11.63987,0,0,1,11.63987,11.63987V706.81423a11.63987,11.63987,0,0,1-11.63987,11.63987H222.622a11.63962,11.63962,0,0,1-11.63962-11.63962V373.43382A11.63987,11.63987,0,0,1,222.62227,361.794Z" style="fill:#7e7e7e"/><g style="opacity:0.5"><path d="M222.62227,361.794H777.3777a11.63987,11.63987,0,0,1,11.63987,11.63987V706.81423a11.63987,11.63987,0,0,1-11.63987,11.63987H222.622a11.63962,11.63962,0,0,1-11.63962-11.63962V373.43382A11.63987,11.63987,0,0,1,222.62227,361.794Z" style="fill:#31333f"/><g style="clip-path:url(#a)"><path d="M506.97927,325.91815a5.46129,5.46129,0,1,1-5.46118-5.461A5.46123,5.46123,0,0,1,506.97927,325.91815Z" style="fill:#7f7f7f;opacity:0.46"/></g></g><rect x="239.36987" y="626.84224" width="520.59354" height="63.91332" style="fill:#cc4447"/><path d="M303.95049,672.32558H270.13377a.84493.84493,0,0,1-.84542-.84541v-5.07251a.84542.84542,0,1,1,1.69084,0v4.22709h32.12588V646.963H270.97919v4.22709a.84542.84542,0,0,1-1.69084,0v-5.0725a.84494.84494,0,0,1,.84542-.84542h33.81672a.84493.84493,0,0,1,.84541.84542v25.36254A.84492.84492,0,0,1,303.95049,672.32558Z" style="fill:#fff"/><path d="M287.04213,660.48973a.8446.8446,0,0,1-.52839-.18493l-16.90836-13.52669a.846.846,0,0,1,.52839-1.5059h33.81672a.846.846,0,0,1,.52838,1.5059L287.57051,660.3048A.84459.84459,0,0,1,287.04213,660.48973ZM272.54453,646.963l14.4976,11.59808L301.53972,646.963Z" style="fill:#fff"/><path d="M303.95049,672.32558a.84528.84528,0,0,1-.56637-.21631l-14.88563-13.39789a.84649.84649,0,1,1,1.13273-1.25822l14.88563,13.3979a.84549.84549,0,0,1-.56636,1.47452Z" style="fill:#fff"/><path d="M270.13377,672.32558a.84549.84549,0,0,1-.56637-1.47452l14.91866-13.42762a.84649.84649,0,0,1,1.13273,1.25822l-14.91866,13.42761A.84527.84527,0,0,1,270.13377,672.32558Z" style="fill:#fff"/><path d="M271.8246,655.41722H258.29792a.84542.84542,0,1,1,0-1.69083H271.8246a.84542.84542,0,1,1,0,1.69083Z" style="fill:#fff"/><path d="M275.20627,659.64431H261.67959a.84542.84542,0,1,1,0-1.69083h13.52668a.84542.84542,0,1,1,0,1.69083Z" style="fill:#fff"/><path d="M266.7521,663.8714h-8.45418a.84542.84542,0,1,1,0-1.69083h8.45418a.84542.84542,0,0,1,0,1.69083Z" style="fill:#fff"/><text transform="translate(332.20766 667.5331)" style="font-size:26px;fill:#fff;font-family:VIC-Medium, VIC;font-weight:500">NEW EMAIL</text><path d="M721.61179,320.11266v-.00008a39.352,39.352,0,0,0-19.755-34.12521L519.681,181.36993a38.47408,38.47408,0,0,0-38.3197,0L299.18553,285.98737a39.352,39.352,0,0,0-19.755,34.12521v.00008a38.47418,38.47418,0,0,0,38.4741,38.4741h365.233a38.47418,38.47418,0,0,0,38.4741-38.4741Z" style="fill:#d38d2f"/><path d="M533.382,311.0474H466.618a5.27086,5.27086,0,0,0-5.27088,5.2709h0a5.27086,5.27086,0,0,0,5.27088,5.27089h66.764a5.27088,5.27088,0,0,0,5.27091-5.27089h0A5.27089,5.27089,0,0,0,533.382,311.0474Z" style="fill:#aaa"/><polygon points="292.147 291.501 502.913 435.839 709.385 292.243 292.147 291.501" style="fill:#fff"/><rect x="279.63184" y="281.47849" width="441.9376" height="301.12408" rx="38.4529" style="fill:#d38d2f"/><path d="M341.25307,258.77084h318.695a40.1245,40.1245,0,0,1,40.1245,40.1245V491.02067a0,0,0,0,1,0,0H301.12867a0,0,0,0,1,0,0V298.89524A40.1244,40.1244,0,0,1,341.25307,258.77084Z" style="fill:#fdf8ed"/><path d="M721.56944,544.14967h0a39.33008,39.33008,0,0,0-19.74408-34.1064L519.74993,405.48346a38.45292,38.45292,0,0,0-38.29859,0L299.37592,510.04327a39.33016,39.33016,0,0,0-19.74408,34.1064h0a38.45293,38.45293,0,0,0,38.4529,38.4529h365.0318a38.45293,38.45293,0,0,0,38.4529-38.4529Z" style="fill:#e79c2f"/><rect x="344.46395" y="288.5322" width="312.27338" height="12.6906" style="fill:#7e7e7e;opacity:0.5"/><rect x="344.46395" y="308.5322" width="312.27338" height="12.6906" style="fill:#7e7e7e;opacity:0.5"/><rect x="344.46395" y="328.5322" width="312.27338" height="12.6906" style="fill:#7e7e7e;opacity:0.5"/><rect x="344.46395" y="348.5322" width="312.27338" height="12.6906" style="fill:#7e7e7e;opacity:0.5"/><rect x="344.46395" y="368.5322" width="312.27338" height="12.6906" style="fill:#7e7e7e;opacity:0.5"/><path d="M435.19391,432.0402l-135.81848,78.006a39.31734,39.31734,0,0,0-19.7489,34.09978V319.93441c0,.64919.01675,1.31554.05089,1.96474v.03422a35.93971,35.93971,0,0,0,.39293,3.82679l.01708.10252a39.283,39.283,0,0,0,19.288,28.17159Z" style="fill:#fff"/><path d="M721.57475,319.93441V544.146a39.31772,39.31772,0,0,0-19.74931-34.09978l-135.83563-78.006,135.81847-78.00593a39.29321,39.29321,0,0,0,17.56254-21.20135c.1535-.4783.32448-.97375.47838-1.46921.18772-.598.3587-1.19594.51261-1.81091.15349-.615.3074-1.23.42707-1.84514.08513-.42708.17066-.85424.222-1.28131.06837-.37578.13675-.75164.18764-1.14457.13683-.8883.22236-1.79384.27366-2.71637.03415-.44415.0513-.87131.06838-1.31546.01707-.22211.01707-.42716.01707-.64919C721.57475,320.37864,721.57475,320.15653,721.57475,319.93441Z" style="fill:#fff"/><g style="opacity:0.7000000000000001"><path d="M435.19391,432.0402l-135.81848,78.006a39.31734,39.31734,0,0,0-19.7489,34.09978V319.93441c0,.64919.01675,1.31554.05089,1.96474v.03422a35.93971,35.93971,0,0,0,.39293,3.82679l.01708.10252a39.283,39.283,0,0,0,19.288,28.17159Z" style="fill:#e79c2f"/><path d="M721.57475,319.93441V544.146a39.31772,39.31772,0,0,0-19.74931-34.09978l-135.83563-78.006,135.81847-78.00593a39.29321,39.29321,0,0,0,17.56254-21.20135c.1535-.4783.32448-.97375.47838-1.46921.18772-.598.3587-1.19594.51261-1.81091.15349-.615.3074-1.23.42707-1.84514.08513-.42708.17066-.85424.222-1.28131.06837-.37578.13675-.75164.18764-1.14457.13683-.8883.22236-1.79384.27366-2.71637.03415-.44415.0513-.87131.06838-1.31546.01707-.22211.01707-.42716.01707-.64919C721.57475,320.37864,721.57475,320.15653,721.57475,319.93441Z" style="fill:#e79c2f"/></g></svg>