<svg xmlns="http://www.w3.org/2000/svg" viewBox="0 0 1000 1000"><circle cx="500" cy="498.01603" r="298.57328" style="fill:#d7d7d4"/><path d="M454.25549,626.78366a27.41072,27.41072,0,0,1-19.44531-8.05469L361.776,545.69381a27.49982,27.49982,0,1,1,38.89063-38.89062l73.03418,73.03515a27.5,27.5,0,0,1-19.44532,46.94532Z" style="fill:#00b2a9"/><path d="M456.97424,624.05417a27.5,27.5,0,0,1-19.44531-46.94532L627.33362,387.30319a27.49982,27.49982,0,0,1,38.89062,38.89062L476.41956,615.99948A27.41077,27.41077,0,0,1,456.97424,624.05417Z" style="fill:#00b2a9"/><path d="M756.96244,252.23184a10.23448,10.23448,0,0,1-7.09607-2.81758,9.34333,9.34333,0,0,1,0-13.60854l36.83788-35.31741a10.34671,10.34671,0,0,1,14.19215,0,9.34314,9.34314,0,0,1,0,13.60895l-36.83788,35.317A10.233,10.233,0,0,1,756.96244,252.23184Z" style="fill:#00b2a9"/><path d="M829.63646,302.05162H784.06411a9.63042,9.63042,0,1,1,0-19.2437h45.57235a9.63041,9.63041,0,1,1,0,19.2437Z" style="fill:#00b2a9"/><path d="M704.9968,226.24778a9.83592,9.83592,0,0,1-10.0361-9.62165V172.93662a10.04522,10.04522,0,0,1,20.0726,0v43.68951A9.83576,9.83576,0,0,1,704.9968,226.24778Z" style="fill:#00b2a9"/><path d="M243.03737,747.76817a10.23448,10.23448,0,0,1,7.09608,2.81758,9.34333,9.34333,0,0,1,0,13.60853L213.29557,799.5117a10.34672,10.34672,0,0,1-14.19215,0,9.34314,9.34314,0,0,1,0-13.609l36.83788-35.317A10.23293,10.23293,0,0,1,243.03737,747.76817Z" style="fill:#00b2a9"/><path d="M170.36334,697.9484l45.57236,0a9.63042,9.63042,0,1,1,0,19.2437l-45.57235,0a9.63041,9.63041,0,1,1,0-19.2437Z" style="fill:#00b2a9"/><path d="M295.003,773.75222a9.83591,9.83591,0,0,1,10.03609,9.62165l0,43.68951a10.04522,10.04522,0,0,1-20.0726,0V783.37387A9.83576,9.83576,0,0,1,295.003,773.75222Z" style="fill:#00b2a9"/></svg>