<svg xmlns="http://www.w3.org/2000/svg" viewBox="0 0 1000 1000"><path d="M492.64532,491.011h14.70933c4.9031,0,8.17185-4.9031,6.53747-8.989l-8.989-21.2468a4.82819,4.82819,0,0,0-8.989,0l-8.989,21.2468C484.47347,486.10785,487.74223,491.011,492.64532,491.011Z" style="fill:#cc4447"/><path d="M532.6874,453.42045c16.3437,1.63438,22.064-6.53747,23.69838-17.16087S552.29985,415.83,538.4077,413.37841c-13.89215-1.63438-22.064,6.53747-23.69837,17.16087S516.3437,451.78608,532.6874,453.42045Z" style="fill:#cc4447"/><path d="M467.3126,453.42045c16.3437-1.63437,19.61245-11.4406,17.97808-22.88117-1.63438-10.6234-8.989-18.79525-23.69838-17.16087-13.89215,1.63437-19.61245,11.4406-17.97807,22.88117C445.2486,446.883,450.9689,455.05483,467.3126,453.42045Z" style="fill:#cc4447"/><path d="M831.77709,443.61423c-25.33272,0-46.57952,17.16087-53.9342,40.85924H730.44614c-3.26875-52.29985-24.51555-99.69657-56.38578-136.46989L707.56494,314.499c8.17185,4.08593,17.16087,7.35466,26.96713,7.35466a56.38576,56.38576,0,1,0-56.38578-56.38576A51.4337,51.4337,0,0,0,685.501,292.435l-33.50458,33.50459A225.60726,225.60726,0,0,0,515.5265,269.55382V222.15711a55.41168,55.41168,0,0,0,40.85925-53.93421,56.38578,56.38578,0,0,0-112.77156,0c0,25.33274,17.16088,46.57954,40.85925,53.93421v47.39672c-52.29985,3.26874-99.69657,24.51555-136.46989,56.38576L314.499,292.435c4.08592-8.17185,7.35466-17.16089,7.35466-26.9671a56.38576,56.38576,0,1,0-56.38576,56.38576A51.43359,51.43359,0,0,0,292.435,314.499l33.50459,33.50458a225.60738,225.60738,0,0,0-56.38576,136.46988H222.15711a55.41167,55.41167,0,0,0-53.93421-40.85924,56.38577,56.38577,0,0,0,0,112.77155c25.33274,0,46.57954-17.16087,53.93421-40.85925h47.39672c3.26874,52.29985,24.51555,99.69654,56.38576,136.46993L292.435,685.501c-8.17185-4.08593-17.16089-7.35468-26.9671-7.35468a56.38578,56.38578,0,1,0,56.38576,56.38578A51.43377,51.43377,0,0,0,314.499,707.565l33.50458-33.50457A225.60751,225.60751,0,0,0,484.47347,730.4462v47.39669a55.41171,55.41171,0,0,0-40.85924,53.9342,56.38577,56.38577,0,1,0,112.77155,0c0-25.33272-17.16087-46.57952-40.85925-53.9342V730.44614c52.29985-3.26875,99.69654-24.51555,136.46993-56.38578L685.501,707.56494c-4.08593,8.17185-7.35468,17.16087-7.35468,26.96713a56.38578,56.38578,0,1,0,56.38578-56.38578A51.43388,51.43388,0,0,0,707.565,685.501l-33.50457-33.50458A225.60739,225.60739,0,0,0,730.4462,515.5265h47.39669a55.41172,55.41172,0,0,0,53.9342,40.85925,56.38576,56.38576,0,1,0,0-112.77152ZM500,335.74582c47.39672,0,85.80442,22.88119,85.80442,79.26693,0,31.87023-12.25777,55.56857-31.053,70.2779-3.26875,2.45155-4.9031,5.7203-5.7203,9.80622l-.81717,12.25778c-.81717,7.35468-5.7203,13.075-13.075,15.52653a146.04729,146.04729,0,0,1-70.27789,0c-7.35468-1.63438-12.25778-8.17185-13.075-15.52653l-.81724-12.25775c0-4.08592-2.45155-7.35467-5.7203-9.80622-18.79525-14.70932-31.053-38.4077-31.053-70.27793C414.19558,357.8098,452.60328,335.74582,500,335.74582ZM615.22307,610.32a19.47932,19.47932,0,0,1-4.9031,8.989c3.26876,4.90309,3.26876,9.80619,1.63438,14.70935-4.08593,7.35468-10.6234,10.62343-24.51555,4.08593-6.53747-3.26876-10.6234-8.989-13.075-13.075a22.59464,22.59464,0,0,0-10.62339-8.989L500,592.3419l-63.74042,22.88117c-4.9031,1.63435-8.17185,4.9031-10.6234,8.989s-6.53747,10.62343-13.075,13.075c-13.89215,6.53751-20.42962,3.26875-24.51554-4.08592-2.45155-4.9031-2.45155-9.8062,1.63437-14.70936a16.14219,16.14219,0,0,1-4.9031-8.989c-1.63437-8.17185,1.63438-15.52653,12.25778-17.97808,4.9031-.81717,10.6234.81718,15.52653,2.45155a22.67672,22.67672,0,0,0,14.70932,0l40.04208-14.70932-34.32178-12.25778a20.25745,20.25745,0,0,0-13.89215,0c-4.9031,1.63438-11.4406,3.26876-17.97808,1.63438-14.70932-3.26875-17.97807-10.6234-16.3437-18.79525.81718-4.9031,4.9031-8.989,10.6234-10.6234-.81717-3.26875,0-6.53747,1.63438-9.80622,4.08592-7.35468,11.4406-10.6234,20.42962-5.7203,4.08593,2.45155,7.35468,6.53747,9.80623,11.4406s6.53747,8.17185,11.4406,10.6234l61.28887,22.064,61.28888-22.064c4.90309-1.63438,8.989-5.7203,11.4406-10.6234,2.45155-4.08593,4.9031-8.989,9.80623-11.4406,9.80622-4.9031,17.16087-.81718,20.42962,5.7203,1.63438,3.26875,2.45155,6.53747,1.63438,9.80622,5.7203,1.63438,8.989,4.9031,10.62343,10.6234,1.63434,8.17185-1.63438,15.52653-16.3437,18.79525-6.53748,1.63438-13.075,0-17.97808-1.63438a20.25745,20.25745,0,0,0-13.89215,0l-34.32187,13.075,40.04208,14.70933a22.67685,22.67685,0,0,0,14.70932,0c4.9031-1.63438,10.6234-4.08593,15.52653-2.45155C613.58873,593.97627,616.85748,602.14812,615.22307,610.32Z" style="fill:#cc4447"/></svg>