<svg xmlns="http://www.w3.org/2000/svg" viewBox="0 0 1000 1000"><path d="M812.9423,409.46977c19.22559-91.104-34.13672-183.34765-124.90283-210.87011a181.09721,181.09721,0,0,0-156.84571,25.0979A181.5338,181.5338,0,0,0,273.90861,384.59917,181.42715,181.42715,0,0,0,392.92863,727.15a181.55727,181.55727,0,0,0,239.83984-2.78418,181.45221,181.45221,0,0,0,180.17383-314.896Z" style="fill:#d7d7d4"/><circle cx="251.67603" cy="272.94456" r="152.20552" style="fill:#00b2a9"/><rect x="203.57386" y="214.33652" width="37.23334" height="117.21608" style="fill:#fff"/><rect x="262.54485" y="214.33652" width="37.23334" height="117.21608" style="fill:#fff"/><circle cx="365.71205" cy="802.25452" r="46.45747" style="fill:#d7d7d4"/><circle cx="277.21037" cy="845.75824" r="33.50272" style="fill:#d7d7d4"/></svg>