<svg xmlns="http://www.w3.org/2000/svg" xmlns:xlink="http://www.w3.org/1999/xlink" viewBox="0 0 1000 1000"><defs><clipPath id="a"><path d="M222.62227,383.56538H777.37795A11.63962,11.63962,0,0,1,789.01757,395.205V728.58566a11.63987,11.63987,0,0,1-11.63987,11.63987H222.622A11.63962,11.63962,0,0,1,210.9824,728.5859V395.20525A11.63987,11.63987,0,0,1,222.62227,383.56538Z" style="fill:#31333f"/></clipPath></defs><path d="M962.974,829.38633c0-8.90554-207.28059-16.125-462.97395-16.125s-462.97395,7.21949-462.97395,16.125c0,8.90578,207.28056,16.12527,462.974,16.12527S962.974,838.29211,962.974,829.38633Z" style="fill:#2c4d92;opacity:0.1"/><path d="M208.78539,332.17044H791.21458a22.2954,22.2954,0,0,1,22.2954,22.2954V765.58441a0,0,0,0,1,0,0H186.49a0,0,0,0,1,0,0V354.46584A22.2954,22.2954,0,0,1,208.78539,332.17044Z" style="fill:#31333f"/><path d="M874.56186,765.58441H125.43812A63.802,63.802,0,0,0,189.24,829.38633H810.75994a63.802,63.802,0,0,0,63.80192-63.80192Z" style="fill:#fff"/><path d="M127.03762,779.75673A63.81182,63.81182,0,0,0,189.24,829.38633H810.75994a63.81184,63.81184,0,0,0,62.20242-49.6296Z" style="fill:#7e7e7e"/><path d="M874.56186,765.58441v-.00024H125.43812v.00024a63.94266,63.94266,0,0,0,1.5995,14.17232H872.96236A63.94325,63.94325,0,0,0,874.56186,765.58441Z" style="fill:#fff"/><polyline points="424.451 765.584 434.993 779.757 565.007 779.757 575.549 765.584" style="fill:#aaa"/><path d="M222.62227,383.56538H777.37795A11.63962,11.63962,0,0,1,789.01757,395.205V728.58566a11.63987,11.63987,0,0,1-11.63987,11.63987H222.622A11.63962,11.63962,0,0,1,210.9824,728.5859V395.20525A11.63987,11.63987,0,0,1,222.62227,383.56538Z" style="fill:#7e7e7e"/><path d="M533.382,352.81884H466.618a5.27085,5.27085,0,0,0-5.27088,5.27089h0a5.27086,5.27086,0,0,0,5.27088,5.27089h66.764a5.27088,5.27088,0,0,0,5.27091-5.27089h0A5.27088,5.27088,0,0,0,533.382,352.81884Z" style="fill:#aaa"/><g style="opacity:0.5"><path d="M222.62227,383.56538H777.37795A11.63962,11.63962,0,0,1,789.01757,395.205V728.58566a11.63987,11.63987,0,0,1-11.63987,11.63987H222.622A11.63962,11.63962,0,0,1,210.9824,728.5859V395.20525A11.63987,11.63987,0,0,1,222.62227,383.56538Z" style="fill:#31333f"/><g style="clip-path:url(#a)"><path d="M506.97927,347.68958a5.46129,5.46129,0,1,1-5.46118-5.461A5.46123,5.46123,0,0,1,506.97927,347.68958Z" style="fill:#7f7f7f;opacity:0.46"/></g></g><rect x="240.1096" y="401.35856" width="520.59354" height="319.22373" style="fill:#fff"/><polygon points="292.147 363.272 502.913 507.611 709.385 364.014 292.147 363.272" style="fill:#fff"/><rect x="279.63184" y="353.24992" width="441.9376" height="301.12408" rx="38.4529" style="fill:#d9b73a"/><path d="M701.8254,357.59633,577.05465,285.94472h-152.908L299.37594,357.59633a39.33059,39.33059,0,0,0-19.74414,34.10644v.00025a38.45283,38.45283,0,0,0,38.45288,38.45264H683.11642A38.45288,38.45288,0,0,0,721.56954,391.703v-.00025A39.33059,39.33059,0,0,0,701.8254,357.59633Z" style="fill:#d38d2f"/><path d="M341.25307,230.53727h318.695a40.1245,40.1245,0,0,1,40.1245,40.1245V512.7921a0,0,0,0,1,0,0H301.12867a0,0,0,0,1,0,0V270.66167A40.1244,40.1244,0,0,1,341.25307,230.53727Z" style="fill:#fdf8ed"/><path d="M721.56944,615.9211h0a39.33008,39.33008,0,0,0-19.74408-34.1064L519.74993,477.2549a38.45287,38.45287,0,0,0-38.29859,0L299.37592,581.8147a39.33016,39.33016,0,0,0-19.74408,34.1064h0a38.45293,38.45293,0,0,0,38.4529,38.4529h365.0318a38.45293,38.45293,0,0,0,38.4529-38.4529Z" style="fill:#e79c2f"/><path d="M435.19391,503.81163l-135.81848,78.006a39.31734,39.31734,0,0,0-19.7489,34.09978V391.70584c0,.64919.01675,1.31554.05089,1.96474v.03423a35.93979,35.93979,0,0,0,.39293,3.82678l.01708.10252a39.283,39.283,0,0,0,19.288,28.17159Z" style="fill:#fff"/><path d="M721.57475,391.70584V615.91742a39.31772,39.31772,0,0,0-19.74931-34.09978l-135.83563-78.006L701.80828,425.8057a39.29318,39.29318,0,0,0,17.56254-21.20135c.1535-.4783.32448-.97375.47838-1.4692.18772-.598.3587-1.19595.51261-1.81092.15349-.615.3074-1.23.42707-1.84514.08513-.42708.17066-.85423.222-1.28131.06837-.37578.13675-.75164.18764-1.14457.13683-.8883.22236-1.79384.27366-2.71637.03415-.44415.0513-.87131.06838-1.31546.01707-.22211.01707-.42716.01707-.64919C721.57475,392.15007,721.57475,391.928,721.57475,391.70584Z" style="fill:#fff"/><g style="opacity:0.7000000000000001"><path d="M435.19391,503.81163l-135.81848,78.006a39.31734,39.31734,0,0,0-19.7489,34.09978V391.70584c0,.64919.01675,1.31554.05089,1.96474v.03423a35.93979,35.93979,0,0,0,.39293,3.82678l.01708.10252a39.283,39.283,0,0,0,19.288,28.17159Z" style="fill:#e79c2f"/><path d="M721.57475,391.70584V615.91742a39.31772,39.31772,0,0,0-19.74931-34.09978l-135.83563-78.006L701.80828,425.8057a39.29318,39.29318,0,0,0,17.56254-21.20135c.1535-.4783.32448-.97375.47838-1.4692.18772-.598.3587-1.19595.51261-1.81092.15349-.615.3074-1.23.42707-1.84514.08513-.42708.17066-.85423.222-1.28131.06837-.37578.13675-.75164.18764-1.14457.13683-.8883.22236-1.79384.27366-2.71637.03415-.44415.0513-.87131.06838-1.31546.01707-.22211.01707-.42716.01707-.64919C721.57475,392.15007,721.57475,391.928,721.57475,391.70584Z" style="fill:#e79c2f"/></g><path d="M507.73708,188.39079a5.12847,5.12847,0,0,1-3.51269,1.516,4.68191,4.68191,0,0,1-4.82189-4.82189l.53874-25.56669a5.18471,5.18471,0,0,1,5.02869-5.02868,4.68181,4.68181,0,0,1,4.822,4.822l-.53889,25.56653A5.12774,5.12774,0,0,1,507.73708,188.39079Z" style="fill:#cc4447"/><path d="M551.14014,180.29288l-16.14759,16.14758a4.82576,4.82576,0,1,1-6.81859-6.81859l16.14758-16.14759a4.82577,4.82577,0,1,1,6.8186,6.8186Z" style="fill:#cc4447"/><path d="M480.11727,197.5968a4.92872,4.92872,0,0,1-6.96529.14685l-15.48045-15.48044a5.03362,5.03362,0,0,1,7.1123-7.11229l15.48044,15.48044A4.92865,4.92865,0,0,1,480.11727,197.5968Z" style="fill:#cc4447"/><path d="M499.5508,440.66078a86.95958,86.95958,0,0,1-86.65229-79.68151,4.54521,4.54521,0,1,1,9.05941-.75014A77.85912,77.85912,0,1,0,526.87262,280.774a4.54542,4.54542,0,0,1,3.19054-8.51256A86.96652,86.96652,0,0,1,499.5508,440.66078Z" style="fill:#cc4447"/><polygon points="446.857 377.743 442.855 382.698 418.468 362.957 400.56 388.725 395.334 385.085 417.15 353.708 446.857 377.743" style="fill:#cc4447"/><path d="M502.048,356.20574V298.77046a2.49719,2.49719,0,0,1,4.99438,0v59.93247a2.49718,2.49718,0,0,1-2.49719,2.49718l-44.94935-13.99732a2.49719,2.49719,0,1,1,0-4.99437Z" style="fill:#cc4447"/><path d="M504.54524,363.7002h-.38018l-45.01185-14.017a4.99716,4.99716,0,0,1,.44254-9.97467h.40148l39.55091,13.04094V298.77029a4.9971,4.9971,0,0,1,9.9942,0V358.7031A5.00272,5.00272,0,0,1,504.54524,363.7002Z" style="fill:#cc4447"/><path d="M475.38808,277.90813a3.74656,3.74656,0,1,1,3.82381,2.34533A3.74919,3.74919,0,0,1,475.38808,277.90813Z" style="fill:#cc4447"/><path d="M478.85132,282.771a6.24681,6.24681,0,0,1-5.78963-3.94779h0a6.24494,6.24494,0,1,1,6.39795,3.91761Q479.15437,282.77141,478.85132,282.771Zm.02863-7.4992c-.03573,0-.07124.00177-.107.00533a1.24966,1.24966,0,0,0-1.05863,1.71556h0a1.24479,1.24479,0,0,0,2.21714.17888,1.23768,1.23768,0,0,0,.09121-1.12122A1.26189,1.26189,0,0,0,478.88,275.27176Z" style="fill:#cc4447"/><path d="M499.817,273.47567a3.74656,3.74656,0,1,1,3.82381,2.34533A3.74919,3.74919,0,0,1,499.817,273.47567Z" style="fill:#cc4447"/><path d="M503.28021,278.33846a6.24772,6.24772,0,0,1-5.78964-3.94734h0a6.245,6.245,0,1,1,6.398,3.91716Q503.58327,278.33891,503.28021,278.33846Zm-1.137-5.77787a1.26066,1.26066,0,0,0,1.24994.77278,1.247,1.247,0,1,0-1.24994-.77278Z" style="fill:#cc4447"/><path d="M456.35188,286.37743a3.74579,3.74579,0,1,1,5.11684,1.371A3.74579,3.74579,0,0,1,456.35188,286.37743Z" style="fill:#cc4447"/><path d="M459.60618,290.7491a6.24973,6.24973,0,0,1-5.41922-3.12175h0a6.24848,6.24848,0,1,1,5.41922,3.12175Zm-.01265-7.49032a1.24553,1.24553,0,0,0-1.07661,1.86869h0a1.24587,1.24587,0,1,0,1.07661-1.86869Z" style="fill:#cc4447"/><path d="M440.39726,299.85238a3.7458,3.7458,0,1,1,5.29734,0A3.74584,3.74584,0,0,1,440.39726,299.85238Z" style="fill:#cc4447"/><path d="M443.04579,303.44648a6.22749,6.22749,0,0,1-4.41607-1.82609l-.00022-.00044a6.25252,6.25252,0,1,1,4.41629,1.82653Zm-.88086-5.36152a1.24612,1.24612,0,1,0-.00022-1.76217A1.24788,1.24788,0,0,0,442.16493,298.085Z" style="fill:#cc4447"/><path d="M428.47386,316.99753a3.74579,3.74579,0,1,1,5.11684-1.37106A3.7458,3.7458,0,0,1,428.47386,316.99753Z" style="fill:#cc4447"/><path d="M430.33665,320.002a6.26256,6.26256,0,1,1,1.62657-.21528A6.29483,6.29483,0,0,1,430.33665,320.002Zm.01354-7.49432a1.26878,1.26878,0,0,0-.326.04261,1.24563,1.24563,0,0,0-.3005,2.28194l.00044.00045a1.24573,1.24573,0,1,0,.62608-2.325Z" style="fill:#cc4447"/><path d="M421.39424,336.6445a3.74581,3.74581,0,1,1,4.58761-2.64869A3.74584,3.74584,0,0,1,421.39424,336.6445Z" style="fill:#cc4447"/><path d="M422.36229,339.27264a6.24609,6.24609,0,1,1,6.0342-4.62957A6.22541,6.22541,0,0,1,422.36229,339.27264Zm.00177-7.49254a1.24684,1.24684,0,1,0,.32181.04261A1.24815,1.24815,0,0,0,422.36406,331.7801Z" style="fill:#cc4447"/></svg>