<svg xmlns="http://www.w3.org/2000/svg" xmlns:xlink="http://www.w3.org/1999/xlink" viewBox="0 0 1000 1000"><defs><clipPath id="a"><circle cx="265.2341" cy="-833.68771" r="210.22669" style="fill:#e5f7f6"/></clipPath><clipPath id="b"><path d="M692.13546,278.62849V225.96956c21.95943-.32841,17.67662-38.38135-4.38825-26.7683-3.94942,1.7553-14.04238-3.07177-10.53179-14.92-23.69652,17.553-56.71754-13.25329-58.80247,5.70472-4.10319,37.30963,3.83579,67.9753,24.88818,67.97749a34.541,34.541,0,0,0,6.70718-.39852v21.06357q10.3078,6.14355,20.61564,6.14355T692.13546,278.62849Z" style="fill:#e9bda0;clip-rule:evenodd"/></clipPath><clipPath id="c"><path d="M650.02879,257.62882v6.63069q18.64882,0,29.00929-17.82A74.90574,74.90574,0,0,1,650.02879,257.62882Z" style="fill:#cb9180;clip-rule:evenodd"/></clipPath></defs><circle cx="265.2341" cy="-833.68771" r="210.22669" style="fill:#e5f7f6"/><g style="clip-path:url(#a)"><path d="M103.25983-83.50327,84.36139-6.20133,57.03924,47.765s30.65445,6.67586,43.98188-18.64738c13.328-25.32265,9.99631-37.31787,9.99631-37.31787l28.88232-75.303Z" style="fill:#e9bda0"/><path d="M60.16609,41.58889S36.69018,54.34376,33.33538,68.77071H91.04376l11.40786-22.47942,7.71675,22.47942h7.8032s7.31531-58.32-6.95414-76.97095Z" style="fill:#00b2a9"/><path d="M321.74464-83.50327,311.90878-6.20133,338.86146,47.765S308.622,54.44087,295.47464,29.11763c-13.148-25.32265-9.86072-37.31787-9.86072-37.31787l-.013-75.303Z" style="fill:#e9bda0"/><path d="M335.73462,41.58889s23.47532,12.75487,26.83071,27.18182h-57.709L293.44909,46.29129l-7.71675,22.47942h-7.8032s-7.31532-58.32,6.95413-76.97095Z" style="fill:#00b2a9"/></g><path d="M809.7934,926.19261c0-5.46994-162.42976-9.90429-362.79687-9.90429s-362.79688,4.43435-362.79688,9.90429c0,5.4701,162.42974,9.90444,362.79688,9.90444S809.7934,931.66271,809.7934,926.19261Z" style="fill:#1c1c27;opacity:0.2"/><g style="isolation:isolate"><path d="M600.37714,346.817l140.8346-6.61192a8.94783,8.94783,0,0,0,7.71123-7.65334c4.94132-34.34088-9.19337-155.44623-30.66425-165.92459a9.22818,9.22818,0,0,1-4.58428-4.99093c-13.4787-34.78616-56.79276-31.62943-69.34454-28.55264-42.18449,10.34047-76.01623,52.214-56.07018,117.14766C600.37714,289.67912,595.31829,347.44288,600.37714,346.817Z" style="fill:#c09b57"/></g><path d="M924.34763,330.78379c-3.35943-9.42094-17.95722-4.59813-29.92869,4.93472-7.82453,6.23064-26.21532,2.71575-33.365,6.20743-8.98757,4.38928,10.475,24.608,30.94258,21.8297C904.64089,362.03925,927.70737,340.20443,924.34763,330.78379Z" style="fill:#e9bda0"/><path d="M762.23529,338.75107c4.49567,7.18165,9.10071,14.28077,13.6471,21.42432l13.82537,21.28955c4.58393,7.11524,9.29987,14.13062,13.9433,21.20093l13.9892,21.16626-23.33875.19385,16.32776-19.83838c5.43317-6.61963,10.91291-13.20532,16.28113-19.87207l16.1698-19.95337c5.33063-6.69434,10.71668-13.34815,15.9967-20.07935A9.10506,9.10506,0,0,1,873.78857,354.995c-4.785,7.0918-9.46392,14.2605-14.1983,21.38892l-14.02515,21.51489c-4.69677,7.15576-9.282,14.39282-13.91387,21.596l-13.86719,21.62988a13.86881,13.86881,0,0,1-22.15375,1.584l-1.18524-1.39013L777.94666,422.044c-5.51917-6.41015-10.96583-12.87475-16.54444-19.24L744.74,383.65293c-5.61621-6.33667-11.17371-12.71777-16.84058-19.0166a21.58093,21.58093,0,1,1,32.087-28.86817A23.17191,23.17191,0,0,1,762.23529,338.75107Z" style="fill:#edbc9f"/><path d="M435.79615,330.78379c3.35944-9.42094,17.95722-4.59813,29.9287,4.93472,7.82453,6.23064,26.21532,2.71575,33.365,6.20743,8.98756,4.38928-10.475,24.608-30.94259,21.8297C455.50289,362.03925,432.43641,340.20443,435.79615,330.78379Z" style="fill:#e9bda0"/><path d="M622.24335,364.63633c-5.66681,6.29883-11.22437,12.67993-16.84058,19.0166l-16.66223,19.15112c-5.57861,6.36524-11.02527,12.82984-16.54437,19.24l-16.49842,19.27442-1.1759,1.37378a13.87966,13.87966,0,0,1-19.57025,1.5188,14.08805,14.08805,0,0,1-3.26428-4.09424l-11.29663-21.52442c-3.77552-7.1687-7.50177-14.36718-11.34592-21.49414l-11.46359-21.42285c-3.88391-7.103-7.70923-14.24145-11.64658-21.31177a9.10578,9.10578,0,0,1,15.55292-9.44946c4.46081,6.75244,9.03366,13.43677,13.54788,20.1565l13.7309,20.04541c4.554,6.6958,9.22589,13.31982,13.84857,19.97387l13.89783,19.94385-24.0102-1.20166,13.98926-21.16626c4.64343-7.07031,9.35931-14.08569,13.94324-21.20093l13.82544-21.28955c4.54632-7.14355,9.15136-14.24267,13.647-21.42432a21.581,21.581,0,1,1,36.58478,22.90235A23.15393,23.15393,0,0,1,622.24335,364.63633Z" style="fill:#edbc9f"/><path d="M541.27439,814.16252l-13.90386,56.87215-20.1013,39.70382s22.55293,4.91152,32.35811-13.71915c9.80562-18.63024,7.35443-27.4553,7.35443-27.4553l21.24913-55.40152Z" style="fill:#e9bda0"/><path d="M509.5697,906.19463s-17.27157,9.38394-19.73974,19.99806h42.45689l8.39293-16.53844,5.67732,16.53844H552.098s5.382-42.90688-5.11626-56.62865Z" style="fill:#00b2a9"/><path d="M702.01682,814.16252l-7.23638,56.87215,19.82948,39.70382S692.36233,915.65,682.6896,897.01934c-9.67319-18.63024-7.25467-27.4553-7.25467-27.4553l-.00959-55.40152Z" style="fill:#e9bda0"/><path d="M712.30945,906.19463s17.27113,9.38394,19.73974,19.99806H689.59184l-8.39246-16.53844-5.67733,16.53844h-5.74093s-5.382-42.90688,5.11626-56.62865Z" style="fill:#00b2a9"/><path d="M728.94633,431.04774s30.44316,26.25475,28.53256,97.79351c-1.91059,71.53832-45.8564,296.57443-45.8564,296.57443H663.75357l2.08788-289.99931L576.91918,825.41568h-49.536L575.96388,574.3239s21.64906-119.773,42.59019-143.27616Z" style="fill:#202028"/><polygon points="664.242 795.136 716.834 795.071 716.834 793.789 664.242 793.854 664.242 795.136"/><rect x="559.16775" y="769.0869" width="1.28238" height="51.32522" transform="translate(-242.16177 1344.16358) rotate(-89.254)"/><path d="M697.55468,794.93734c18.91351-90.35009,39.95914-215.37329,32.80479-297.89785-4.29928-49.57784-16.64783-60.17829-17.17042-60.60572l-.81311.99343c.12522.10351,12.55892,10.93938,16.753,60.26345,3.86518,45.47891,1.30732,133.92063-32.82984,296.98289Z"/><rect x="665.20068" y="431.59854" width="1.28227" height="103.81729"/><path d="M666.07891,511.87244l.14359-1.28227a18.37878,18.37878,0,0,1-18.47107-18.32747V431.59854h-1.28227V492.2627A19.63242,19.63242,0,0,0,666.07891,511.87244Z"/><g style="isolation:isolate"><path d="M692.13546,278.62849V225.96956c21.95943-.32841,17.67662-38.38135-4.38825-26.7683-3.94942,1.7553-14.04238-3.07177-10.53179-14.92-23.69652,17.553-56.71754-13.25329-58.80247,5.70472-4.10319,37.30963,3.83579,67.9753,24.88818,67.97749a34.541,34.541,0,0,0,6.70718-.39852v21.06357q10.3078,6.14355,20.61564,6.14355T692.13546,278.62849Z" style="fill:#e9bda0;fill-rule:evenodd"/><g style="clip-path:url(#b)"><rect x="616.65765" y="182.96476" width="90.39784" height="101.80728" style="fill:#e9bda0"/></g></g><g style="isolation:isolate"><path d="M650.02879,257.62882v6.63069q18.64882,0,29.00929-17.82A74.90574,74.90574,0,0,1,650.02879,257.62882Z" style="fill:#cb9180;fill-rule:evenodd"/><g style="clip-path:url(#c)"><rect x="650.02879" y="247.93213" width="25.97538" height="16.32738" style="fill:#cb9180"/></g></g><path d="M602.47979,316.27671c2.6928-4.37366,20.28157-26.54083,45.85674-36.78664q.9763-6.33237,3.575-6.84339c2.59868-.511,17.20406-.60433,17.21735,1.81328.00266.44348.43311,5.2,2.10867,5.2,1.67528,0,2.17832-4.75626,2.181-5.2.01329-2.41761,14.70375-2.35274,17.21735-1.81328q2.51373.5396,3.5856,6.83542c25.5999,10.25325,48.09516,25.69082,50.78662,30.06236.66735,1.08371-4.34388,2.207-12.79689,3.27586.35707.63278.7628,1.2326,1.085,1.888l-4.35,116.33947H618.55414l-4.02271-112.819C606.51686,317.9504,601.83159,317.32931,602.47979,316.27671Z" style="fill:#004c97;fill-rule:evenodd"/><path d="M683.498,287.83834s72.46353-2.21012,92.57322,58.58876a3.15408,3.15408,0,0,1-2.395,4.04183l-48.51,9.60724Z" style="fill:#004c97"/><path d="M660.11428,287.83834s-72.46353-2.21012-92.57322,58.58876a3.15407,3.15407,0,0,0,2.395,4.04183l48.51,9.60724Z" style="fill:#004c97"/><path d="M667.17947,68.74931V90.7551a4.6503,4.6503,0,1,1-9.29232,0V68.74931a4.6503,4.6503,0,1,1,9.29232,0Z" style="fill:#bf2f32"/><path d="M707.4975,86.02752,691.93706,101.588a4.65029,4.65029,0,1,1-6.57066-6.57066l15.56044-15.56044a4.65029,4.65029,0,1,1,6.57066,6.57066Z" style="fill:#bf2f32"/><path d="M639.05712,102.70226a4.74953,4.74953,0,0,1-6.712.14151L617.42753,87.92621a4.85059,4.85059,0,0,1,6.85368-6.85368l14.91756,14.91756A4.74945,4.74945,0,0,1,639.05712,102.70226Z" style="fill:#bf2f32"/><circle cx="273.17166" cy="615.68556" r="197.8498" style="fill:#cc4447"/><path d="M353.88543,562.94533c0,30.6471-17.46291,54.87872-57.73062,65.92615v25.6567H244.4847V597.156c42.0495-4.6337,53.09693-17.81788,53.09693-33.14056,0-13.54263-9.26565-21.38145-23.51995-21.38145-12.11581,0-24.23162,5.34536-33.854,18.17284l-47.74982-25.3c13.54089-24.23161,43.47458-42.7629,82.3172-42.7629C323.23833,492.74394,353.88543,521.96421,353.88543,562.94533ZM302.21358,707.26841c0,17.81788-13.54089,31.35877-32.78385,31.35877-18.888,0-32.42889-13.54089-32.42889-31.35877,0-17.10447,13.54089-31.71548,32.42889-31.71548C288.67269,675.55293,302.21358,690.16394,302.21358,707.26841Z" style="fill:#fff"/></svg>