<svg xmlns="http://www.w3.org/2000/svg" xmlns:xlink="http://www.w3.org/1999/xlink" viewBox="0 0 1000 1000"><defs><clipPath id="a"><circle cx="734.7659" cy="483.17479" r="210.22669" style="fill:#e5f7f6"/></clipPath><clipPath id="b"><circle cx="265.2341" cy="483.17479" r="210.22669" style="fill:#adadb2"/></clipPath></defs><circle cx="734.7659" cy="483.17479" r="210.22669" style="fill:#e5f7f6"/><g style="clip-path:url(#a)"><polygon points="635.831 595.503 590.471 726.171 601.111 751.794 662.311 740.219 679.645 600.328 635.831 595.503" style="fill:#edbc9f"/><path d="M767.8425,501.04717,724.60182,506.043l-63.63467,15.35643-.01227.05927c-10.61407,3.87508-41.54723,28.0659-48.41185,97.49772l25.43086,15.17091L614.94591,747.026l161.65771,63.71918,79.2668-277.41955S833.94224,518.70688,767.8425,501.04717Z" style="fill:#87189d"/><path d="M887.93764,758.77582c-.10629-2.82856-1.82135-19.847-2.55507-22.58078L858.74311,565.64042a35.8342,35.8342,0,1,0-68.711,19.87459l31.67835,146.48172Z" style="fill:#e9bda0"/><path d="M851.65879,722.24531l-180.3164-14.056-9.03093,32.02941,173.64748,58.716a39.44325,39.44325,0,0,0,51.9787-40.15885h0A39.44337,39.44337,0,0,0,851.65879,722.24531Z" style="fill:#e9bda0"/><path d="M855.85674,533.22056s12.83929,27.42636,22.68552,87.00132l-81.23413,24.952s-58.03611-73.20352-1.284-112.94352Z" style="fill:#87189d"/><path d="M772.2349,455.79336c2.54974-3.91585,66.15237-74.99663,13.2142-102.93338,0,0-1.71336-35.81807-41.74287-35.01231-40.029.8058-30.03934,13.29-54.906,5.58579-24.86663-7.70368-49.69338,3.52224-49.38846,24.81855.30478,21.2963,15.74233,31.5022,45.30189,28.606,29.55951-2.89568,52.3373,2.71436,52.3373,2.71436l23.81091,8.96153Z" style="fill:#1f2326"/><path d="M772.67739,514.08662l3.447-85.71223-60.85708,16.36952-.53866,68.89014c-.12455,16.00183,7.73578,29.01353,23.73814,29.1387l5.0097.06167A28.97571,28.97571,0,0,0,772.67739,514.08662Z" style="fill:#e2b99c"/><path d="M770.19628,439.82141s5.69108,72.25708-55.42988,71.7065l-.16262-34.01107Z" style="fill:#cb9180"/><path d="M715.29,495.42407l2.05772.0606a55.19421,55.19421,0,0,0,56.79616-53.54327l1.83606-62.288a14.28616,14.28616,0,0,0-13.8588-14.70138l-72.61169-2.14061a25.516,25.516,0,0,0-26.25679,24.75321L661.74676,438.628A55.19407,55.19407,0,0,0,715.29,495.42407Z" style="fill:#e2b99c"/><path d="M761.8378,422.24064a18.61664,18.61664,0,1,0,19.15662-18.05934A18.61668,18.61668,0,0,0,761.8378,422.24064Z" style="fill:#e2b99c"/><path d="M780.99267,404.181l.00186.0004,2.09731-32.0532L763.63693,354.3503l-57.41-6.75L671.60757,352.489l-5.555,24.23685s19.37338,4.5671,48.23216-.28033a47.66032,47.66032,0,0,1,26.62155,3.34513,24.59136,24.59136,0,0,1,15.06973,23.26452l-.98113,41.10238a14.96906,14.96906,0,0,1-8.08477,12.65518c-3.70825,2.03471-6.446,5.17889-12.51222,3.81139-16.3-3.6729-7.77052-15.32637-41.3542-16.04177C662.28283,443.927,663.3422,461.1,663.3422,461.1s3.46148,32.8252,45.3594,37.58849c41.89862,4.76334,64.82115-20.22607,62.71342-56.00335l.16253-29.29382C771.61647,408.51108,776.039,403.68193,780.99267,404.181Z" style="fill:#1f2326"/></g><circle cx="265.2341" cy="483.17479" r="210.22669" style="fill:#adadb2"/><g style="clip-path:url(#b)"><path d="M300.921,532.521l-49.58725,5.72909-72.97453,17.61034-.01408.068c-12.17193,4.44384-47.64524,32.18522-55.51741,111.80777l29.16343,17.3976L125.5833,814.603,310.968,887.67446l90.901-318.13731S376.72242,552.77273,300.921,532.521Z" style="fill:#31333f"/><path d="M305.9581,480.62518c2.68064-4.11687,64.20663-72.97014,27.651-109.08756A80.40218,80.40218,0,0,1,317.05205,347.2c-5.20608-11.5539-17.03208-25.30629-43.80987-24.76728-45.90412.92407-77.60892-10.91561-99.17055,36.34765-10.13745,22.22137-2.37864,34.64511,31.51947,31.32377,33.89806-3.32069,60.019,3.11276,60.019,3.11276l27.30571,10.27683Z" style="fill:#31333f"/><path d="M306.46554,547.47433l3.95287-98.29249L240.62915,467.954l-.61772,79.00137c-.14284,18.35047,8.87118,33.27194,27.22226,33.41548l5.745.07072A33.22858,33.22858,0,0,0,306.46554,547.47433Z" style="fill:#31333f"/><path d="M303.62026,462.309s6.52639,82.86249-63.56549,82.2311l-.1865-39.003Z" style="fill:#31333f"/><path d="M240.65525,526.07263l2.35974.06948a63.29524,63.29524,0,0,0,65.13232-61.402l2.10553-71.43027a16.383,16.383,0,0,0-15.8929-16.85915l-83.26914-2.45479a29.261,29.261,0,0,0-30.11058,28.38632l-1.727,58.55814A63.2951,63.2951,0,0,0,240.65525,526.07263Z" style="fill:#31333f"/><path d="M294.035,442.14783a21.34907,21.34907,0,1,0,21.9683-20.71A21.34912,21.34912,0,0,0,294.035,442.14783Z" style="fill:#31333f"/><path d="M401.85338,569.41662s14.72376,31.45182,26.01515,99.77078L334.7114,697.80167s-66.55425-83.94783-1.47241-129.5206Z" style="fill:#31333f"/></g><circle cx="499.90356" cy="483.17479" r="71.15418" style="fill:#00b2a9"/><line x1="465.56532" y1="482.79377" x2="519.54444" y2="482.79377" style="fill:none;stroke:#fff;stroke-linecap:round;stroke-linejoin:round;stroke-width:11px"/><line x1="515.33982" y1="464.2198" x2="534.2418" y2="483.12178" style="fill:none;stroke:#fff;stroke-linecap:round;stroke-linejoin:round;stroke-width:11px"/><line x1="515.08822" y1="502.12978" x2="533.9902" y2="483.2278" style="fill:none;stroke:#fff;stroke-linecap:round;stroke-linejoin:round;stroke-width:11px"/></svg>