<svg xmlns="http://www.w3.org/2000/svg" xmlns:xlink="http://www.w3.org/1999/xlink" viewBox="0 0 1000 1000"><defs><clipPath id="a"><circle cx="302.22362" cy="730.42851" r="169.26387" style="fill:#adadb2"/></clipPath></defs><circle cx="302.22362" cy="730.42851" r="169.26387" style="fill:#adadb2"/><g style="clip-path:url(#a)"><path d="M330.95691,770.15961l-39.92514,4.61278-58.75539,14.17895-.01134.05472c-9.80022,3.578-38.36153,25.91391-44.6998,90.02195l23.48091,14.00767-21.26227,104.242,149.26238,58.83343,73.18891-256.148S391.98836,786.46524,330.95691,770.15961Z" style="fill:#31333f"/><path d="M335.01252,728.37569c2.15831-3.31469,51.69592-58.75186,22.26315-87.83178a64.73586,64.73586,0,0,1-13.33087-19.59537c-4.19167-9.30262-13.71336-20.37534-35.27348-19.94136-36.95967.744-62.48677-8.78869-79.8471,29.26528-8.16216,17.89153-1.91516,27.89449,25.37788,25.22032a158.4567,158.4567,0,0,1,48.32426,2.50623l21.98518,8.27439Z" style="fill:#31333f"/><path d="M335.42108,782.19924l3.18266-79.14013L282.413,718.17348l-.49736,63.6079c-.115,14.77486,7.14263,26.78887,21.918,26.90445l4.62559.05693A26.754,26.754,0,0,0,335.42108,782.19924Z" style="fill:#31333f"/><path d="M333.13021,713.62841s5.25472,66.71668-51.17971,66.20832l-.15016-31.40323Z" style="fill:#31333f"/><path d="M282.434,764.96767l1.89994.056a50.96213,50.96213,0,0,0,52.44125-49.43776l1.69527-57.512a13.19075,13.19075,0,0,0-12.79616-13.57413l-67.04409-1.97647a23.5595,23.5595,0,0,0-24.24351,22.85522l-1.39046,47.14805A50.962,50.962,0,0,0,282.434,764.96767Z" style="fill:#31333f"/><path d="M325.41263,697.39568a17.18919,17.18919,0,1,0,17.68776-16.67462A17.18922,17.18922,0,0,0,325.41263,697.39568Z" style="fill:#31333f"/><path d="M412.22254,799.86606s11.85482,25.32341,20.94608,80.33037l-75.0054,23.03876s-53.58611-67.59054-1.18551-104.28343Z" style="fill:#31333f"/></g><circle cx="569.59085" cy="397.75703" r="297.44941" style="fill:#cc4447"/><path d="M405.17594,179.7865a9.90925,9.90925,0,0,0-8.97935,9.90794V605.8302a9.90921,9.90921,0,0,0,9.90824,9.90824H733.077a9.90921,9.90921,0,0,0,9.90824-9.90824V189.69444a9.90912,9.90912,0,0,0-9.90824-9.90794H406.10483Q405.64064,179.76472,405.17594,179.7865Z" style="fill:#fdf8ed"/><rect x="443.70811" y="271.43943" width="30.12306" height="102.58398" style="fill:#2f2f2f"/><rect x="497.62713" y="216.01086" width="30.12306" height="158.01255" style="fill:#2f2f2f"/><rect x="551.54614" y="295.01713" width="30.12306" height="79.00627" style="fill:#2f2f2f"/><rect x="605.46516" y="271.43943" width="30.12306" height="102.58398" style="fill:#2f2f2f"/><rect x="659.38418" y="310.87682" width="30.12306" height="63.14658" style="fill:#2f2f2f"/><path d="M506.06592,537.74653v19.56671H483.43637V537.91643c-17.0143-2.89223-30.45638-12.59046-34.70961-27.22329l26.03186-7.99673c3.23309,9.86849,10.71941,14.29231,20.7578,14.29231,10.03909,0,15.82356-4.59408,15.82356-10.71941,0-4.764-2.21157-7.99673-9.86849-9.528l-21.26821-4.764c-15.31315-3.57325-28.75454-11.57-28.75454-30.96645,0-17.69531,12.59116-29.60546,31.98763-32.668v-19.0563h22.62955v19.39646c14.63213,3.23275,25.692,12.0804,29.94527,24.84112L511.34,459.99007c-3.403-8.33724-10.88932-11.22983-17.86522-11.22983-8.67705,0-14.29231,4.59409-14.29231,10.71907,0,4.25392,1.87175,7.48666,8.33724,9.01791l21.43812,4.764c18.37633,4.42382,29.095,14.12206,29.095,31.1367C538.05285,523.11405,524.271,534.51378,506.06592,537.74653Z" style="fill:#2f2f2f"/><rect x="618.22043" y="381.73393" width="24.15448" height="118.41914" transform="translate(1071.24117 -189.35417) rotate(90)" style="fill:#2f2f2f"/><rect x="618.22043" y="429.11332" width="24.15448" height="118.41914" transform="translate(1118.62056 -141.97478) rotate(90)" style="fill:#2f2f2f"/><rect x="618.22043" y="476.49271" width="24.15448" height="118.41914" transform="translate(1165.99995 -94.59539) rotate(90)" style="fill:#2f2f2f"/></svg>