<svg xmlns="http://www.w3.org/2000/svg" viewBox="0 0 1000 1000"><circle cx="500" cy="500" r="369.43386" style="fill:#cc4447"/><path d="M295.79574,229.27936a12.30736,12.30736,0,0,0-11.1524,12.30573v516.843a12.30732,12.30732,0,0,0,12.3061,12.3061H703.05068a12.3073,12.3073,0,0,0,12.30609-12.3061v-516.843a12.30719,12.30719,0,0,0-12.30609-12.30573H296.94944Q296.37292,229.25233,295.79574,229.27936Z" style="fill:#fdf8ed"/><rect x="343.65292" y="343.11283" width="37.41301" height="127.40988" style="fill:#2f2f2f"/><rect x="410.62065" y="274.27022" width="37.41301" height="196.25248" style="fill:#2f2f2f"/><rect x="477.58838" y="372.39647" width="37.41301" height="98.12624" style="fill:#2f2f2f"/><rect x="544.5561" y="343.11283" width="37.41301" height="127.40988" style="fill:#2f2f2f"/><rect x="611.52383" y="392.09429" width="37.41301" height="78.42841" style="fill:#2f2f2f"/><path d="M421.10168,673.86775v24.302h-28.106V674.07878c-21.13186-3.59218-37.827-15.63743-43.10953-33.81148l32.33171-9.932c4.01552,12.25671,13.31357,17.75113,25.78131,17.75113,12.4686,0,19.65295-5.70587,19.65295-13.31356,0-5.9169-2.74678-9.932-12.25672-11.83381l-26.41524-5.9169c-19.019-4.438-35.7133-14.37-35.7133-38.4605,0-21.97768,15.6383-36.77015,39.72882-40.57378v-23.668h28.106v24.09052c18.17319,4.01509,31.90967,15.00393,37.1922,30.85282l-30.64179,8.0306c-4.22654-10.3549-13.52459-13.9475-22.1887-13.9475-10.77695,0-17.75114,5.70587-17.75114,13.31313,0,5.2834,2.32473,9.29848,10.3549,11.2003l26.62627,5.9169c22.82351,5.49442,36.13621,17.53968,36.13621,38.672C460.82963,655.69414,443.71243,669.85267,421.10168,673.86775Z" style="fill:#2f2f2f"/><rect x="560.39822" y="480.09922" width="30" height="147.07725" transform="translate(1129.03607 -21.76037) rotate(90)" style="fill:#2f2f2f"/><rect x="560.39822" y="538.94469" width="30" height="147.07725" transform="translate(1187.88154 37.08509) rotate(90)" style="fill:#2f2f2f"/><rect x="560.39822" y="597.79016" width="30" height="147.07725" transform="translate(1246.72701 95.93056) rotate(90)" style="fill:#2f2f2f"/><circle cx="722.34297" cy="250.22429" r="92.11263" style="fill:#e79c2f"/><path d="M747.769,256.85074H677.88984a7.12,7.12,0,0,1,0-14.24H747.769a7.12,7.12,0,0,1,0,14.24Z" style="fill:#fff"/><path d="M766.79532,257.27551a7.09478,7.09478,0,0,1-5.03408-2.08594l-24.46876-24.46876a7.11926,7.11926,0,0,1,10.06816-10.06816l24.46876,24.46876a7.12,7.12,0,0,1-5.03408,12.1541Z" style="fill:#fff"/><path d="M742.00039,281.88207a7.12,7.12,0,0,1-5.03408-12.15536l24.47-24.46876a7.12016,7.12016,0,0,1,10.06816,10.07068l-24.47,24.46876A7.09873,7.09873,0,0,1,742.00039,281.88207Z" style="fill:#fff"/></svg>