<svg xmlns="http://www.w3.org/2000/svg" xmlns:xlink="http://www.w3.org/1999/xlink" viewBox="0 0 1000 1000"><defs><clipPath id="a"><circle cx="500" cy="500" r="369.43386" style="fill:#e5f7f6"/></clipPath><clipPath id="b"><path d="M575.70423,539.14287v-125.78c52.45184-.78443,42.222-91.67687-10.48167-63.93818-9.4335,4.19267-33.54133-7.33716-25.156-35.63767-56.601,41.92667-135.47432-31.65653-140.45435,13.62617-9.80078,89.117,9.16211,162.36435,59.44739,162.36959,4.9373.00052,9.74763.16741,16.02062-.95191v50.312q24.621,14.67433,49.24208,14.67433T575.70423,539.14287Z" style="fill:#e9bda0;clip-rule:evenodd"/></clipPath><clipPath id="c"><path d="M475.12914,488.98349v15.83794q44.54419,0,69.291-42.56446Q514.724,482.05441,475.12914,488.98349Z" style="fill:#cb9180;clip-rule:evenodd"/></clipPath></defs><circle cx="500" cy="500" r="369.43386" style="fill:#e5f7f6"/><g style="clip-path:url(#a)"><g style="isolation:isolate"><path d="M356.53227,702.01657l336.39452-15.79309a21.37258,21.37258,0,0,0,18.41888-18.28059c11.80274-82.02591-21.95909-371.29555-73.244-396.324a22.04216,22.04216,0,0,1-10.94992-11.92123c-32.19494-83.08948-135.654-75.54936-165.63488-68.20021-100.761,24.699-181.57075,124.71718-133.928,279.81638C356.53227,565.53816,344.44881,703.51145,356.53227,702.01657Z" style="fill:#c09b57"/></g><path d="M389.1084,599.16379S345.97374,628.874,330.7815,830.70046c-15.19119,201.82644-48.97286,367.69034-46.046,368.31255,2.92691.62118,97.5337,10.87419,97.5337,10.87419l46.23845-317.0995Z" style="fill:#e9bda0"/><path d="M452.03531,555.76588s-88.80042,26.50676-126.76056,149.40891a10.15768,10.15768,0,0,0,9.25872,13.25864l65.41582,2.24742Z" style="fill:#004c97"/><path d="M663.6299,903.20823s72.71587,62.71153,68.15227,233.58748c-4.56361,170.87491-109.53162,708.39134-109.53162,708.39134H507.91185l4.98708-692.68614L300.50109,1845.18705H182.18034l116.039-599.75246s51.71048-286.08718,101.73-342.22636Z" style="fill:#202028"/><path d="M588.64847,1772.38716c45.17641-215.80831,95.44554-514.436,78.35683-711.55244-10.26918-118.42059-39.76466-143.7406-41.01291-144.76154l-1.94217,2.37288c.2991.24726,29.998,26.12958,40.0159,143.944,9.23229,108.63,3.12263,319.88-78.41665,709.367Z"/><rect x="511.36841" y="904.52385" width="3.06281" height="247.97576"/><path d="M513.46611,1096.26438l.343-3.06281A43.89915,43.89915,0,0,1,469.6895,1049.425V904.52385h-3.06281V1049.425A46.89357,46.89357,0,0,0,513.46611,1096.26438Z"/><g style="isolation:isolate"><path d="M575.70423,539.14287v-125.78c52.45184-.78443,42.222-91.67687-10.48167-63.93818-9.4335,4.19267-33.54133-7.33716-25.156-35.63767-56.601,41.92667-135.47432-31.65653-140.45435,13.62617-9.80078,89.117,9.16211,162.36435,59.44739,162.36959,4.9373.00052,9.74763.16741,16.02062-.95191v50.312q24.621,14.67433,49.24208,14.67433T575.70423,539.14287Z" style="fill:#e9bda0;fill-rule:evenodd"/><g style="clip-path:url(#b)"><rect x="395.41955" y="310.64251" width="215.92235" height="243.17469" style="fill:#e9bda0"/></g></g><g style="isolation:isolate"><path d="M475.12914,488.98349v15.83794q44.54419,0,69.291-42.56446Q514.724,482.05441,475.12914,488.98349Z" style="fill:#cb9180;fill-rule:evenodd"/><g style="clip-path:url(#c)"><rect x="475.12914" y="465.8222" width="62.04423" height="38.99923" style="fill:#cb9180"/></g></g><path d="M361.55462,629.0686c6.43195-10.44684,48.44413-63.39486,109.53243-87.86778q2.332-15.12537,8.5391-16.346c6.20714-1.2206,41.09324-1.44351,41.125,4.33115.00635,1.05929,1.03453,12.42063,5.03672,12.42063,4.00155,0,5.20309-11.3607,5.20944-12.42063.03176-5.77466,35.12108-5.6197,41.125-4.33115q6.00425,1.28886,8.56451,16.32692c61.14736,24.4907,114.87905,61.36455,121.30783,71.80631,1.594,2.58853-10.37572,5.27169-30.56638,7.82465.85289,1.51146,1.822,2.94417,2.59171,4.50961l-10.39032,277.886H399.94946l-9.60855-269.47706C371.19747,633.06634,360.00633,631.58282,361.55462,629.0686Z" style="fill:#004c97;fill-rule:evenodd"/><path d="M722.70908,631.1943c11.06712,17.94051,22.38979,35.69292,33.57515,53.54642l33.99194,53.2402c11.28937,17.7772,22.8027,35.38961,34.193,53.09244l34.445,52.90773,2.57759,3.959a30.95294,30.95294,0,0,1-9.05192,42.8278,31.9305,31.9305,0,0,1-2.84989,1.64678l-37.22316,18.94179c-12.36247,6.38636-24.77623,12.69057-37.06737,19.19163L738.3566,949.94c-12.22443,6.60849-24.53283,13.08185-36.68071,19.81282a21.09234,21.09234,0,0,1-22.27326-35.76048c11.39837-7.93446,22.63622-16.12653,33.95792-24.184L747.05636,885.203c11.25511-8.16436,22.3876-16.52558,33.57126-24.80515l33.4156-25.055L804.719,883.77588l-40.16808-48.70525c-13.48066-16.16785-26.83834-32.4261-40.42-48.52007l-40.62121-48.3723c-13.68553-16.01765-27.234-32.13592-41.03788-48.06656a49.93482,49.93482,0,0,1,75.47664-65.40048A53.98889,53.98889,0,0,1,722.70908,631.1943Z" style="fill:#e9bda0"/><path d="M592.44616,953.41149c1.711,23.8292,42.0299,36.69978,65.85861,34.98784,23.82961-1.71243,49.60743-7.67724,47.89549-31.50594-1.71174-23.82941-33.89478-47.14863-58.81993-48.69448C616.95987,906.3118,590.73422,929.58278,592.44616,953.41149Z" style="fill:#e9bda0"/><path d="M555.073,561.14131s173.08484-5.279,221.11841,139.94387a7.53375,7.53375,0,0,1-5.72058,9.65423L654.60089,733.687Z" style="fill:#004c97"/></g><path d="M835.01213,175.8246l-25.663,25.663A7.66947,7.66947,0,1,1,798.51254,190.651l25.663-25.663a7.66947,7.66947,0,1,1,10.83663,10.83662Z" style="fill:#bf2f32"/><path d="M861.881,242.99287H825.58806a7.66947,7.66947,0,1,1,0-15.3253H861.881a7.66947,7.66947,0,1,1,0,15.3253Z" style="fill:#bf2f32"/><path d="M762.62043,182.62419a7.83312,7.83312,0,0,1-7.99255-7.66249V140.16825a7.99981,7.99981,0,0,1,15.98542,0V174.9617A7.833,7.833,0,0,1,762.62043,182.62419Z" style="fill:#bf2f32"/><path d="M164.98787,824.1754l25.663-25.663a7.66947,7.66947,0,1,1,10.83662,10.83662l-25.663,25.663a7.66947,7.66947,0,1,1-10.83663-10.83662Z" style="fill:#bf2f32"/><path d="M138.119,757.00713h36.29292a7.66947,7.66947,0,1,1,0,15.3253H138.119a7.66947,7.66947,0,1,1,0-15.3253Z" style="fill:#bf2f32"/><path d="M237.37957,817.37581a7.83312,7.83312,0,0,1,7.99255,7.66249v34.79345a7.99981,7.99981,0,0,1-15.98542,0V825.0383A7.833,7.833,0,0,1,237.37957,817.37581Z" style="fill:#bf2f32"/></svg>