<svg xmlns="http://www.w3.org/2000/svg" xmlns:xlink="http://www.w3.org/1999/xlink" viewBox="0 0 1000 1000"><defs><clipPath id="a"><path d="M284.77279,336.09126h430.4546a9.0316,9.0316,0,0,1,9.0316,9.0316V603.80472a9.03178,9.03178,0,0,1-9.03178,9.03178H284.77279a9.03178,9.03178,0,0,1-9.03178-9.03178V345.123A9.03178,9.03178,0,0,1,284.77279,336.09126Z" style="fill:#31333f"/></clipPath></defs><circle cx="500" cy="500" r="393.8272" style="fill:#e79c2f"/><path d="M504.1553,188.18367v19.68085a4.159,4.159,0,1,1-8.31058,0V188.18367a4.159,4.159,0,1,1,8.31058,0Z" style="fill:#004c97"/><path d="M540.21369,203.63642l-13.91646,13.91647a4.159,4.159,0,1,1-5.87647-5.87647L534.33723,197.76a4.159,4.159,0,1,1,5.87646,5.87646Z" style="fill:#004c97"/><path d="M479.0041,218.54946a4.24774,4.24774,0,0,1-6.0029.12656l-13.3415-13.34151a4.33812,4.33812,0,0,1,6.12958-6.12958l13.3415,13.3415A4.24767,4.24767,0,0,1,479.0041,218.54946Z" style="fill:#004c97"/><path d="M279.03188,296.2121H720.96812a22.2954,22.2954,0,0,1,22.2954,22.2954V632.51336a0,0,0,0,1,0,0h-486.527a0,0,0,0,1,0,0V318.5075A22.2954,22.2954,0,0,1,279.03188,296.2121Z" style="fill:#31333f"/><path d="M790.63583,632.51336H209.36417a49.50621,49.50621,0,0,0,49.50617,49.50617H741.12966a49.50621,49.50621,0,0,0,49.50617-49.50617Z" style="fill:#fff"/><path d="M210.60527,643.51017a49.51388,49.51388,0,0,0,48.26507,38.50936H741.12966a49.51387,49.51387,0,0,0,48.26507-38.50936Z" style="fill:#7e7e7e"/><path d="M790.63583,632.51336v-.00018H209.36417v.00018a49.6163,49.6163,0,0,0,1.2411,10.99681H789.39473A49.6163,49.6163,0,0,0,790.63583,632.51336Z" style="fill:#fff"/><polyline points="441.379 632.513 449.559 643.51 550.441 643.51 558.621 632.513" style="fill:#aaa"/><path d="M525.90227,312.23392H474.09773a4.08985,4.08985,0,0,0-4.08986,4.08988h0a4.08984,4.08984,0,0,0,4.08986,4.08987h51.80454a4.08986,4.08986,0,0,0,4.08988-4.08987h0A4.08987,4.08987,0,0,0,525.90227,312.23392Z" style="fill:#aaa"/><g style="opacity:0.5"><path d="M284.77279,336.09126h430.4546a9.0316,9.0316,0,0,1,9.0316,9.0316V603.80472a9.03178,9.03178,0,0,1-9.03178,9.03178H284.77279a9.03178,9.03178,0,0,1-9.03178-9.03178V345.123A9.03178,9.03178,0,0,1,284.77279,336.09126Z" style="fill:#31333f"/><g style="clip-path:url(#a)"><path d="M505.41547,308.254a4.23761,4.23761,0,1,1-4.23752-4.23738A4.23756,4.23756,0,0,1,505.41547,308.254Z" style="fill:#7f7f7f;opacity:0.46"/></g></g><path d="M284.77279,336.09126h430.4546a9.0316,9.0316,0,0,1,9.0316,9.0316V603.80472a9.03178,9.03178,0,0,1-9.03178,9.03178H284.77279a9.03178,9.03178,0,0,1-9.03178-9.03178V345.123A9.03178,9.03178,0,0,1,284.77279,336.09126Z" style="fill:#d7d7d4"/><circle cx="500.00001" cy="378.99964" r="144.35655" style="fill:#fff"/><path d="M543.07353,349.52543v45.868A41.86432,41.86432,0,0,1,501.256,437.211h-2.57345a41.86459,41.86459,0,0,1-41.8175-41.8175v-72.0549a41.86445,41.86445,0,0,1,41.8175-41.8175H501.256a41.87164,41.87164,0,0,1,41.43311,36.229h16.83842a58.62032,58.62032,0,0,0-58.27153-52.956h-2.57345a58.6106,58.6106,0,0,0-58.5445,58.5445v72.0549a58.61073,58.61073,0,0,0,58.5445,58.5445H501.256a58.61078,58.61078,0,0,0,58.54471-58.5445v-45.868Z" style="fill:#2f2f2f"/><path d="M427.45837,340.771h145.022a6.84916,6.84916,0,0,1,6.84916,6.84916V466.82108a6.8491,6.8491,0,0,1-6.8491,6.8491H427.45831a6.8491,6.8491,0,0,1-6.8491-6.8491V347.62014A6.84916,6.84916,0,0,1,427.45837,340.771Z" style="fill:#004c97"/><path d="M569.579,340.771H500.04358V473.67017h69.53567a9.779,9.779,0,0,0,9.75032-9.75031V350.52152A9.7792,9.7792,0,0,0,569.579,340.771Z" style="fill:#fff;opacity:0.2"/><path d="M519.161,396.833a19.19165,19.19165,0,1,0-26.17762,17.86076v15.03889a6.98593,6.98593,0,1,0,13.97185,0V414.69379A19.183,19.183,0,0,0,519.161,396.833Z" style="fill:#2f2f2f"/><circle cx="500" cy="500" r="444.85834" transform="translate(-207.10678 500) rotate(-45)" style="fill:none;stroke:#e79c2f;stroke-linecap:round;stroke-miterlimit:10;stroke-width:10px;stroke-dasharray:0.5012980699539185,20.051921844482422"/></svg>