<svg xmlns="http://www.w3.org/2000/svg" viewBox="0 0 800.76 800.76"><title>Icon_Correct</title><g id="Change_colour" data-name="Change colour"><path d="M648,379.8a16,16,0,0,1,11.17,4.14c4.49,4.39,13.64,4.39,18.13,0,5.63-5.52,16.69-5.51,22.33,0l-2.1,2.14c-4.49-4.39-13.64-4.39-18.13,0-5.64,5.51-16.7,5.51-22.33,0-4.49-4.39-13.64-4.39-18.13,0-5.64,5.51-16.7,5.51-22.33,0l2.09-2.14c4.5,4.39,13.65,4.39,18.14,0A16,16,0,0,1,648,379.8Z" style="fill: rgb(97, 206, 206);"/><path d="M648,402.55a16.06,16.06,0,0,1,11.17,4.13c4.49,4.4,13.64,4.4,18.13,0,5.64-5.51,16.69-5.51,22.33,0l-2.1,2.15c-4.49-4.39-13.64-4.39-18.13,0-5.64,5.51-16.7,5.51-22.33,0-4.49-4.39-13.64-4.39-18.13,0-5.64,5.51-16.7,5.51-22.33,0l2.09-2.15c4.5,4.4,13.65,4.4,18.14,0A16.05,16.05,0,0,1,648,402.55Z" style="fill: rgb(97, 206, 206);"/><path d="M155.1,379.8a16,16,0,0,1,11.16,4.14c4.5,4.39,13.65,4.39,18.14,0,5.63-5.52,16.69-5.51,22.33,0l-2.1,2.14c-4.49-4.39-13.64-4.39-18.13,0-5.64,5.51-16.7,5.51-22.33,0-4.49-4.39-13.65-4.39-18.14,0-5.63,5.51-16.69,5.51-22.32,0l2.09-2.14c4.49,4.39,13.65,4.39,18.14,0A16,16,0,0,1,155.1,379.8Z" style="fill: rgb(97, 206, 206);"/><path d="M155.1,402.55a16,16,0,0,1,11.16,4.13c4.5,4.4,13.65,4.4,18.14,0,5.63-5.51,16.69-5.51,22.33,0l-2.1,2.15c-4.49-4.39-13.64-4.39-18.13,0-5.64,5.51-16.7,5.51-22.33,0-4.49-4.39-13.65-4.39-18.14,0-5.63,5.51-16.69,5.51-22.32,0l2.09-2.15c4.49,4.4,13.65,4.4,18.14,0A16,16,0,0,1,155.1,402.55Z" style="fill: rgb(97, 206, 206);"/><path d="M412.83,281.09A112.48,112.48,0,1,0,525.31,393.57,112.48,112.48,0,0,0,412.83,281.09ZM401.07,432.42l-29.65-27.15,5.88-6.42,23.15,21.2,54.43-61,6.5,5.79Z" style="fill: rgb(97, 206, 206);"/><path d="M412.83,262.76A130.81,130.81,0,1,0,543.64,393.57,130.81,130.81,0,0,0,412.83,262.76Zm0,243.29A112.48,112.48,0,1,1,525.31,393.57,112.48,112.48,0,0,1,412.83,506.05Z" style="fill: rgb(97, 206, 206);"/></g><g id="Foreground"><g style="opacity:0.4"><path d="M412.83,262.76A130.81,130.81,0,1,0,543.64,393.57,130.81,130.81,0,0,0,412.83,262.76Zm0,243.29A112.48,112.48,0,1,1,525.31,393.57,112.48,112.48,0,0,1,412.83,506.05Z" style="fill:#fff"/></g><path d="M425.67,234.07l7.83,6.51a20.09,20.09,0,0,0,18.78,3.74l9.73-3a20.1,20.1,0,0,1,23.72,9.82l4.75,9a20,20,0,0,0,15.92,10.63l10.14.94a20.09,20.09,0,0,1,18.15,18.15l.94,10.14a20.06,20.06,0,0,0,10.64,15.92l9,4.75a20.09,20.09,0,0,1,9.82,23.72l-3,9.73a20.06,20.06,0,0,0,3.73,18.78l6.51,7.83a20.09,20.09,0,0,1,0,25.67l-6.51,7.84A20.06,20.06,0,0,0,562.09,433l3,9.73a20.08,20.08,0,0,1-9.82,23.71l-9,4.75a20.06,20.06,0,0,0-10.64,15.92l-.94,10.14a20.09,20.09,0,0,1-18.15,18.15l-10.14.94A20.08,20.08,0,0,0,490.48,527l-4.75,9A20.08,20.08,0,0,1,462,545.83l-9.73-3a20.09,20.09,0,0,0-18.78,3.73l-7.83,6.51a20.09,20.09,0,0,1-25.67,0l-7.84-6.51a20.08,20.08,0,0,0-18.78-3.73l-9.73,3A20.07,20.07,0,0,1,339.94,536l-4.75-9a20.08,20.08,0,0,0-15.92-10.64l-10.14-.94A20.09,20.09,0,0,1,291,497.27L290,487.13a20.08,20.08,0,0,0-10.64-15.92l-9-4.75a20.07,20.07,0,0,1-9.82-23.71l3-9.73a20.08,20.08,0,0,0-3.73-18.78l-6.51-7.84a20.09,20.09,0,0,1,0-25.67l6.51-7.83a20.09,20.09,0,0,0,3.73-18.78l-3-9.73a20.08,20.08,0,0,1,9.82-23.72l9-4.75A20.08,20.08,0,0,0,290,300l.94-10.14a20.09,20.09,0,0,1,18.15-18.15l10.14-.94a20,20,0,0,0,15.92-10.63l4.75-9a20.09,20.09,0,0,1,23.71-9.82l9.73,3a20.09,20.09,0,0,0,18.78-3.74l7.84-6.51A20.09,20.09,0,0,1,425.67,234.07Z" style="fill:none;stroke:#141719;stroke-miterlimit:10;stroke-width:3px"/></g></svg>