<svg xmlns="http://www.w3.org/2000/svg" viewBox="0 0 1000 1000"><circle cx="505.13628" cy="818.16949" r="11.56352" style="fill:#87189d"/><circle cx="551.39035" cy="818.16949" r="11.56352" style="fill:#87189d"/><circle cx="597.64442" cy="818.16949" r="11.56352" style="fill:#87189d"/><circle cx="643.89849" cy="818.16949" r="11.56352" style="fill:#87189d"/><circle cx="690.15256" cy="818.16949" r="11.56352" style="fill:#87189d"/><circle cx="736.40663" cy="818.16949" r="11.56352" style="fill:#87189d"/><circle cx="782.6607" cy="818.16949" r="11.56352" style="fill:#87189d"/><circle cx="828.91477" cy="818.16949" r="11.56352" style="fill:#87189d"/><circle cx="828.91477" cy="771.91542" r="11.56352" style="fill:#87189d"/><circle cx="828.91477" cy="725.66135" r="11.56352" style="fill:#87189d"/><circle cx="828.91477" cy="679.40728" r="11.56352" style="fill:#87189d"/><circle cx="828.91477" cy="633.15321" r="11.56352" style="fill:#87189d"/><circle cx="828.91477" cy="586.89914" r="11.56352" style="fill:#87189d"/><circle cx="828.91477" cy="540.64507" r="11.56352" style="fill:#87189d"/><circle cx="828.91477" cy="496.84793" r="11.56352" style="fill:#87189d"/><circle cx="197.4906" cy="178.18285" r="11.56352" style="fill:#87189d"/><circle cx="243.74467" cy="178.18285" r="11.56352" style="fill:#87189d"/><circle cx="289.99874" cy="178.18285" r="11.56352" style="fill:#87189d"/><circle cx="336.25281" cy="178.18285" r="11.56352" style="fill:#87189d"/><circle cx="382.50688" cy="178.18285" r="11.56352" style="fill:#87189d"/><circle cx="428.76095" cy="178.18285" r="11.56352" style="fill:#87189d"/><circle cx="474.54887" cy="178.18285" r="11.56352" style="fill:#87189d"/><circle cx="197.4906" cy="455.70727" r="11.56352" style="fill:#87189d"/><circle cx="197.4906" cy="409.4532" r="11.56352" style="fill:#87189d"/><circle cx="197.4906" cy="363.19913" r="11.56352" style="fill:#87189d"/><circle cx="197.4906" cy="316.94506" r="11.56352" style="fill:#87189d"/><circle cx="197.4906" cy="270.69099" r="11.56352" style="fill:#87189d"/><circle cx="197.4906" cy="224.43692" r="11.56352" style="fill:#87189d"/><rect x="70.47029" y="561.74019" width="369.67579" height="268.58696" rx="56.78479" style="fill:#5a5c65"/><path d="M127.25508,561.74019H383.36129A56.78479,56.78479,0,0,1,440.14608,618.525v95.8469a32.38459,32.38459,0,0,1-32.38459,32.38459H102.85488a32.38459,32.38459,0,0,1-32.38459-32.38459V618.525A56.78479,56.78479,0,0,1,127.25508,561.74019Z" style="fill:#31333f"/><path d="M219.22419,561.74019v-10.7335a22.51927,22.51927,0,0,1,22.51927-22.51927h27.12945a22.51927,22.51927,0,0,1,22.51927,22.51927v10.7335" style="fill:none;stroke:#31333f;stroke-miterlimit:10;stroke-width:20px"/><path d="M228.14877,751.23971V733.50516c0-2.17487,2.3337-3.938,5.21247-3.938h43.89389c2.87877,0,5.21247,1.76308,5.21247,3.938v17.73455c0,2.55659-2.7433,4.62911-6.12733,4.62911H234.2761C230.89207,755.86882,228.14877,753.7963,228.14877,751.23971Z" style="fill:none;stroke:#c09b57;stroke-miterlimit:10;stroke-width:20px"/><path d="M518.82473,259.12748H886.88217a0,0,0,0,1,0,0V417.01164a29.98265,29.98265,0,0,1-29.98265,29.98265H548.80738a29.98265,29.98265,0,0,1-29.98265-29.98265V259.12748A0,0,0,0,1,518.82473,259.12748Z" style="fill:#80d8d4"/><path d="M600.17481,128.801,478.11357,247.98692a6.38269,6.38269,0,0,0,4.45914,10.9494H726.69518a6.38269,6.38269,0,0,0,4.45914-10.9494L609.09308,128.801A6.38268,6.38268,0,0,0,600.17481,128.801Z" style="fill:#31333f"/><path d="M737.90874,71.47883,557.14243,247.98692a6.38269,6.38269,0,0,0,4.45914,10.9494H923.13419a6.38269,6.38269,0,0,0,4.45914-10.9494L746.827,71.47883A6.38271,6.38271,0,0,0,737.90874,71.47883Z" style="fill:#31333f"/><path d="M761.65856,328.50858h.00008a40.47227,40.47227,0,0,1,40.47227,40.47227v78.01344a0,0,0,0,1,0,0H721.18629a0,0,0,0,1,0,0V368.98085a40.47227,40.47227,0,0,1,40.47227-40.47227Z" style="fill:#2c4d92"/><rect x="576.64232" y="328.50858" width="104.07166" height="59.24285" rx="10.73656" style="fill:#fff"/></svg>