<svg xmlns="http://www.w3.org/2000/svg" xmlns:xlink="http://www.w3.org/1999/xlink" viewBox="0 0 1000 1000"><defs><clipPath id="a"><path d="M692.07805,244.92317V192.26423c21.95943-.32841,17.67662-38.38135-4.38825-26.76829-3.94942,1.75529-14.04238-3.07178-10.53179-14.92-23.69652,17.553-56.71754-13.25329-58.80248,5.70472-4.10318,37.30963,3.8358,67.9753,24.88819,67.97749a34.54108,34.54108,0,0,0,6.70718-.39852v21.06358q10.3078,6.14353,20.61564,6.14354T692.07805,244.92317Z" style="fill:#e9bda0;clip-rule:evenodd"/></clipPath><clipPath id="b"><path d="M649.97138,223.92349v6.6307q18.64882,0,29.00929-17.82A74.90574,74.90574,0,0,1,649.97138,223.92349Z" style="fill:#cb9180;clip-rule:evenodd"/></clipPath></defs><path d="M809.736,892.48728c0-5.46994-162.42976-9.90429-362.79688-9.90429s-362.79687,4.43435-362.79687,9.90429c0,5.4701,162.42974,9.90444,362.79687,9.90444S809.736,897.95738,809.736,892.48728Z" style="fill:#1c1c27;opacity:0.2"/><g style="isolation:isolate"><path d="M600.31973,313.11171l140.8346-6.61192a8.94783,8.94783,0,0,0,7.71123-7.65333c4.94132-34.34089-9.19337-155.44623-30.66425-165.9246a9.22818,9.22818,0,0,1-4.58428-4.99093c-13.4787-34.78616-56.79276-31.62942-69.34454-28.55263-42.18449,10.34046-76.01623,52.214-56.07018,117.14765C600.31973,255.97379,595.26088,313.73756,600.31973,313.11171Z" style="fill:#c09b57"/></g><path d="M934.29122,327.08147c-3.35943-9.42094-17.95722-4.59813-29.92869,4.93471-7.82453,6.23064-26.21532,2.71575-33.365,6.20743-8.98757,4.38928,10.475,24.608,30.94258,21.8297C914.58448,358.33692,937.651,336.50211,934.29122,327.08147Z" style="fill:#e9bda0"/><path d="M762.17806,305.04575c4.4956,7.18164,9.10058,14.28076,13.647,21.42432l13.8252,21.28955c4.584,7.11523,9.2998,14.13086,13.94336,21.20068l13.98925,21.16651-20.32666-2.86475L815.76839,375.245c6.16406-4.01514,12.3623-7.98389,18.478-12.06348l18.395-12.17285c6.0874-4.1167,12.21631-8.17822,18.26611-12.34424a9.10694,9.10694,0,0,1,10.9375,14.54444c-5.68164,4.65625-11.28467,9.4165-16.9292,14.12256l-16.80029,14.29345c-5.61621,4.74317-11.1499,9.59619-16.71778,14.40381l-16.6831,14.44971a13.50126,13.50126,0,0,1-19.04395-1.36621l-.05127-.05957-1.23193-1.43946L777.889,388.33872c-5.519-6.41016-10.96534-12.875-16.54395-19.23975l-16.6626-19.15136c-5.61621-6.33692-11.17383-12.71778-16.84033-19.0166A21.5809,21.5809,0,0,1,759.929,302.06284,23.18349,23.18349,0,0,1,762.17806,305.04575Z" style="fill:#edbc9f"/><path d="M415.73674,327.08147c3.35943-9.42094,17.95722-4.59813,29.9287,4.93471,7.82452,6.23064,26.21531,2.71575,33.365,6.20743,8.98756,4.38928-10.47505,24.608-30.94259,21.8297C435.44348,358.33692,412.377,336.50211,415.73674,327.08147Z" style="fill:#e9bda0"/><path d="M622.18587,330.931c-5.667,6.29882-11.22412,12.67968-16.84033,19.0166L588.68294,369.099c-5.57861,6.36475-11.0249,12.82959-16.54443,19.23975l-16.49805,19.27441-1.23193,1.439a13.50066,13.50066,0,0,1-19.03565,1.47754l-.05957-.05127-16.6831-14.44971c-5.56787-4.80762-11.10157-9.66064-16.71778-14.40381L485.11214,367.3314c-5.64453-4.70606-11.24756-9.46631-16.9292-14.12256a9.10694,9.10694,0,0,1,10.9375-14.54444c6.04981,4.166,12.17871,8.22754,18.26611,12.34424l18.395,12.17285c6.11573,4.07959,12.314,8.04834,18.478,12.06348l18.51221,12.01709-20.32666,2.86475,13.98926-21.16651c4.64355-7.06982,9.35937-14.08545,13.94335-21.20068l13.8252-21.28955c4.54639-7.14356,9.15137-14.24268,13.647-21.42432a21.58111,21.58111,0,1,1,36.585,22.90234A23.13824,23.13824,0,0,1,622.18587,330.931Z" style="fill:#edbc9f"/><path d="M541.217,780.45719l-13.90385,56.87215-20.1013,39.70382s22.55292,4.91153,32.35811-13.71915c9.80561-18.63024,7.35443-27.45529,7.35443-27.45529l21.24913-55.40153Z" style="fill:#e9bda0"/><path d="M509.51229,872.4893s-17.27157,9.384-19.73974,19.99806h42.45688l8.39293-16.53843,5.67733,16.53843h5.74093s5.382-42.90688-5.11626-56.62864Z" style="fill:#00b2a9"/><path d="M701.95941,780.45719,694.723,837.32934l19.82947,39.70382s-22.24758,4.91153-31.92031-13.71915c-9.67319-18.63024-7.25467-27.45529-7.25467-27.45529l-.00959-55.40153Z" style="fill:#e9bda0"/><path d="M712.252,872.4893s17.27113,9.384,19.73974,19.99806H689.53443L681.142,875.94893l-5.67732,16.53843h-5.74093s-5.382-42.90688,5.11626-56.62864Z" style="fill:#00b2a9"/><path d="M728.88892,397.34241s30.44315,26.25475,28.53256,97.79351c-1.91059,71.53832-45.8564,296.57443-45.8564,296.57443H663.69615L665.784,501.711,576.86177,791.71035h-49.536l48.58075-251.09178s21.64906-119.773,42.59019-143.27616Z" style="fill:#202028"/><polygon points="664.185 761.431 716.776 761.366 716.776 760.083 664.185 760.148 664.185 761.431"/><rect x="559.11034" y="735.38157" width="1.28238" height="51.32522" transform="translate(-208.51596 1310.83968) rotate(-89.254)"/><path d="M697.49727,761.232c18.91351-90.35009,39.95914-215.37328,32.80479-297.89784-4.29928-49.57785-16.64783-60.1783-17.17042-60.60573l-.81311.99343c.12522.10352,12.55892,10.93938,16.753,60.26345,3.86518,45.47892,1.30731,133.92063-32.82984,296.98289Z"/><rect x="665.14327" y="397.89321" width="1.28227" height="103.81729"/><path d="M666.0215,478.16711l.14358-1.28227A18.37878,18.37878,0,0,1,647.694,458.55737V397.89321h-1.28227v60.66416A19.63241,19.63241,0,0,0,666.0215,478.16711Z"/><g style="isolation:isolate"><path d="M692.07805,244.92317V192.26423c21.95943-.32841,17.67662-38.38135-4.38825-26.76829-3.94942,1.75529-14.04238-3.07178-10.53179-14.92-23.69652,17.553-56.71754-13.25329-58.80248,5.70472-4.10318,37.30963,3.8358,67.9753,24.88819,67.97749a34.54108,34.54108,0,0,0,6.70718-.39852v21.06358q10.3078,6.14353,20.61564,6.14354T692.07805,244.92317Z" style="fill:#e9bda0;fill-rule:evenodd"/><g style="clip-path:url(#a)"><rect x="616.60024" y="149.25943" width="90.39784" height="101.80728" style="fill:#e9bda0"/></g></g><g style="isolation:isolate"><path d="M649.97138,223.92349v6.6307q18.64882,0,29.00929-17.82A74.90574,74.90574,0,0,1,649.97138,223.92349Z" style="fill:#cb9180;fill-rule:evenodd"/><g style="clip-path:url(#b)"><rect x="649.97138" y="214.22681" width="25.97538" height="16.32738" style="fill:#cb9180"/></g></g><path d="M602.42238,282.57138c2.69279-4.37366,20.28157-26.54083,45.85674-36.78663q.97629-6.33238,3.575-6.84339c2.59868-.511,17.20406-.60434,17.21735,1.81327.00266.44348.43311,5.2,2.10866,5.2,1.67529,0,2.17833-4.75626,2.181-5.2.01329-2.41761,14.70375-2.35274,17.21735-1.81327q2.51371.53959,3.5856,6.83541c25.5999,10.25325,48.09515,25.69082,50.78662,30.06236.66735,1.08371-4.34389,2.207-12.79689,3.27586.35707.63279.7628,1.2326,1.085,1.888l-4.35,116.33947H618.49673l-4.02271-112.819C606.45944,284.24507,601.77417,283.624,602.42238,282.57138Z" style="fill:#004c97;fill-rule:evenodd"/><path d="M683.44058,254.133s72.46353-2.21012,92.57322,58.58876a3.15408,3.15408,0,0,1-2.395,4.04183l-48.51,9.60724Z" style="fill:#004c97"/><path d="M660.05687,254.133s-72.46354-2.21012-92.57322,58.58876a3.15407,3.15407,0,0,0,2.395,4.04183l48.51,9.60724Z" style="fill:#004c97"/><path d="M472.595,657.41291H82.66253a17.30317,17.30317,0,0,1-17.28427-17.28426V579.5462a17.30318,17.30318,0,0,1,17.28427-17.28427H472.595a17.30317,17.30317,0,0,1,17.28426,17.28427v60.58245A17.30316,17.30316,0,0,1,472.595,657.41291Zm-389.93247-91.31A13.458,13.458,0,0,0,69.21921,579.5462v60.58245A13.458,13.458,0,0,0,82.66253,653.572H472.595a13.458,13.458,0,0,0,13.44332-13.44332V579.5462A13.458,13.458,0,0,0,472.595,566.10288Z" style="fill:#2c4d92"/><path d="M121.15578,608.29955l8.58712,5.01-3.17954,5.56512-8.19077-4.76992v8.98471h-7.23428v-8.98471l-8.18952,4.76992L99.768,613.30953l8.58712-5.01L99.768,603.37083l3.18079-5.64639,8.18952,4.77117v-8.90594h7.23428v8.90594l8.19077-4.77117,3.17954,5.64639Z" style="fill:#2c4d92"/><path d="M162.02336,608.29955l8.58712,5.01-3.18078,5.56512-8.18952-4.76992v8.98471h-7.23679v-8.98471l-8.18952,4.76992-3.17954-5.56512,8.58712-5.01-8.58712-4.92872,3.17954-5.64639,8.18952,4.77117v-8.90594h7.23679v8.90594l8.18952-4.77117,3.18078,5.64639Z" style="fill:#2c4d92"/><path d="M202.88845,608.29955l8.58712,5.01-3.17954,5.56512-8.19077-4.76992v8.98471H192.871v-8.98471l-8.18952,4.76992-3.18078-5.56512,8.58712-5.01-8.58712-4.92872,3.18078-5.64639,8.18952,4.77117v-8.90594h7.23429v8.90594l8.19077-4.77117,3.17954,5.64639Z" style="fill:#2c4d92"/><path d="M243.756,608.29955l8.58712,5.01-3.18078,5.56512-8.18953-4.76992v8.98471h-7.23678v-8.98471l-8.18952,4.76992-3.17954-5.56512,8.58712-5.01-8.58712-4.92872,3.17954-5.64639,8.18952,4.77117v-8.90594h7.23678v8.90594l8.18953-4.77117,3.18078,5.64639Z" style="fill:#2c4d92"/><path d="M284.62112,608.29955l8.58711,5.01-3.18078,5.56512-8.18952-4.76992v8.98471h-7.23429v-8.98471l-8.18952,4.76992-3.18078-5.56512,8.58712-5.01-8.58712-4.92872,3.18078-5.64639,8.18952,4.77117v-8.90594h7.23429v8.90594l8.18952-4.77117,3.18078,5.64639Z" style="fill:#2c4d92"/><path d="M325.4887,608.29955l8.58712,5.01-3.18079,5.56512-8.18952-4.76992v8.98471h-7.23428v-8.98471l-8.18952,4.76992-3.18079-5.56512,8.58712-5.01-8.58712-4.92872,3.18079-5.64639,8.18952,4.77117v-8.90594h7.23428v8.90594l8.18952-4.77117,3.18079,5.64639Z" style="fill:#2c4d92"/><circle cx="423.07945" cy="545.73455" r="78.34752" style="fill:#bf2f32"/><circle cx="423.07945" cy="579.43497" r="11.64961" style="fill:#fff"/><path d="M430.18126,557.12992H415.97765a2.28754,2.28754,0,0,1-2.28169-2.124l-3.64415-50.84081a2.28753,2.28753,0,0,1,2.28168-2.45109h21.49192a2.28753,2.28753,0,0,1,2.28168,2.45109l-3.64415,50.84081A2.28753,2.28753,0,0,1,430.18126,557.12992Z" style="fill:#fff"/></svg>