<svg xmlns="http://www.w3.org/2000/svg" xmlns:xlink="http://www.w3.org/1999/xlink" viewBox="0 0 1000 1000"><defs><clipPath id="a"><path d="M138.9038,134.04123l1.19564,479.43888C157.07,827.25781,450.02986,913.77543,450.02986,913.77543h.80524S743.795,827.25781,760.76552,613.48011l3.98018-479.43888Z" style="fill:none"/></clipPath><clipPath id="b"><path d="M401.38643,433.17209V337.74268c39.79526-.59515,32.03388-69.55532-7.95245-48.51-7.15721,3.181-25.44784-5.56671-19.08588-27.03833-42.94324,31.8098-102.78449-24.01784-106.56284,10.33819-7.43586,67.61313,6.9513,123.186,45.10278,123.18994a62.59513,62.59513,0,0,0,12.15486-.72221v38.17177q18.68,11.13342,37.36,11.13343T401.38643,433.17209Z" style="fill:#e9bda0;clip-rule:evenodd"/></clipPath><clipPath id="c"><path d="M325.08,395.11612v12.01626q33.79572,0,52.57112-32.29369Q355.12066,389.859,325.08,395.11612Z" style="fill:#cb9180;clip-rule:evenodd"/></clipPath></defs><g style="clip-path:url(#a)"><path d="M448.34709,202.36221h-326.961l1.25357,427.12905C140.43255,843.269,447.5878,929.78658,447.5878,929.78658h.84427S755.58732,843.269,773.38017,629.49126l4.173-427.129Z" style="fill:#fff;opacity:0.5"/><g style="isolation:isolate"><path d="M244.24613,534.94013,485.43066,523.617a15.32348,15.32348,0,0,0,13.20577-13.10662c8.4622-58.81-15.744-266.20749-52.51367-284.15208a15.80355,15.80355,0,0,1-7.85075-8.54716c-23.08278-59.5726-97.25973-54.16657-118.75512-48.89745C247.27437,186.6221,189.33625,258.332,223.4946,369.5334,244.24613,437.08931,235.58267,536.01191,244.24613,534.94013Z" style="fill:#c09b57"/></g><path d="M215.50492,886.611s-46.07465-1.0823-46.13307,39.52876c-.05842,40.61028,29.63651,66.782,29.63651,66.782Z" style="fill:#e9bda0"/><path d="M259.816,478.71s-32.72631,22.54118-44.25267,175.66708c-11.52557,153.1259-37.15576,278.967-34.93511,279.43906,2.22065.47128,73.9989,8.25026,73.9989,8.25026l35.08116-240.58368Z" style="fill:#e9bda0"/><path d="M307.55871,445.784s-67.373,20.1107-96.17335,113.35667A7.70664,7.70664,0,0,0,218.41,569.2l49.631,1.70512Z" style="fill:#004c97"/><path d="M468.09571,709.3888s55.1696,47.5793,51.70719,177.223c-3.46241,129.64294-83.10174,537.45713-83.10174,537.45713H349.95229l3.7837-525.54158L192.58956,1424.069H102.81951l88.03885-455.03272S230.09115,751.98165,268.041,709.3888Z" style="fill:#202028"/><path d="M411.20724,1368.83562c34.27538-163.734,72.41461-390.30308,59.44939-539.85547-7.79123-89.8458-30.16948-109.05611-31.11653-109.8307l-1.47352,1.80031c.22692.18759,22.75948,19.82453,30.36009,109.21043,7.00455,82.41765,2.36915,242.6932-59.49478,538.19736Z"/><rect x="352.57478" y="710.38696" width="2.32375" height="188.13943"/><path d="M354.16632,855.86067l.26021-2.32375A33.30633,33.30633,0,0,1,320.953,820.32356V710.387H318.6292v109.9366A35.5782,35.5782,0,0,0,354.16632,855.86067Z"/><g style="isolation:isolate"><path d="M401.38643,433.17209V337.74268c39.79526-.59515,32.03388-69.55532-7.95245-48.51-7.15721,3.181-25.44784-5.56671-19.08588-27.03833-42.94324,31.8098-102.78449-24.01784-106.56284,10.33819-7.43586,67.61313,6.9513,123.186,45.10278,123.18994a62.59513,62.59513,0,0,0,12.15486-.72221v38.17177q18.68,11.13342,37.36,11.13343T401.38643,433.17209Z" style="fill:#e9bda0;fill-rule:evenodd"/><g style="clip-path:url(#b)"><rect x="264.60428" y="259.80867" width="163.82048" height="184.49685" style="fill:#e9bda0"/></g></g><g style="isolation:isolate"><path d="M325.08,395.11612v12.01626q33.79572,0,52.57112-32.29369Q355.12066,389.859,325.08,395.11612Z" style="fill:#cb9180;fill-rule:evenodd"/><g style="clip-path:url(#c)"><rect x="325.08002" y="377.54363" width="47.07301" height="29.58875" style="fill:#cb9180"/></g></g><path d="M238.91093,501.39882c4.87993-7.926,36.75461-48.09774,83.10235-66.66536q1.76927-11.47564,6.47863-12.40171c4.70936-.92607,31.17747-1.09519,31.20156,3.286.00482.80369.7849,9.42354,3.82136,9.42354,3.036,0,3.9476-8.61937,3.95242-9.42354.02409-4.38124,26.64638-4.26367,31.20156-3.286q4.55543.97787,6.4979,12.38725c46.39256,18.58112,87.15884,46.55734,92.03636,54.47952,1.20938,1.96392-7.87207,3.99963-23.19074,5.93657.64709,1.14674,1.38236,2.23374,1.96633,3.42144l-7.88315,210.83233H268.04113l-7.29-204.45248C246.227,504.43191,237.73624,503.30636,238.91093,501.39882Z" style="fill:#004c97;fill-rule:evenodd"/><path d="M484.86807,545.17078l-3.0435,1.23374c-1.03366.4149-2.0556.82754-2.82073,1.19195l-2.50605,1.13237c-.86763.38351-1.67133.75511-2.30068,1.0938l-4.10742,2.09437c-1.30636.68646-2.18911,1.29293-3.30447,1.94327-1.01891.632-2.21445,1.29747-3.08813,1.90223-.80068.591-1.71974,1.20424-2.4236,1.77686l-1.99017,1.69535-1.52572,1.60779c-1.80976,2.10137-2.55485,4.0019-2.39146,5.73129l.80976,5.12765,3.31468,20.49682,3.60326,20.44234,3.88654,20.38884q4.05126,20.35809,8.67815,40.60746c3.10326,13.49605,6.43912,26.94822,9.92248,40.3726l47.21224-33.164q-22.50343-11.117-45.31057-21.71845l-45.75876-20.95672-45.80528-20.87862-22.83589-10.552-11.41832-5.27592a9.58871,9.58871,0,0,0-6.68193-.98657,18.55111,18.55111,0,0,0-4.51816,1.50492,29.54163,29.54163,0,0,0-5.7292,3.56033,3.07519,3.07519,0,0,0-1.118,1.89769,29.5178,29.5178,0,0,0-.33736,6.737,18.53926,18.53926,0,0,0,.87367,4.68136,9.58743,9.58743,0,0,0,4.10137,5.36669l10.149,7.43,20.29768,14.86046,40.463,29.94595,40.50913,29.86785q20.29995,14.85706,40.95807,29.10613a30.55464,30.55464,0,0,0,47.74741-28.68271l-.53517-4.48148c-1.64372-13.77119-3.43457-27.51478-5.4584-41.21431q-3.04255-20.54815-6.70311-40.97944l-3.80409-20.40453L527.791,579.32193,523.415,559.02538l-1.11271-5.07073c-.47731-1.67-1.86309-3.16907-4.3143-4.46711l-2.00605-.94175-2.47088-.85439c-.86423-.277-1.94327-.51362-2.90432-.7725-1.03366-.24528-2.38956-.42966-3.56884-.64732-1.27534-.19951-2.31846-.44308-3.78518-.60647l-4.58775-.45518c-.70953-.08623-1.5938-.13975-2.54123-.181l-2.74622-.14239c-.84531-.06071-1.94743-.07281-3.06128-.083l-3.28366-.04085A5.69621,5.69621,0,0,0,484.86807,545.17078Z" style="fill:#edbc9f"/><path d="M388.27955,439.15441s130.69227,13.43191,152.2134,127.47023a5.71587,5.71587,0,0,1-5.27256,6.68494L445.77794,578.917Z" style="fill:#004c97"/><path d="M377.28213,608.61728l-8.8234-33.278a38.76541,38.76541,0,0,0-15.584-21.84964L332.62131,539.7l3.15769,57.946Z" style="fill:#edbc9f"/><path d="M292.44112,494.36859h54.19432a1.52065,1.52065,0,0,1,1.52065,1.52065v99.19913a1.52084,1.52084,0,0,1-1.52084,1.52084H292.44087a1.52057,1.52057,0,0,1-1.52057-1.52057V495.88941A1.52082,1.52082,0,0,1,292.44112,494.36859Z" transform="translate(613.873 1104.97956) rotate(-177.38674)" style="fill:#232322"/><path d="M376.32493,606.56615l-29.389-33.65354-51.32748-15.66135a4.10267,4.10267,0,0,0-5.96093,2.06986c-3.69686,12.24868-10.579,45.8552,18.287,62.95883,35.70632,21.15653,56.21795,15.69688,56.21795,15.69688Z" style="fill:#edbc9f"/></g><path d="M797.67629,297.06167H723.5217a5.85432,5.85432,0,0,0-5.85435,5.85436h0a5.85432,5.85432,0,0,0,5.85435,5.85437h74.15459a5.85435,5.85435,0,0,0,5.85438-5.85437h0A5.85434,5.85434,0,0,0,797.67629,297.06167Z" style="fill:#aaa"/><path d="M814.90526,225.07706l.48458,95.66a52.77648,52.77648,0,0,1-52.71745,52.71745h-3.24424A52.77682,52.77682,0,0,1,706.7107,320.737V229.90062a52.77665,52.77665,0,0,1,52.71745-52.71745h3.24424c26.67924,0,48.77713,22.14583,52.23287,47.89389h21.22745c-3.55988-37.40278-35.141-68.98087-73.46032-68.98087h-3.24424a73.88776,73.88776,0,0,0-73.80443,73.80443V320.737a73.88794,73.88794,0,0,0,73.80443,73.80443h3.24424a73.888,73.888,0,0,0,73.8047-73.80443l-.34438-95.66Z" style="fill:#2f2f2f"/><path d="M672.227,251.87688H849.8737a11.2225,11.2225,0,0,1,11.2225,11.2225V408.19455a11.2224,11.2224,0,0,1-11.2224,11.2224H672.22694a11.2224,11.2224,0,0,1-11.2224-11.2224V263.09938A11.2225,11.2225,0,0,1,672.227,251.87688Z" style="fill:#bf2f32"/><path d="M848.80414,251.87688H761.1439V419.417h87.66051a12.32793,12.32793,0,0,0,12.29179-12.2918V264.16894A12.3282,12.3282,0,0,0,848.80414,251.87688Z" style="fill:#fff;opacity:0.2"/><path d="M785.2444,322.5518a24.194,24.194,0,1,0-33.00095,22.51625v18.95886a8.80684,8.80684,0,1,0,17.61368,0V345.06805A24.1832,24.1832,0,0,0,785.2444,322.5518Z" style="fill:#2f2f2f"/><path d="M766.40556,91.81053l0,25.364a5.36,5.36,0,1,1-10.7104,0v-25.364a5.36,5.36,0,1,1,10.71039,0Z" style="fill:#bf2f32"/><path d="M812.87644,111.72553l-17.93509,17.93508a5.36,5.36,0,1,1-7.57339-7.57339L805.303,104.15213a5.36,5.36,0,1,1,7.5734,7.5734Z" style="fill:#bf2f32"/><path d="M733.99153,130.945a5.47434,5.47434,0,0,1-7.73634.16311L709.06111,113.914a5.59082,5.59082,0,0,1,7.8996-7.8996l17.19409,17.19408A5.47426,5.47426,0,0,1,733.99153,130.945Z" style="fill:#bf2f32"/></svg>