<svg xmlns="http://www.w3.org/2000/svg" viewBox="0 0 1000 1000"><circle cx="500" cy="500" r="444.85826" style="fill:#e79c2f"/><path d="M312.64066,531.55971a40.64333,40.64333,0,0,0-32.10329,42.41189c1.43887,21.5228,20.23287,37.77959,41.777,37.77959H428.48l3.61433.1206-3.969,78.57881c0,63.0988,30.35468,77.16949,65.80157,82.173a7.41324,7.41324,0,0,0,8.61432-7.5467v-74.475a28.01857,28.01857,0,0,1,5.92457-17.244l85.48706-113.41326,98.81171,3.34594V351.47587H578.32623c-22.07376-20.77676-58.51734-34.63937-84.60742-34.63937h-136.615c-18.73019,0-34.06359,16.50271-34.06359,36.67177a37.32,37.32,0,0,0,16.816,31.54408h-2.17072c-18.36249,0-34.741,13.022-37.43436,31.2083a36.69579,36.69579,0,0,0,15.23527,35.506,40.513,40.513,0,0,0-2.84582,79.793Z" style="fill:#fff"/></svg>