<svg xmlns="http://www.w3.org/2000/svg" viewBox="0 0 1000 1000"><path d="M467.09208,169.89342,107.85645,792.10779c-14.62574,25.33253,3.65643,56.99818,32.90792,56.99818H859.23563c29.25149,0,47.53366-31.66565,32.90792-56.99818L532.90792,169.89342C518.28218,144.56089,481.71782,144.56089,467.09208,169.89342Z" style="fill:#bf2f32"/><circle cx="500" cy="683.76517" r="40.24591" style="fill:#fff"/><path d="M524.5346,606.70791H475.4654a7.90277,7.90277,0,0,1-7.88254-7.33776L454.99341,423.73041a7.90277,7.90277,0,0,1,7.88254-8.46777h74.2481a7.90277,7.90277,0,0,1,7.88254,8.46777L532.41714,599.37015A7.90277,7.90277,0,0,1,524.5346,606.70791Z" style="fill:#fff"/></svg>