<svg xmlns="http://www.w3.org/2000/svg" xmlns:xlink="http://www.w3.org/1999/xlink" viewBox="0 0 1000 1000"><defs><clipPath id="a"><rect x="200.86544" y="348.49922" width="598.26909" height="369.14491" rx="12.04707" style="fill:#31333f"/></clipPath></defs><path d="M979.18019,809.926c0-9.21728-214.53637-16.68948-479.18019-16.68948S20.81981,800.70869,20.81981,809.926c0,9.21752,214.53634,16.68973,479.18019,16.68973S979.18019,819.14349,979.18019,809.926Z" style="fill:#2c4d92;opacity:0.1"/><path d="M197.81108,295.30521H802.18889a22.2954,22.2954,0,0,1,22.2954,22.2954V743.89068a0,0,0,0,1,0,0H175.51568a0,0,0,0,1,0,0V317.60061A22.2954,22.2954,0,0,1,197.81108,295.30521Z" style="fill:#31333f"/><path d="M887.67327,743.89068H112.32671A66.03533,66.03533,0,0,0,178.362,809.926H821.638a66.03534,66.03534,0,0,0,66.03529-66.03529Z" style="fill:#fff"/><path d="M113.9822,758.5591A66.04555,66.04555,0,0,0,178.362,809.926H821.638a66.04555,66.04555,0,0,0,64.3798-51.36687Z" style="fill:#7e7e7e"/><path d="M887.67327,743.89068v-.00025H112.32671v.00025a66.18086,66.18086,0,0,0,1.65549,14.66842H886.01778A66.18145,66.18145,0,0,0,887.67327,743.89068Z" style="fill:#fff"/><polyline points="421.807 743.89 432.717 758.559 567.283 758.559 578.193 743.89" style="fill:#aaa"/><rect x="200.86544" y="348.49922" width="598.26909" height="369.14491" rx="12.04707" style="fill:#7e7e7e"/><path d="M534.5505,316.6764h-69.101a5.45536,5.45536,0,0,0-5.45539,5.45539h0a5.45536,5.45536,0,0,0,5.45539,5.4554h69.101a5.45538,5.45538,0,0,0,5.45542-5.4554h0A5.45538,5.45538,0,0,0,534.5505,316.6764Z" style="fill:#aaa"/><g style="opacity:0.5"><rect x="200.86544" y="348.49922" width="598.26909" height="369.14491" rx="12.04707" style="fill:#31333f"/><g style="clip-path:url(#a)"><path d="M507.22358,311.3676a5.65246,5.65246,0,1,1-5.65235-5.65215A5.6524,5.6524,0,0,1,507.22358,311.3676Z" style="fill:#7f7f7f;opacity:0.46"/></g></g><path d="M769.84154,663.57557H231.0248V277.0495c0-20.91989,17.68924-37.87891,39.51011-37.87891H730.33143c21.82087,0,39.51011,16.959,39.51011,37.87891Z" style="fill:#d7d7d4"/><rect x="230.93701" y="313.13792" width="538.81673" height="330.39805" style="fill:#fff"/><ellipse cx="276.28635" cy="278.13174" rx="15.47492" ry="14.83592" style="fill:#cc4447"/><path d="M330.97093,278.13174c0,8.19356-6.92832,14.83592-15.475,14.83592-8.54622,0-15.47454-6.64236-15.47454-14.83592s6.92832-14.83591,15.47454-14.83591C324.04261,263.29583,330.97093,269.93819,330.97093,278.13174Z" style="fill:#e79c2f"/><path d="M370.18071,278.13174c0,8.19356-6.9281,14.83592-15.47454,14.83592-8.54665,0-15.475-6.64236-15.475-14.83592s6.92832-14.83591,15.475-14.83591C363.25261,263.29583,370.18071,269.93819,370.18071,278.13174Z" style="fill:#00b2a9"/><path d="M732.59571,287.03364H405.116a9.09968,9.09968,0,0,1-9.28524-8.9019h0a9.09968,9.09968,0,0,1,9.28524-8.90189H732.59571a9.09961,9.09961,0,0,1,9.285,8.90189h0A9.09961,9.09961,0,0,1,732.59571,287.03364Z" style="fill:#fff"/><rect x="336.06535" y="449.81817" width="328.56006" height="71.31828" rx="12" style="fill:none;stroke:#2c4d92;stroke-miterlimit:10;stroke-width:3px"/><text transform="translate(359.25229 517.50199)" style="font-size:62.100276947021484px;fill:#2c4d92;font-family:VIC-SemiBold, VIC;font-weight:600;letter-spacing:0.06699880798920586em">*******</text><path d="M779.5467,219.50008a5.308,5.308,0,0,1-3.68028-1.4613,4.84578,4.84578,0,0,1,0-7.05789L794.9719,192.664a5.36619,5.36619,0,0,1,7.36058,0,4.8457,4.8457,0,0,1,0,7.0581L783.227,218.03878A5.30717,5.30717,0,0,1,779.5467,219.50008Z" style="fill:#cc4447"/><path d="M817.23814,245.33847H793.60263a4.99469,4.99469,0,1,1,0-9.9805h23.63551a4.99469,4.99469,0,1,1,0,9.9805Z" style="fill:#cc4447"/><path d="M752.5954,206.02379a5.10127,5.10127,0,0,1-5.20509-4.99014v-22.659a5.20982,5.20982,0,0,1,10.41039,0v22.659A5.10118,5.10118,0,0,1,752.5954,206.02379Z" style="fill:#cc4447"/></svg>