<svg xmlns="http://www.w3.org/2000/svg" viewBox="0 0 1000 1000"><circle cx="500" cy="490.27364" r="399.07401" style="fill:#00b2a9"/><polyline points="205.377 569.912 157.403 877.83 394.699 794.508" style="fill:#00b2a9"/><rect x="332.54656" y="319.57013" width="347.67842" height="341.40702" rx="53.44234" style="fill:#d7d7d4"/><rect x="392.4498" y="378.39284" width="227.87195" height="223.76161" rx="53.44234" style="fill:#aaa"/><rect x="319.77502" y="378.39284" width="25.63268" height="68.58353" rx="10.53155" style="fill:#aaa"/><rect x="319.77502" y="533.57091" width="25.63268" height="68.58353" rx="10.53155" style="fill:#aaa"/><path d="M581.29306,497.38264V475.9355l-24.44343-6.78108a45.25373,45.25373,0,0,0-2.3655-5.83488L566.9424,441.3993l-15.29685-15.29685-22.07794,12.45826a35.90773,35.90773,0,0,0-5.67718-2.36549L517.267,411.75179H495.5045l-6.62337,24.44343c-1.8924.7885-3.94249,1.577-5.67718,2.36549L461.126,426.10245,445.82916,441.3993l12.45826,21.92023a37.65408,37.65408,0,0,0-2.36549,5.83489l-24.44344,6.78108v21.60484l24.44343,6.62338a43.35455,43.35455,0,0,0,2.36549,5.67718l-12.45826,21.92024L461.126,547.058l22.07793-12.45827a35.90679,35.90679,0,0,0,5.67718,2.36549l6.78108,24.44343H517.267l6.62338-24.28572c1.8924-.78849,3.94249-1.577,5.67718-2.36549l22.07794,12.45827,15.29685-15.29685-12.45827-21.92024a43.35375,43.35375,0,0,0,2.36549-5.67718Zm-74.90729,14.82375a25.54733,25.54733,0,1,1,25.54732-25.54732A25.4411,25.4411,0,0,1,506.38577,512.20639Z" style="fill:#7f7f7f"/></svg>