<svg xmlns="http://www.w3.org/2000/svg" viewBox="0 0 1000 1000"><path d="M858.76828,630.16943H119.33364a32.81223,32.81223,0,0,1-32.7764-32.7764V482.50964a32.81224,32.81224,0,0,1,32.7764-32.7764H858.76828a32.81224,32.81224,0,0,1,32.7764,32.7764V597.393A32.81223,32.81223,0,0,1,858.76828,630.16943ZM119.33364,457.01688a25.52064,25.52064,0,0,0-25.49276,25.49276V597.393a25.52064,25.52064,0,0,0,25.49276,25.49276H858.76828A25.52064,25.52064,0,0,0,884.261,597.393V482.50964a25.52064,25.52064,0,0,0-25.49276-25.49276Z" style="fill:#2c4d92"/><path d="M192.329,537.035l16.28388,9.50051-6.0294,10.55323-15.53228-9.04529v17.03785H173.33267V548.04348l-15.52991,9.04529L151.771,546.53554l16.28388-9.50051L151.771,527.68864l6.03177-10.70734,15.52991,9.04765V509.14047h13.71848V526.029l15.53228-9.04765,6.0294,10.70734Z" style="fill:#2c4d92"/><path d="M269.82675,537.035l16.28388,9.50051-6.03177,10.55323L264.549,548.04348v17.03785H250.82573V548.04348l-15.52991,9.04529-6.0294-10.55323L245.5503,537.035l-16.28388-9.34639,6.0294-10.70734,15.52991,9.04765V509.14047H264.549V526.029l15.52991-9.04765,6.03177,10.70734Z" style="fill:#2c4d92"/><path d="M347.3198,537.035l16.28388,9.50051-6.0294,10.55323L342.042,548.04348v17.03785H328.32352V548.04348l-15.5299,9.04529-6.03177-10.55323,16.28388-9.50051-16.28388-9.34639,6.03177-10.70734,15.5299,9.04765V509.14047H342.042V526.029l15.53228-9.04765,6.0294,10.70734Z" style="fill:#2c4d92"/><path d="M424.8176,537.035l16.28388,9.50051-6.03177,10.55323-15.52991-9.04529v17.03785H405.81658V548.04348l-15.52991,9.04529-6.0294-10.55323,16.28388-9.50051-16.28388-9.34639,6.0294-10.70734,15.52991,9.04765V509.14047H419.5398V526.029l15.52991-9.04765,6.03177,10.70734Z" style="fill:#2c4d92"/><path d="M502.31066,537.035l16.28387,9.50051-6.03176,10.55323-15.52991-9.04529v17.03785H483.31438V548.04348l-15.52991,9.04529-6.03177-10.55323,16.28388-9.50051-16.28388-9.34639,6.03177-10.70734,15.52991,9.04765V509.14047h13.71848V526.029l15.52991-9.04765,6.03176,10.70734Z" style="fill:#2c4d92"/><path d="M579.80845,537.035l16.28388,9.50051-6.03177,10.55323-15.5299-9.04529v17.03785H560.81217V548.04348l-15.5299,9.04529-6.03177-10.55323,16.28388-9.50051-16.28388-9.34639,6.03177-10.70734,15.5299,9.04765V509.14047h13.71849V526.029l15.5299-9.04765,6.03177,10.70734Z" style="fill:#2c4d92"/><circle cx="764.87122" cy="418.39211" r="148.57154" style="fill:#bf2f32"/><circle cx="764.87122" cy="482.29872" r="22.09133" style="fill:#fff"/><path d="M778.33848,440.00132H751.404a4.33789,4.33789,0,0,1-4.32679-4.02776l-6.91046-96.41019a4.3379,4.3379,0,0,1,4.32679-4.648h40.75544a4.3379,4.3379,0,0,1,4.32679,4.648l-6.91046,96.41019A4.33789,4.33789,0,0,1,778.33848,440.00132Z" style="fill:#fff"/></svg>