<svg xmlns="http://www.w3.org/2000/svg" xmlns:xlink="http://www.w3.org/1999/xlink" viewBox="0 0 1000 1000"><defs><clipPath id="a"><path d="M212.91276,315.95532H787.08747a12.04707,12.04707,0,0,1,12.04707,12.04707V673.05291a12.04732,12.04732,0,0,1-12.04732,12.04732H212.91276a12.04732,12.04732,0,0,1-12.04732-12.04732V328.00263a12.04732,12.04732,0,0,1,12.04732-12.04732Z" style="fill:#31333f"/></clipPath></defs><path d="M979.18019,777.38207c0-9.21727-214.53637-16.68948-479.18019-16.68948S20.81981,768.1648,20.81981,777.38207c0,9.21753,214.53634,16.68973,479.18019,16.68973S979.18019,786.5996,979.18019,777.38207Z" style="fill:#2c4d92;opacity:0.1"/><path d="M197.81108,262.76131H802.18889a22.2954,22.2954,0,0,1,22.2954,22.2954V711.34679a0,0,0,0,1,0,0H175.51568a0,0,0,0,1,0,0V285.05671A22.2954,22.2954,0,0,1,197.81108,262.76131Z" style="fill:#31333f"/><path d="M887.67327,711.34679H112.32671A66.03533,66.03533,0,0,0,178.362,777.38207H821.638a66.03534,66.03534,0,0,0,66.03529-66.03528Z" style="fill:#fff"/><path d="M113.9822,726.01521A66.04554,66.04554,0,0,0,178.362,777.38207H821.638a66.04554,66.04554,0,0,0,64.3798-51.36686Z" style="fill:#7e7e7e"/><path d="M887.67327,711.34679v-.00025H112.32671v.00025a66.18092,66.18092,0,0,0,1.65549,14.66842H886.01778A66.18152,66.18152,0,0,0,887.67327,711.34679Z" style="fill:#fff"/><polyline points="421.807 711.347 432.717 726.015 567.283 726.015 578.193 711.347" style="fill:#aaa"/><path d="M212.91276,315.95532H787.08747a12.04707,12.04707,0,0,1,12.04707,12.04707V673.05291a12.04732,12.04732,0,0,1-12.04732,12.04732H212.91276a12.04732,12.04732,0,0,1-12.04732-12.04732V328.00263a12.04732,12.04732,0,0,1,12.04732-12.04732Z" style="fill:#7e7e7e"/><path d="M534.5505,284.1325h-69.101a5.45536,5.45536,0,0,0-5.45539,5.4554h0a5.45536,5.45536,0,0,0,5.45539,5.45539h69.101a5.45538,5.45538,0,0,0,5.45542-5.45539h0A5.45538,5.45538,0,0,0,534.5505,284.1325Z" style="fill:#aaa"/><g style="opacity:0.5"><path d="M212.91276,315.95532H787.08747a12.04707,12.04707,0,0,1,12.04707,12.04707V673.05291a12.04732,12.04732,0,0,1-12.04732,12.04732H212.91276a12.04732,12.04732,0,0,1-12.04732-12.04732V328.00263a12.04732,12.04732,0,0,1,12.04732-12.04732Z" style="fill:#31333f"/><g style="clip-path:url(#a)"><path d="M507.22358,278.8237a5.65246,5.65246,0,1,1-5.65235-5.65215A5.6524,5.6524,0,0,1,507.22358,278.8237Z" style="fill:#7f7f7f;opacity:0.46"/></g></g><path d="M769.84154,631.03168H231.0248V244.5056c0-20.91989,17.68924-37.8789,39.51011-37.8789H730.33143c21.82087,0,39.51011,16.959,39.51011,37.8789Z" style="fill:#d7d7d4"/><rect x="230.93701" y="280.59402" width="538.81673" height="330.39805" style="fill:#fff"/><ellipse cx="276.28635" cy="245.58785" rx="15.47492" ry="14.83592" style="fill:#cc4447"/><path d="M330.97093,245.58785c0,8.19355-6.92832,14.83591-15.475,14.83591-8.54622,0-15.47454-6.64236-15.47454-14.83591s6.92832-14.83592,15.47454-14.83592C324.04261,230.75193,330.97093,237.39429,330.97093,245.58785Z" style="fill:#e79c2f"/><path d="M370.18071,245.58785c0,8.19355-6.9281,14.83591-15.47454,14.83591-8.54665,0-15.475-6.64236-15.475-14.83591s6.92832-14.83592,15.475-14.83592C363.25261,230.75193,370.18071,237.39429,370.18071,245.58785Z" style="fill:#00b2a9"/><path d="M732.59571,254.48974H405.116a9.09968,9.09968,0,0,1-9.28524-8.90189h0a9.09968,9.09968,0,0,1,9.28524-8.9019H732.59571a9.09961,9.09961,0,0,1,9.285,8.9019h0A9.09961,9.09961,0,0,1,732.59571,254.48974Z" style="fill:#fff"/><rect x="336.06535" y="417.27428" width="328.56006" height="71.31828" rx="12" style="fill:none;stroke:#2c4d92;stroke-miterlimit:10;stroke-width:3px"/><text transform="translate(359.25243 484.95782)" style="font-size:62.100276947021484px;fill:#2c4d92;font-family:VIC-SemiBold, VIC;font-weight:600;letter-spacing:0.06699880798920586em">*******</text><path d="M779.5467,186.95619a5.308,5.308,0,0,1-3.68028-1.46131,4.84578,4.84578,0,0,1,0-7.05789l19.10548-18.31691a5.36621,5.36621,0,0,1,7.36058,0,4.8457,4.8457,0,0,1,0,7.0581L783.227,185.49488A5.30718,5.30718,0,0,1,779.5467,186.95619Z" style="fill:#cc4447"/><path d="M817.23814,212.79457H793.60263a4.99469,4.99469,0,1,1,0-9.9805h23.63551a4.99469,4.99469,0,1,1,0,9.9805Z" style="fill:#cc4447"/><path d="M752.5954,173.47989a5.10127,5.10127,0,0,1-5.20509-4.99014v-22.659a5.20982,5.20982,0,0,1,10.41039,0v22.659A5.10118,5.10118,0,0,1,752.5954,173.47989Z" style="fill:#cc4447"/><circle cx="741.88073" cy="254.48974" r="148.57154" style="fill:#00b2a9"/><path d="M804.45407,243.94959a13.57385,13.57385,0,0,0,10.72169-14.16452,13.83718,13.83718,0,0,0-13.95246-12.61744H765.76661l-1.20709-.04027,1.32555-26.24336c0-21.07343-10.1377-25.77269-21.97608-27.44374a2.47583,2.47583,0,0,0-2.877,2.5204v24.8728a9.35753,9.35753,0,0,1-1.97865,5.75907l-28.55054,37.87719-33.00065-1.11746v70.74083h38.21955c7.37208,6.93892,19.54333,11.56868,28.25676,11.56868h45.626c6.25541,0,11.37639-5.51149,11.37639-12.24745a12.464,12.464,0,0,0-5.61613-10.53494h.725a12.51953,12.51953,0,0,0,12.50215-10.42279,12.25551,12.25551,0,0,0-5.0882-11.85812,13.53033,13.53033,0,0,0,.95043-26.64888Z" style="fill:#fff"/></svg>