<svg xmlns="http://www.w3.org/2000/svg" xmlns:xlink="http://www.w3.org/1999/xlink" viewBox="0 0 1000 1000"><defs><clipPath id="a"><path d="M202.865,75.61082H892.05537a14.46027,14.46027,0,0,1,14.46027,14.46027V485.39093a14.46057,14.46057,0,0,1-14.46057,14.46057H202.86471a14.46027,14.46027,0,0,1-14.46027-14.46027V90.07139A14.46057,14.46057,0,0,1,202.865,75.61082Z" style="fill:#31333f"/></clipPath></defs><rect x="517.45595" y="526.83138" width="60.00818" height="200.72927" style="fill:#31333f"/><path d="M398.41078,727.71623H696.50929a45.60487,45.60487,0,0,1,45.60487,45.60487v0a0,0,0,0,1,0,0H352.80592a0,0,0,0,1,0,0v0A45.60487,45.60487,0,0,1,398.41078,727.71623Z" style="fill:#31333f"/><path d="M180.27215,46.46386H914.64793a22.2954,22.2954,0,0,1,22.2954,22.2954v475.299a22,22,0,0,1-22,22H179.97675a22,22,0,0,1-22-22V68.75926a22.2954,22.2954,0,0,1,22.2954-22.2954Z" style="fill:#31333f"/><path d="M202.865,75.61082H892.05537a14.46027,14.46027,0,0,1,14.46027,14.46027V485.39093a14.46057,14.46057,0,0,1-14.46057,14.46057H202.86471a14.46027,14.46027,0,0,1-14.46027-14.46027V90.07139A14.46057,14.46057,0,0,1,202.865,75.61082Z" style="fill:#7e7e7e"/><path d="M285.22849,519.88277H197.21364a6.94856,6.94856,0,0,0-6.94859,6.94861h0a6.94856,6.94856,0,0,0,6.94859,6.94861h88.01485a6.94859,6.94859,0,0,0,6.94863-6.94861h0A6.94859,6.94859,0,0,0,285.22849,519.88277Z" style="fill:#aaa"/><g style="opacity:0.5"><path d="M202.865,75.61082H892.05537a14.46027,14.46027,0,0,1,14.46027,14.46027V485.39093a14.46057,14.46057,0,0,1-14.46057,14.46057H202.86471a14.46027,14.46027,0,0,1-14.46027-14.46027V90.07139A14.46057,14.46057,0,0,1,202.865,75.61082Z" style="fill:#31333f"/><g style="clip-path:url(#a)"><path d="M556.13062,31.04119a6.78473,6.78473,0,1,1-6.78459-6.78436A6.78465,6.78465,0,0,1,556.13062,31.04119Z" style="fill:#7f7f7f;opacity:0.46"/></g></g><rect x="345.69553" y="517.98865" width="177.80034" height="183.56265" style="fill:#00b2a9"/><rect x="535.78387" y="517.98865" width="177.80034" height="183.56265" style="fill:#e79c2f"/><rect x="725.87221" y="517.98865" width="177.80034" height="183.56265" style="fill:#d5bbe0"/><text transform="translate(361.10343 572.96786)" style="font-size:30px;font-family:VIC-Bold, VIC;font-weight:700">Pay –<tspan x="0" y="36" style="letter-spacing:-0.008984375em">O</tspan><tspan x="23.25" y="36">scar19</tspan><tspan x="118.23047" y="36" style="letter-spacing:0.009993489583333333em">9</tspan><tspan x="136.86035" y="36">1</tspan></text><text transform="translate(550.09998 572.96786)" style="font-size:30px;font-family:VIC-Bold, VIC;font-weight:700">Login –<tspan x="0" y="36" style="letter-spacing:-0.008984375em">O</tspan><tspan x="23.25" y="36">scar</tspan><tspan x="88.23047" y="36" style="letter-spacing:0.009993489583333333em">9</tspan><tspan x="106.86035" y="36">1</tspan></text><text transform="translate(742.11392 572.96786)" style="font-size:30px;font-family:VIC-Bold, VIC;font-weight:700">Email –<tspan x="0" y="36" style="letter-spacing:-0.008984375em">O</tspan><tspan x="23.25" y="36">scar199!</tspan></text><path d="M885.59634,777.11841c0-5.47-162.42976-9.90429-362.79687-9.90429s-362.79688,4.43434-362.79688,9.90429c0,5.47009,162.42974,9.90444,362.79688,9.90444S885.59634,782.5885,885.59634,777.11841Z" style="fill:#1c1c27;opacity:0.2"/><path d="M79.03231,615.71376a6.8276,6.8276,0,0,0-5.201,7.6173l41.30482,281.86453a6.84139,6.84139,0,0,0,7.80769,5.7112l225.19928-33.001a6.84138,6.84138,0,0,0,5.84074-7.71126L312.679,588.33a6.84134,6.84134,0,0,0-7.80766-5.711L79.67208,615.62Q79.35021,615.65211,79.03231,615.71376Z" style="fill:#faebd5"/><text transform="translate(119.24357 668.22869) rotate(-8.33686)" style="font-size:30px;font-family:VIC-Bold, VIC;font-weight:700"><tspan style="letter-spacing:-0.07998046875em">T</tspan><tspan x="16.74023" y="0">o Do</tspan><tspan x="81.62988" y="0" style="letter-spacing:-0.034016927083333336em">’</tspan><tspan x="89.5791" y="0">s</tspan><tspan x="0" y="70">Call Brian</tspan><tspan x="0" y="103" style="letter-spacing:-0.006998697916666667em">B</tspan><tspan x="19.64941" y="103">uy Milk!</tspan></text><line x1="87.47926" y1="716.4648" x2="326.32697" y2="681.46373" style="fill:none;stroke:#000;stroke-miterlimit:10"/><line x1="92.25265" y1="749.03847" x2="331.10036" y2="714.0374" style="fill:none;stroke:#000;stroke-miterlimit:10"/><line x1="97.02604" y1="781.61214" x2="335.87375" y2="746.61107" style="fill:none;stroke:#000;stroke-miterlimit:10"/><line x1="101.79943" y1="814.18581" x2="340.64714" y2="779.18474" style="fill:none;stroke:#000;stroke-miterlimit:10"/><line x1="106.57282" y1="846.75948" x2="345.42053" y2="811.75841" style="fill:none;stroke:#000;stroke-miterlimit:10"/><line x1="111.34621" y1="879.33315" x2="350.19392" y2="844.33208" style="fill:none;stroke:#000;stroke-miterlimit:10"/><line x1="81.81121" y1="630.61253" x2="63.05667" y2="633.36085" style="fill:none;stroke:#000;stroke-linecap:round;stroke-miterlimit:10;stroke-width:7px"/><line x1="84.40315" y1="648.29993" x2="65.64861" y2="651.04825" style="fill:none;stroke:#000;stroke-linecap:round;stroke-miterlimit:10;stroke-width:7px"/><line x1="86.99508" y1="665.98733" x2="68.24055" y2="668.73565" style="fill:none;stroke:#000;stroke-linecap:round;stroke-miterlimit:10;stroke-width:7px"/><line x1="89.58702" y1="683.67473" x2="70.83248" y2="686.42304" style="fill:none;stroke:#000;stroke-linecap:round;stroke-miterlimit:10;stroke-width:7px"/><line x1="92.17895" y1="701.36213" x2="73.42442" y2="704.11044" style="fill:none;stroke:#000;stroke-linecap:round;stroke-miterlimit:10;stroke-width:7px"/><line x1="94.77089" y1="719.04952" x2="76.01635" y2="721.79784" style="fill:none;stroke:#000;stroke-linecap:round;stroke-miterlimit:10;stroke-width:7px"/><line x1="97.36282" y1="736.73692" x2="78.60829" y2="739.48524" style="fill:none;stroke:#000;stroke-linecap:round;stroke-miterlimit:10;stroke-width:7px"/><line x1="99.95476" y1="754.42432" x2="81.20022" y2="757.17263" style="fill:none;stroke:#000;stroke-linecap:round;stroke-miterlimit:10;stroke-width:7px"/><line x1="102.5467" y1="772.11172" x2="83.79216" y2="774.86003" style="fill:none;stroke:#000;stroke-linecap:round;stroke-miterlimit:10;stroke-width:7px"/><line x1="105.13863" y1="789.79911" x2="86.38409" y2="792.54743" style="fill:none;stroke:#000;stroke-linecap:round;stroke-miterlimit:10;stroke-width:7px"/><line x1="107.73057" y1="807.48651" x2="88.97603" y2="810.23483" style="fill:none;stroke:#000;stroke-linecap:round;stroke-miterlimit:10;stroke-width:7px"/><line x1="110.3225" y1="825.17391" x2="91.56796" y2="827.92222" style="fill:none;stroke:#000;stroke-linecap:round;stroke-miterlimit:10;stroke-width:7px"/><line x1="112.91444" y1="842.86131" x2="94.1599" y2="845.60962" style="fill:none;stroke:#000;stroke-linecap:round;stroke-miterlimit:10;stroke-width:7px"/><line x1="115.50637" y1="860.5487" x2="96.75183" y2="863.29702" style="fill:none;stroke:#000;stroke-linecap:round;stroke-miterlimit:10;stroke-width:7px"/><line x1="118.09831" y1="878.2361" x2="99.34377" y2="880.98442" style="fill:none;stroke:#000;stroke-linecap:round;stroke-miterlimit:10;stroke-width:7px"/><line x1="120.69024" y1="895.9235" x2="101.93571" y2="898.67181" style="fill:none;stroke:#000;stroke-linecap:round;stroke-miterlimit:10;stroke-width:7px"/></svg>