<svg xmlns="http://www.w3.org/2000/svg" xmlns:xlink="http://www.w3.org/1999/xlink" viewBox="0 0 1000 1000"><defs><clipPath id="a"><path d="M642.70665,244.92317V192.26423c21.95944-.32841,17.67662-38.38135-4.38825-26.76829-3.94942,1.75529-14.04238-3.07178-10.53178-14.92-23.69653,17.553-56.71755-13.25329-58.80248,5.70472-4.10319,37.30963,3.83579,67.9753,24.88818,67.97749a34.541,34.541,0,0,0,6.70718-.39852v21.06358q10.3078,6.14353,20.61564,6.14354T642.70665,244.92317Z" style="fill:#e9bda0;clip-rule:evenodd"/></clipPath><clipPath id="b"><path d="M600.6,223.92349v6.6307q18.64882,0,29.00929-17.82A74.90568,74.90568,0,0,1,600.6,223.92349Z" style="fill:#cb9180;clip-rule:evenodd"/></clipPath></defs><path d="M862.79688,892.48728c0-5.46994-162.42977-9.90429-362.79688-9.90429s-362.79688,4.43435-362.79688,9.90429c0,5.4701,162.42975,9.90444,362.79688,9.90444S862.79688,897.95738,862.79688,892.48728Z" style="fill:#1c1c27;opacity:0.2"/><g style="isolation:isolate"><path d="M550.94833,313.11171l140.8346-6.61192a8.94782,8.94782,0,0,0,7.71123-7.65333c4.94132-34.34089-9.19337-155.44623-30.66425-165.9246a9.22818,9.22818,0,0,1-4.58428-4.99093c-13.4787-34.78616-56.79276-31.62942-69.34454-28.55263-42.18449,10.34046-76.01623,52.214-56.07018,117.14765C550.94833,255.97379,545.88948,313.73756,550.94833,313.11171Z" style="fill:#c09b57"/></g><path d="M540.1353,495.13549s-25.42447-.59723-25.4567,21.81238c-.03224,22.40917,16.35373,36.851,16.35373,36.851Z" style="fill:#e9bda0"/><path d="M564.58662,270.05147s-18.05872,12.43845-24.41908,96.93491c-6.35993,84.49646-20.50293,153.93688-19.27756,154.19738,1.22538.26006,40.83336,4.55257,40.83336,4.55257l19.35815-132.75657Z" style="fill:#e9bda0"/><path d="M590.93154,251.88254s-37.1771,11.09729-53.06946,62.55139a4.25261,4.25261,0,0,0,3.87625,5.55085l27.38693.9409Z" style="fill:#004c97"/><path d="M491.84558,780.45719l-13.90386,56.87215-20.10129,39.70382s22.55292,4.91153,32.3581-13.71915c9.80562-18.63024,7.35443-27.45529,7.35443-27.45529l21.24913-55.40153Z" style="fill:#e9bda0"/><path d="M460.14089,872.4893s-17.27157,9.384-19.73974,19.99806H482.858l8.39293-16.53843,5.67732,16.53843h5.74093s5.382-42.90688-5.11626-56.62864Z" style="fill:#00b2a9"/><path d="M652.588,780.45719l-7.23638,56.87215,19.82948,39.70382s-22.24759,4.91153-31.92032-13.71915c-9.67319-18.63024-7.25467-27.45529-7.25467-27.45529l-.00959-55.40153Z" style="fill:#e9bda0"/><path d="M662.88064,872.4893s17.27113,9.384,19.73974,19.99806H640.163l-8.39246-16.53843-5.67733,16.53843h-5.74093s-5.382-42.90688,5.11626-56.62864Z" style="fill:#00b2a9"/><path d="M679.51752,397.34241s30.44316,26.25475,28.53256,97.79351c-1.91059,71.53832-45.8564,296.57443-45.8564,296.57443H614.32476L616.41264,501.711,527.49037,791.71035h-49.536l48.58075-251.09178s21.64906-119.773,42.59019-143.27616Z" style="fill:#202028"/><polygon points="614.814 761.431 667.405 761.366 667.405 760.083 614.814 760.148 614.814 761.431"/><rect x="509.73894" y="735.38157" width="1.28238" height="51.32522" transform="translate(-257.24456 1261.47246) rotate(-89.254)"/><path d="M648.12587,761.232c18.91351-90.35009,39.95914-215.37328,32.80479-297.89784-4.29928-49.57785-16.64783-60.1783-17.17042-60.60573l-.81311.99343c.12522.10352,12.55892,10.93938,16.753,60.26345,3.86518,45.47892,1.30732,133.92063-32.82984,296.98289Z"/><rect x="615.77188" y="397.89321" width="1.28227" height="103.81729"/><path d="M616.6501,478.16711l.14359-1.28227a18.37878,18.37878,0,0,1-18.47107-18.32747V397.89321h-1.28227v60.66416A19.63242,19.63242,0,0,0,616.6501,478.16711Z"/><g style="isolation:isolate"><path d="M642.70665,244.92317V192.26423c21.95944-.32841,17.67662-38.38135-4.38825-26.76829-3.94942,1.75529-14.04238-3.07178-10.53178-14.92-23.69653,17.553-56.71755-13.25329-58.80248,5.70472-4.10319,37.30963,3.83579,67.9753,24.88818,67.97749a34.541,34.541,0,0,0,6.70718-.39852v21.06358q10.3078,6.14353,20.61564,6.14354T642.70665,244.92317Z" style="fill:#e9bda0;fill-rule:evenodd"/><g style="clip-path:url(#a)"><rect x="567.22884" y="149.25943" width="90.39784" height="101.80728" style="fill:#e9bda0"/></g></g><g style="isolation:isolate"><path d="M600.6,223.92349v6.6307q18.64882,0,29.00929-17.82A74.90568,74.90568,0,0,1,600.6,223.92349Z" style="fill:#cb9180;fill-rule:evenodd"/><g style="clip-path:url(#b)"><rect x="600.59998" y="214.22681" width="25.97538" height="16.32738" style="fill:#cb9180"/></g></g><path d="M553.051,282.57138c2.6928-4.37366,20.28157-26.54083,45.85674-36.78663q.9763-6.33238,3.575-6.84339c2.59868-.511,17.20406-.60434,17.21735,1.81327.00266.44348.43311,5.2,2.10867,5.2,1.67528,0,2.17832-4.75626,2.181-5.2.01329-2.41761,14.70375-2.35274,17.21735-1.81327q2.51373.53959,3.58561,6.83541c25.59989,10.25325,48.09515,25.69082,50.78661,30.06236.66735,1.08371-4.34388,2.207-12.79689,3.27586.35707.63279.7628,1.2326,1.085,1.888l-4.35,116.33947H569.12533l-4.02271-112.819C557.088,284.24507,552.40278,283.624,553.051,282.57138Z" style="fill:#004c97;fill-rule:evenodd"/><path d="M704.25156,283.46133c4.63335,7.511,9.37368,14.94316,14.05653,22.41769l14.231,22.28949c4.72639,7.44258,9.54655,14.81618,14.31523,22.22763l14.42069,22.1503,1.07912,1.65746a12.95871,12.95871,0,0,1-3.78966,17.93024,13.36655,13.36655,0,0,1-1.19314.68944l-15.58381,7.93015c-5.17566,2.67371-10.37279,5.313-15.51859,8.03475l-15.46644,8.11859c-5.11787,2.7667-10.27089,5.47683-15.35671,8.29482a8.8305,8.8305,0,0,1-9.3249-14.97145c4.772-3.32183,9.47686-6.75152,14.21679-10.12483l14.107-10.30127c4.71206-3.41808,9.37278-6.91858,14.05491-10.3849L742.48941,368.93l-3.90367,20.27693L721.769,368.816c-5.64379-6.76881-11.23611-13.57548-16.92218-20.31336l-17.00644-20.2515c-5.72957-6.70593-11.40176-13.454-17.18088-20.1235a20.90567,20.90567,0,0,1,31.599-27.3805A22.60352,22.60352,0,0,1,704.25156,283.46133Z" style="fill:#e9bda0"/><path d="M649.71581,418.36046c.71634,9.97631,17.5962,15.3647,27.5723,14.648,9.97648-.71693,20.7686-3.21415,20.05188-13.19025-.71664-9.97639-14.19036-19.7392-24.62549-20.38638C659.97869,398.64175,648.99909,408.38436,649.71581,418.36046Z" style="fill:#e9bda0"/><path d="M634.06918,254.133s72.46353-2.21012,92.57322,58.58876a3.15408,3.15408,0,0,1-2.395,4.04183l-48.51,9.60724Z" style="fill:#004c97"/><path d="M372.21734,446.96935H298.06276a5.85433,5.85433,0,0,0-5.85435,5.85437h0a5.85432,5.85432,0,0,0,5.85435,5.85436h74.15458a5.85435,5.85435,0,0,0,5.85439-5.85436h0A5.85436,5.85436,0,0,0,372.21734,446.96935Z" style="fill:#aaa"/><path d="M389.44632,374.98475l.48457,95.65994a52.77647,52.77647,0,0,1-52.71745,52.71745h-3.24423a52.77682,52.77682,0,0,1-52.71745-52.71745V379.8083a52.77665,52.77665,0,0,1,52.71745-52.71745h3.24423c26.67925,0,48.77714,22.14584,52.23288,47.8939h21.22744c-3.55987-37.40279-35.141-68.98088-73.46032-68.98088h-3.24423a73.88776,73.88776,0,0,0-73.80443,73.80443v90.83639a73.88794,73.88794,0,0,0,73.80443,73.80443h3.24423a73.888,73.888,0,0,0,73.8047-73.80443l-.34438-95.65994Z" style="fill:#2f2f2f"/><path d="M246.7681,401.78457H424.41475a11.2225,11.2225,0,0,1,11.2225,11.2225V558.10223a11.2224,11.2224,0,0,1-11.2224,11.2224H246.768a11.2224,11.2224,0,0,1-11.2224-11.2224V413.00707a11.2225,11.2225,0,0,1,11.2225-11.2225Z" style="fill:#004c97"/><path d="M423.34519,401.78457H335.685V569.32463h87.66051a12.32793,12.32793,0,0,0,12.29179-12.29179V414.07662A12.32819,12.32819,0,0,0,423.34519,401.78457Z" style="fill:#fff;opacity:0.1"/><path d="M359.78546,472.45948a24.19405,24.19405,0,1,0-33.00095,22.51626V513.9346a8.80684,8.80684,0,1,0,17.61368,0V494.97574A24.18323,24.18323,0,0,0,359.78546,472.45948Z" style="fill:#2f2f2f"/><path d="M340.94662,241.71821l0,25.364a5.36,5.36,0,1,1-10.7104,0v-25.364a5.36,5.36,0,1,1,10.71039,0Z" style="fill:#004c97"/><path d="M387.41749,261.63321l-17.93508,17.93508a5.36,5.36,0,1,1-7.57339-7.57339l17.93508-17.93508a5.36,5.36,0,1,1,7.57339,7.57339Z" style="fill:#004c97"/><path d="M308.53259,280.85264a5.47434,5.47434,0,0,1-7.73634.1631l-17.19409-17.19408a5.59083,5.59083,0,0,1,7.89961-7.89961l17.19409,17.19409A5.47426,5.47426,0,0,1,308.53259,280.85264Z" style="fill:#004c97"/></svg>