<svg xmlns="http://www.w3.org/2000/svg" xmlns:xlink="http://www.w3.org/1999/xlink" viewBox="0 0 1000 1000"><defs><clipPath id="a"><path d="M179.105,174.04523l1.19564,439.43488c16.97054,213.7777,309.93042,300.29532,309.93042,300.29532h.80524s292.95989-86.51762,309.93043-300.29532l3.98017-439.43488Z" style="fill:none"/></clipPath><clipPath id="b"><path d="M659.60265,402.84263V339.66535c26.34572-.394,21.20744-46.04782-5.26477-32.11512-4.7383,2.10591-16.84728-3.68534-12.63546-17.90023-28.42977,21.0591-68.04658-15.90057-70.548,6.84421-4.92278,44.762,4.602,81.553,29.85946,81.55564a41.441,41.441,0,0,0,8.04691-.47813v25.27091q12.36674,7.37068,24.7335,7.37069T659.60265,402.84263Z" style="fill:#e9bda0;clip-rule:evenodd"/></clipPath><clipPath id="c"><path d="M609.0854,377.64838v7.95515q22.37383,0,34.80375-21.37945Q628.97325,374.168,609.0854,377.64838Z" style="fill:#cb9180;clip-rule:evenodd"/></clipPath></defs><g style="clip-path:url(#a)"><path d="M488.54829,202.36221h-326.961l1.25357,427.12905C180.63375,843.269,487.789,929.78658,487.789,929.78658h.84426S795.78853,843.269,813.58137,629.49126l4.173-427.129Z" style="fill:#fff;opacity:0.5"/><path d="M225.98,525.57825l52.74586-122.65109a36.08514,36.08514,0,0,1,3.60811-8.38976l.044-.10245.002.02173A36.1035,36.1035,0,0,1,301.217,378.86654l41.70413-14.793,11.45364,39.07253c4.23128,11.00162,19.27419,16.90991,29.27222,8.29618l33.07092-39.06986,65.91258,42.91133s24.78771,15.14337,17.40593,68.73344c-7.38147,53.59006-23.0673,94.18805-23.0673,94.18805l-23.13981-9.77084-14.54985,77.36772H280.12513L278.941,546.56147Z" style="fill:#fd9e1b"/><path d="M441.656,246.15316s11.86315-45.88678-46.22352-51.86712c-50.244-5.17348-66.51786,22.50055-71.838,36.40949-5.32066,13.90894,53.72884,56.00668,53.72884,56.00668Z" style="fill:#31343f"/><path d="M403.94088,364.7542l7.03741-69.15064L361.39342,290.591l-7.038,69.1501-15.94552,5.88425,6.50442,27.52752c6.10583,25.84064,40.41676,31.37991,54.344,8.77347l18.46731-28.97391Z" style="fill:#ddb580"/><path d="M412.36327,299.483s-11.47291,58.65983-57.16514,52.87128l3.04832-29.65977Z" style="fill:#c99b65"/><path d="M350.26053,210.55s-41.90781-.90787-26.08263,55.22986l15.60725-24.2617Z" style="fill:#31343f"/><path d="M364.924,343.08531h0c-26.547-2.80527-46.57569-21.11059-43.76988-47.65756l5.59345-52.93522a21.19041,21.19041,0,0,1,23.23135-18.79032l54.51311,5.76044A21.18968,21.18968,0,0,1,423.28178,252.694L418.477,298.16577C415.67119,324.71274,387.30989,345.45132,364.924,343.08531Z" style="fill:#ddb580"/><path d="M416.26972,283.14134h0S390.89832,263.968,404.492,229.46265l27.12731,2.867s4.38041-5.75162,9.45579,2.76283c5.07593,8.515-9.75838,46.2384-9.75838,46.2384Z" style="fill:#31343f"/><path d="M440.97756,288.52811a17.38032,17.38032,0,1,1-15.45818-19.11A17.38142,17.38142,0,0,1,440.97756,288.52811Z" style="fill:#ddb580"/><path d="M404.492,229.46265s-15.96852,7.23858-40.47079,4.00839c-25.77924-3.39884-49.69841,7.40667-49.69841,7.40667s-16.56816-59.3741,49.69841-59.3741c79.32675,0,59.26056,71.19039,59.26056,71.19039Z" style="fill:#31343f"/><path d="M225.98007,525.57809s-5.64967-4.84776-10.671,4.41237c-5.02192,9.26014-5.48487,15.10766-5.48487,15.10766l61.95872,23.18514A11.545,11.545,0,0,0,287.096,559.989v0a11.545,11.545,0,0,0-7.06186-13.27041Z" style="fill:#ff8b00"/><line x1="278.55886" y1="546.22419" x2="297.69142" y2="470.27541" style="fill:none;stroke:#ff8b00;stroke-linecap:round;stroke-miterlimit:10;stroke-width:2px"/><line x1="422.02631" y1="545.58005" x2="433.59118" y2="479.58362" style="fill:none;stroke:#ff8b00;stroke-linecap:round;stroke-miterlimit:10;stroke-width:2px"/><polygon points="280.125 645.802 285.047 888.942 302.407 1119.256 367.714 1119.316 351.359 888.985 346.705 645.802 280.125 645.802" style="fill:#004c97"/><path d="M327.58968,660.43094v46.013a44.94924,44.94924,0,0,0,18.9711,36.6823l.14384.102" style="fill:none;stroke:#000;stroke-miterlimit:10;stroke-width:3px;opacity:0.5"/><polygon points="439.28 645.802 442.705 891.608 457.055 1119.316 391.803 1119.266 362.018 890.187 332.509 645.802 439.28 645.802" style="fill:#004c97"/><line x1="438.61099" y1="660.43094" x2="280.10573" y2="660.43094" style="fill:none;stroke:#000;stroke-miterlimit:10;stroke-width:3px;opacity:0.5"/><path d="M346.70462,768.66408c-.40232-3.48206,0-108.23314,0-108.23314" style="fill:none;stroke:#000;stroke-miterlimit:10;stroke-width:3px;opacity:0.5"/><path d="M388.42907,583.36626H254.43764V568.24869H388.42907a7.55837,7.55837,0,0,1,7.55821,7.55879h0A7.55836,7.55836,0,0,1,388.42907,583.36626Z"/><path d="M272.07555,583.36626H94.52643a22.77631,22.77631,0,0,1-21.9417-16.66846L37.96256,442.31317A17.25472,17.25472,0,0,1,54.58583,420.431H217.65721a15.02292,15.02292,0,0,1,14.52954,11.204Z" style="fill:#394044"/><path d="M163.97469,508.86136a16.79716,16.79716,0,1,1-16.79743-16.798A16.7971,16.7971,0,0,1,163.97469,508.86136Z" style="fill:#fff"/><path d="M413.02113,568.6109,280.52221,590.61546l.73269,34.27089,162.79767-5.50872s30.22184-10.08742,17.02852-49.61747Z" style="fill:#ddb580"/><path d="M282.47071,590.29593,242.221,559.15567a5.89454,5.89454,0,0,0-7.3978.03509h0a5.895,5.895,0,0,0-1.063,8.01945l9.04492,12.553-51.77532,3.52532a6.36533,6.36533,0,0,0-5.43025,8.829l9.63254,22.78057a6.30825,6.30825,0,0,0,4.38514,3.71315c13.665,3.18469,68.28723,14.90518,88.99894,3.97386Z" style="fill:#8e644a"/><path d="M482.63051,569.09114s12.79235,29.614-24.1148,39.20208l4.61353-10.71182L408.20335,568.789s-6.49676-23.335,17.97354-24.41464Z" style="fill:#ff8b00"/><g style="isolation:isolate"><path d="M558.50431,457.37061l155.23193-7.28785a9.86255,9.86255,0,0,0,8.49955-8.43573c5.44646-37.85151-10.1332-171.33729-33.799-182.88685a10.17152,10.17152,0,0,1-5.05292-5.50115c-14.85661-38.3423-62.59862-34.86285-76.43354-31.47153-46.497,11.39756-83.78728,57.55174-61.80217,129.12351C558.50431,394.39155,552.9283,458.06043,558.50431,457.37061Z" style="fill:#c09b57"/></g><path d="M536.54322,703.03356s-30.50288-.71652-30.54155,26.16929c-.03868,26.88528,19.6203,44.2118,19.6203,44.2118Z" style="fill:#e9bda0"/><path d="M565.87856,432.99018s-21.66585,14.923-29.29667,116.29716c-7.63029,101.37419-24.59828,184.685-23.12814,184.99749,1.47013.312,48.98961,5.46193,48.98961,5.46193l23.22483-159.274Z" style="fill:#e9bda0"/><path d="M597.48574,411.19211s-44.603,13.31392-63.6698,75.0457a5.102,5.102,0,0,0,4.65051,6.6596l32.85732,1.12884Z" style="fill:#004c97"/><path d="M703.76631,585.70683s36.524,31.499,34.23179,117.32725c-2.29222,85.82773-55.016,355.81362-55.016,355.81362H625.55163l2.50493-347.92515-106.684,347.92515H461.94191l58.2845-301.24605s25.97335-143.697,51.09736-171.89482Z" style="fill:#202028"/><path d="M666.10434,1022.28148c22.69139-108.39706,47.94077-258.393,39.35738-357.40139-5.15805-59.48076-19.97315-72.1986-20.60013-72.7114l-.97552,1.19186c.15023.12419,15.0675,13.12447,20.09935,72.30076,4.63723,54.56309,1.56844,160.67057-39.38743,356.30367Z"/><rect x="627.2878" y="586.36764" width="1.5384" height="124.55425"/><path d="M628.34145,682.67584l.17226-1.5384a22.04985,22.04985,0,0,1-22.16056-21.98829V586.36764h-1.5384v72.78151A23.55389,23.55389,0,0,0,628.34145,682.67584Z"/><g style="isolation:isolate"><path d="M659.60265,402.84263V339.66535c26.34572-.394,21.20744-46.04782-5.26477-32.11512-4.7383,2.10591-16.84728-3.68534-12.63546-17.90023-28.42977,21.0591-68.04658-15.90057-70.548,6.84421-4.92278,44.762,4.602,81.553,29.85946,81.55564a41.441,41.441,0,0,0,8.04691-.47813v25.27091q12.36674,7.37068,24.7335,7.37069T659.60265,402.84263Z" style="fill:#e9bda0;fill-rule:evenodd"/><g style="clip-path:url(#b)"><rect x="569.04855" y="288.07057" width="108.45434" height="122.14275" style="fill:#e9bda0"/></g></g><g style="isolation:isolate"><path d="M609.0854,377.64838v7.95515q22.37383,0,34.80375-21.37945Q628.97325,374.168,609.0854,377.64838Z" style="fill:#cb9180;fill-rule:evenodd"/><g style="clip-path:url(#c)"><rect x="609.0854" y="366.01484" width="31.16382" height="19.58869" style="fill:#cb9180"/></g></g><path d="M552.03874,448.01089c3.23066-5.24728,24.33271-31.84223,55.01638-44.13458q1.17131-7.59723,4.28906-8.21032c3.11774-.61309,20.64047-.72505,20.65642,2.17547.00319.53206.51962,6.23868,2.52986,6.23868,2.00992,0,2.61343-5.7063,2.61662-6.23868.016-2.90052,17.64075-2.82269,20.65643-2.17547q3.01583.64738,4.30181,8.20075c30.71334,12.30129,57.70191,30.82243,60.931,36.06716.80065,1.30018-5.21156,2.64788-15.353,3.9302.42839.75918.91516,1.47881,1.30177,2.2651l-5.21889,139.57767H571.32385l-4.82622-135.354C556.88219,450.01889,551.26106,449.27374,552.03874,448.01089Z" style="fill:#004c97;fill-rule:evenodd"/><path d="M714.87014,476.98931l-2.01489.81678c-.68432.27468-1.36087.54785-1.86741.7891l-1.65909.74967c-.5744.2539-1.10648.49991-1.52313.72413l-2.71924,1.38654c-.86485.45446-1.44926.856-2.18766,1.2865-.67455.41841-1.466.859-2.04444,1.25934-.53007.39124-1.13852.79725-1.6045,1.17634l-1.31755,1.12237-1.01008,1.06441a5.19822,5.19822,0,0,0-1.58322,3.7943l.53609,3.39467,2.19442,13.56953,2.38547,13.53348,2.573,13.49806q2.68206,13.4777,5.74521,26.88342c2.05446,8.93481,4.2629,17.84057,6.569,26.72793l31.256-21.95561q-14.898-7.35979-29.997-14.3783l-30.29374-13.874L655.9828,524.73565l-15.11807-6.98577-7.55929-3.49282a6.348,6.348,0,0,0-4.42365-.65314,12.2808,12.2808,0,0,0-2.99117.9963,19.55777,19.55777,0,0,0-3.79291,2.357,2.03587,2.03587,0,0,0-.74016,1.25633,19.54212,19.54212,0,0,0-.22334,4.46009,12.27347,12.27347,0,0,0,.5784,3.0992,6.34714,6.34714,0,0,0,2.71523,3.55292l6.719,4.91892,13.43771,9.83809L671.3723,563.908l26.81833,19.77347q13.4392,9.83583,27.11554,19.26917a20.22815,20.22815,0,0,0,31.6103-18.98886l-.35431-2.96688c-1.08819-9.117-2.27379-18.21566-3.61363-27.28518q-2.01427-13.60353-4.43767-27.12968l-2.51843-13.50844-2.706-13.47314-2.897-13.437-.73665-3.357a5.19687,5.19687,0,0,0-2.8562-2.95736l-1.32807-.62348-1.63581-.56563c-.57214-.18341-1.2865-.34-1.92274-.51142-.68432-.16238-1.582-.28445-2.36269-.42855-.84432-.13208-1.53489-.29333-2.50591-.4015l-3.03723-.30134c-.46974-.05709-1.05515-.09252-1.68238-.11981l-1.81808-.09428c-.55963-.04018-1.28926-.0482-2.02666-.055l-2.17389-.027A3.77121,3.77121,0,0,0,714.87014,476.98931Z" style="fill:#edbc9f"/><path d="M650.92549,406.80312s86.52241,8.89235,100.77008,84.38932a3.78408,3.78408,0,0,1-3.4906,4.42564l-59.21373,3.71227Z" style="fill:#004c97"/><path d="M643.64484,518.9929l-5.84137-22.03108a25.66388,25.66388,0,0,0-10.31709-14.46515L614.078,473.36749l2.09049,38.36209Z" style="fill:#edbc9f"/><path d="M587.9914,443.35665h34.85043a1.52065,1.52065,0,0,1,1.52065,1.52065v64.645a1.52084,1.52084,0,0,1-1.52084,1.52084H587.99116a1.52057,1.52057,0,0,1-1.52057-1.52057V444.87747A1.52082,1.52082,0,0,1,587.9914,443.35665Z" transform="translate(1188.44596 981.50699) rotate(-177.38674)" style="fill:#232322"/><path d="M643.01115,517.635l-19.45646-22.27971L589.57428,484.987a2.71611,2.71611,0,0,0-3.94633,1.37031c-2.44744,8.109-7.00367,30.35759,12.10656,41.68074,23.63871,14.00629,37.21806,10.39183,37.21806,10.39183Z" style="fill:#edbc9f"/></g><path d="M897.88349,297.06167H823.72891a5.85432,5.85432,0,0,0-5.85435,5.85436h0a5.85432,5.85432,0,0,0,5.85435,5.85437h74.15458a5.85435,5.85435,0,0,0,5.85438-5.85437h0A5.85434,5.85434,0,0,0,897.88349,297.06167Z" style="fill:#aaa"/><path d="M915.11246,225.07706l.48458,95.66a52.77648,52.77648,0,0,1-52.71745,52.71745h-3.24424A52.77682,52.77682,0,0,1,806.9179,320.737V229.90062a52.77665,52.77665,0,0,1,52.71745-52.71745h3.24424c26.67924,0,48.77713,22.14583,52.23287,47.89389h21.22745c-3.55987-37.40278-35.141-68.98087-73.46032-68.98087h-3.24424a73.88776,73.88776,0,0,0-73.80443,73.80443V320.737a73.88794,73.88794,0,0,0,73.80443,73.80443h3.24424a73.888,73.888,0,0,0,73.8047-73.80443l-.34438-95.66Z" style="fill:#2f2f2f"/><path d="M772.43424,251.87688H950.0809a11.2225,11.2225,0,0,1,11.2225,11.2225V408.19455a11.2224,11.2224,0,0,1-11.2224,11.2224H772.43414a11.2224,11.2224,0,0,1-11.2224-11.2224V263.09938A11.2225,11.2225,0,0,1,772.43424,251.87688Z" style="fill:#e8e8e8"/><path d="M949.01134,251.87688H861.3511V419.417h87.66051a12.32793,12.32793,0,0,0,12.29179-12.2918V264.16894A12.3282,12.3282,0,0,0,949.01134,251.87688Z" style="fill:#fff"/><path d="M885.4516,322.5518a24.194,24.194,0,1,0-33.00095,22.51625v18.95886a8.80684,8.80684,0,1,0,17.61368,0V345.06805A24.18319,24.18319,0,0,0,885.4516,322.5518Z" style="fill:#2f2f2f"/><path d="M866.61277,91.81053v25.364a5.36,5.36,0,1,1-10.7104,0v-25.364a5.36,5.36,0,1,1,10.7104,0Z" style="fill:#fff"/><path d="M913.08364,111.72553l-17.93508,17.93508a5.36,5.36,0,1,1-7.5734-7.57339l17.93508-17.93509a5.36,5.36,0,1,1,7.5734,7.5734Z" style="fill:#fff"/><path d="M834.19873,130.945a5.47434,5.47434,0,0,1-7.73634.16311L809.26831,113.914a5.59082,5.59082,0,0,1,7.8996-7.8996L834.362,123.20845A5.47424,5.47424,0,0,1,834.19873,130.945Z" style="fill:#fff"/><path d="M389.80535,582.35222H255.81392V567.23465H389.80535a7.55837,7.55837,0,0,1,7.55821,7.55879h0A7.55837,7.55837,0,0,1,389.80535,582.35222Z"/><path d="M273.45182,582.35222H95.90271A22.7763,22.7763,0,0,1,73.961,565.68376L39.33884,441.29913A17.25472,17.25472,0,0,1,55.96211,419.417H219.03349a15.02293,15.02293,0,0,1,14.52954,11.204Z" style="fill:#394044"/><path d="M165.351,507.84732a16.79715,16.79715,0,1,1-16.79742-16.798A16.79709,16.79709,0,0,1,165.351,507.84732Z" style="fill:#fff"/><path d="M282.61011,589.70945l-40.24968-31.14026a5.89455,5.89455,0,0,0-7.3978.03509h0a5.895,5.895,0,0,0-1.063,8.01945l9.04492,12.553-51.77532,3.52532a6.36532,6.36532,0,0,0-5.43024,8.829l9.63253,22.78057a6.30829,6.30829,0,0,0,4.38514,3.71316c13.665,3.18468,68.28723,14.90517,88.999,3.97385Z" style="fill:#ddb580"/></svg>