<svg xmlns="http://www.w3.org/2000/svg" viewBox="0 0 1000 1000"><path d="M717.03147,194.2132l-25.663,25.663a7.66948,7.66948,0,1,1-10.83663-10.83663l25.663-25.663a7.66947,7.66947,0,1,1,10.83662,10.83663Z" style="fill:#bf2f32"/><path d="M743.90032,261.38146H707.60741a7.66947,7.66947,0,1,1,0-15.3253h36.29291a7.66947,7.66947,0,1,1,0,15.3253Z" style="fill:#bf2f32"/><path d="M644.63977,201.01279a7.83313,7.83313,0,0,1-7.99254-7.66249V158.55684a7.99981,7.99981,0,0,1,15.98542,0V193.3503A7.833,7.833,0,0,1,644.63977,201.01279Z" style="fill:#bf2f32"/><ellipse cx="440.39616" cy="449.42752" rx="186.89204" ry="186.80356" style="fill:#fff"/><path d="M669.1297,611.138c32.07852-46.00385,51.60447-101.7661,51.60447-161.71051,0-154.74022-125.52449-280.20531-280.338-280.20531s-280.338,125.46509-280.338,280.20531,125.52452,280.20529,280.338,280.20529c59.9728,0,115.76146-19.51681,161.7871-51.58L759.39693,835.16541c9.763,9.75835,20.92074,13.94056,33.47321,13.94056s23.71014-4.18221,33.47322-13.94056c18.13136-18.12277,18.13136-48.792,0-66.91474ZM253.50411,449.42752c0-103.16018,83.683-186.80356,186.89205-186.80356s186.892,83.64338,186.892,186.80356-83.683,186.80356-186.892,186.80356S253.50411,552.58771,253.50411,449.42752Z" style="fill:#c4c4c4"/><path d="M573.58976,496.6758H307.20256A17.18823,17.18823,0,0,1,290.029,479.51041V419.34464a17.18823,17.18823,0,0,1,17.17352-17.16539h266.3872a17.18822,17.18822,0,0,1,17.17351,17.16539v60.16577A17.18822,17.18822,0,0,1,573.58976,496.6758Zm-266.3872-90.682a13.36862,13.36862,0,0,0-13.35718,13.35086v60.16577a13.36863,13.36863,0,0,0,13.35718,13.35086h266.3872a13.36863,13.36863,0,0,0,13.35718-13.35086V419.34464a13.36862,13.36862,0,0,0-13.35718-13.35086Z" style="fill:#bf2f32"/><path d="M345.24364,447.90022l8.5321,4.97553-3.15917,5.52685-8.13829-4.73712v8.92292h-7.18793v-8.92292l-8.137,4.73712-3.1604-5.52685,8.5321-4.97553-8.5321-4.89482,3.1604-5.60755,8.137,4.73836v-8.8447h7.18793v8.8447l8.13829-4.73836,3.15917,5.60755Z" style="fill:#bf2f32"/><path d="M385.84937,447.90022l8.53209,4.97553-3.1604,5.52685-8.13705-4.73712v8.92292H375.8936v-8.92292l-8.137,4.73712-3.15916-5.52685,8.53209-4.97553-8.53209-4.89482,3.15916-5.60755,8.137,4.73836v-8.8447H383.084v8.8447l8.13705-4.73836,3.1604,5.60755Z" style="fill:#bf2f32"/><path d="M426.45261,447.90022l8.5321,4.97553-3.15916,5.52685-8.13829-4.73712v8.92292h-7.18793v-8.92292l-8.137,4.73712-3.16041-5.52685,8.5321-4.97553-8.5321-4.89482,3.16041-5.60755,8.137,4.73836v-8.8447h7.18793v8.8447l8.13829-4.73836,3.15916,5.60755Z" style="fill:#bf2f32"/><path d="M467.05834,447.90022l8.5321,4.97553L472.43,458.4026l-8.137-4.73712v8.92292h-7.19042v-8.92292l-8.137,4.73712-3.15916-5.52685,8.5321-4.97553-8.5321-4.89482,3.15916-5.60755,8.137,4.73836v-8.8447H464.293v8.8447l8.137-4.73836,3.16041,5.60755Z" style="fill:#bf2f32"/><path d="M507.66158,447.90022l8.5321,4.97553-3.1604,5.52685-8.137-4.73712v8.92292H497.7083v-8.92292l-8.137,4.73712-3.1604-5.52685,8.5321-4.97553-8.5321-4.89482,3.1604-5.60755,8.137,4.73836v-8.8447h7.18793v8.8447l8.137-4.73836,3.1604,5.60755Z" style="fill:#bf2f32"/><path d="M548.26731,447.90022l8.5321,4.97553-3.1604,5.52685-8.137-4.73712v8.92292H538.314v-8.92292L530.177,458.4026l-3.1604-5.52685,8.53209-4.97553-8.53209-4.89482,3.1604-5.60755,8.13705,4.73836v-8.8447H545.502v8.8447l8.137-4.73836,3.1604,5.60755Z" style="fill:#bf2f32"/></svg>