<svg xmlns="http://www.w3.org/2000/svg" viewBox="0 0 800.76 800.76"><title>Icon_Incorrect</title><g id="Change_colour" data-name="Change colour"><path d="M413.61,262a130.81,130.81,0,1,0,130.8,130.8A130.8,130.8,0,0,0,413.61,262Zm0,243.28A112.48,112.48,0,1,1,526.09,392.77,112.48,112.48,0,0,1,413.61,505.25Z" style="fill: rgb(97, 206, 206);"/><path d="M413.61,280.29A112.48,112.48,0,1,0,526.09,392.77,112.48,112.48,0,0,0,413.61,280.29Zm34.11,141-5.62,5.62-28.49-28.49-28.48,28.49-5.63-5.62L408,392.77,379.5,364.29l5.63-5.63,28.48,28.49,28.49-28.49,5.62,5.63-28.49,28.48Z" style="fill: rgb(97, 206, 206);"/><path d="M648,379.8a16,16,0,0,1,11.17,4.14c4.49,4.39,13.64,4.39,18.13,0,5.63-5.52,16.69-5.51,22.33,0l-2.1,2.14c-4.49-4.39-13.64-4.39-18.13,0-5.64,5.51-16.7,5.51-22.33,0-4.49-4.39-13.64-4.39-18.13,0-5.64,5.51-16.7,5.51-22.33,0l2.09-2.14c4.5,4.39,13.65,4.39,18.14,0A16,16,0,0,1,648,379.8Z" style="fill: rgb(97, 206, 206);"/><path d="M648,402.55a16.06,16.06,0,0,1,11.17,4.13c4.49,4.4,13.64,4.4,18.13,0,5.64-5.51,16.69-5.51,22.33,0l-2.1,2.15c-4.49-4.39-13.64-4.39-18.13,0-5.64,5.51-16.7,5.51-22.33,0-4.49-4.39-13.64-4.39-18.13,0-5.64,5.51-16.7,5.51-22.33,0l2.09-2.15c4.5,4.4,13.65,4.4,18.14,0A16.05,16.05,0,0,1,648,402.55Z" style="fill: rgb(97, 206, 206);"/><path d="M155.1,379.8a16,16,0,0,1,11.16,4.14c4.5,4.39,13.65,4.39,18.14,0,5.63-5.52,16.69-5.51,22.33,0l-2.1,2.14c-4.49-4.39-13.64-4.39-18.13,0-5.64,5.51-16.7,5.51-22.33,0-4.49-4.39-13.65-4.39-18.14,0-5.63,5.51-16.69,5.51-22.32,0l2.09-2.14c4.49,4.39,13.65,4.39,18.14,0A16,16,0,0,1,155.1,379.8Z" style="fill: rgb(97, 206, 206);"/><path d="M155.1,402.55a16,16,0,0,1,11.16,4.13c4.5,4.4,13.65,4.4,18.14,0,5.63-5.51,16.69-5.51,22.33,0l-2.1,2.15c-4.49-4.39-13.64-4.39-18.13,0-5.64,5.51-16.7,5.51-22.33,0-4.49-4.39-13.65-4.39-18.14,0-5.63,5.51-16.69,5.51-22.32,0l2.09-2.15c4.49,4.4,13.65,4.4,18.14,0A16,16,0,0,1,155.1,402.55Z" style="fill: rgb(97, 206, 206);"/></g><g id="Foreground"><g style="opacity:0.4"><path d="M413.61,262a130.81,130.81,0,1,0,130.8,130.8A130.8,130.8,0,0,0,413.61,262Zm0,243.28A112.48,112.48,0,1,1,526.09,392.77,112.48,112.48,0,0,1,413.61,505.25Z" style="fill:#fff"/></g><path d="M426.45,233.28l7.83,6.51a20.09,20.09,0,0,0,18.78,3.73l9.73-3a20.06,20.06,0,0,1,23.71,9.82l4.75,9A20.11,20.11,0,0,0,507.17,270l10.15.94a20.08,20.08,0,0,1,18.15,18.15l.93,10.14A20.11,20.11,0,0,0,547,315.13l9,4.75a20.08,20.08,0,0,1,9.83,23.71l-3,9.73a20.09,20.09,0,0,0,3.74,18.78l6.51,7.84a20.09,20.09,0,0,1,0,25.67l-6.51,7.83a20.09,20.09,0,0,0-3.74,18.78l3,9.73a20.1,20.1,0,0,1-9.83,23.72l-9,4.74a20.11,20.11,0,0,0-10.64,15.92l-.93,10.15a20.09,20.09,0,0,1-18.15,18.15l-10.15.94a20.08,20.08,0,0,0-15.92,10.63l-4.75,9A20.08,20.08,0,0,1,462.79,545l-9.73-3a20.09,20.09,0,0,0-18.78,3.74l-7.83,6.51a20.09,20.09,0,0,1-25.67,0l-7.84-6.51A20.09,20.09,0,0,0,374.16,542l-9.73,3a20.09,20.09,0,0,1-23.71-9.82l-4.75-9a20.08,20.08,0,0,0-15.92-10.63l-10.14-.94a20.1,20.1,0,0,1-18.16-18.15l-.93-10.15a20.11,20.11,0,0,0-10.64-15.92l-9-4.74A20.1,20.1,0,0,1,261.34,442l3-9.73a20.09,20.09,0,0,0-3.74-18.78l-6.51-7.83a20.09,20.09,0,0,1,0-25.67l6.51-7.84a20.09,20.09,0,0,0,3.74-18.78l-3-9.73a20.08,20.08,0,0,1,9.83-23.71l9-4.75a20.11,20.11,0,0,0,10.64-15.92l.93-10.14a20.09,20.09,0,0,1,18.16-18.15l10.14-.94A20.11,20.11,0,0,0,336,259.34l4.75-9a20.07,20.07,0,0,1,23.71-9.82l9.73,3a20.08,20.08,0,0,0,18.78-3.73l7.84-6.51A20.06,20.06,0,0,1,426.45,233.28Z" style="fill:none;stroke:#141719;stroke-miterlimit:10;stroke-width:3px"/></g></svg>