<svg xmlns="http://www.w3.org/2000/svg" viewBox="0 0 1000 1000"><path d="M856.84845,134.47142l-26.81186,26.81187a8.01282,8.01282,0,1,1-11.32176-11.32176l26.81185-26.81187a8.01282,8.01282,0,1,1,11.32177,11.32176Z" style="fill:#e79c2f"/><path d="M884.92017,204.64671H847.00248a8.01282,8.01282,0,1,1,0-16.01139h37.91769a8.01282,8.01282,0,1,1,0,16.01139Z" style="fill:#e79c2f"/><path d="M781.21588,141.57542a8.1838,8.1838,0,0,1-8.35036-8.00552V97.21879a8.35795,8.35795,0,0,1,16.70106,0V133.5699A8.18367,8.18367,0,0,1,781.21588,141.57542Z" style="fill:#e79c2f"/><path d="M143.15155,825.52458l26.81186-26.81187a8.01282,8.01282,0,1,1,11.32176,11.32176l-26.81185,26.81187a8.01282,8.01282,0,1,1-11.32177-11.32176Z" style="fill:#e79c2f"/><path d="M115.07983,755.34929h37.91769a8.01282,8.01282,0,1,1,0,16.01139H115.07983a8.01282,8.01282,0,1,1,0-16.01139Z" style="fill:#e79c2f"/><path d="M218.78412,818.42058a8.1838,8.1838,0,0,1,8.35036,8.00552v36.35111a8.35795,8.35795,0,0,1-16.70106,0V826.4261A8.18367,8.18367,0,0,1,218.78412,818.42058Z" style="fill:#e79c2f"/><rect x="191.95148" y="180.8617" width="609.26244" height="598.2726" rx="53.44234" style="fill:#d7d7d4"/><rect x="296.92433" y="283.94105" width="399.31675" height="392.1139" rx="53.44234" style="fill:#aaa"/><rect x="169.57096" y="283.94105" width="44.91804" height="120.18396" rx="10.53155" style="fill:#aaa"/><rect x="169.57096" y="555.87099" width="44.91804" height="120.18396" rx="10.53155" style="fill:#aaa"/><path d="M627.84824,492.45562V454.87223l-42.834-11.883a79.30113,79.30113,0,0,0-4.14523-10.2249l21.83154-38.41244-26.8058-26.8058-38.68879,21.83153a62.92293,62.92293,0,0,0-9.94854-4.14523l-11.60665-42.834h-38.1361l-11.60662,42.834c-3.31619,1.38174-6.90872,2.76348-9.94855,4.14522L417.2707,367.54611l-26.80581,26.8058,21.83154,38.41243a65.98239,65.98239,0,0,0-4.14523,10.22489l-42.834,11.883V492.732l42.834,11.60663a75.96962,75.96962,0,0,0,4.14522,9.94854l-21.83152,38.41245,26.8058,26.80579,38.68878-21.83153a62.92328,62.92328,0,0,0,9.94854,4.14522l11.883,42.834h37.85974l11.60664-42.55765c3.31619-1.38174,6.90871-2.76349,9.94854-4.14523l38.68879,21.83154,26.8058-26.8058L580.869,514.56351a75.97335,75.97335,0,0,0,4.14523-9.94854ZM496.5827,518.43237a44.76845,44.76845,0,1,1,44.76845-44.76845A44.58231,44.58231,0,0,1,496.5827,518.43237Z" style="fill:#7f7f7f"/><line x1="619.30584" y1="206.69021" x2="731.24382" y2="206.69021" style="fill:none;stroke:#fff;stroke-linecap:round;stroke-miterlimit:10;stroke-width:7px"/><line x1="779.21724" y1="259.72904" x2="779.21724" y2="382.5729" style="fill:none;stroke:#fff;stroke-linecap:round;stroke-miterlimit:10;stroke-width:7px"/><line x1="245.11316" y1="755.16647" x2="353.85291" y2="755.16647" style="fill:none;stroke:#fff;stroke-linecap:round;stroke-miterlimit:10;stroke-width:7px"/></svg>